<svg id="Capa_1" xmlns="http://www.w3.org/2000/svg" viewBox="0 0 480 480"><style>.st0{fill:#e60000}</style><path class="st0" d="M469.7 234.3l-24-24c-1.5-1.5-3.6-2.4-5.8-2.3-2.2 0-4.2.9-5.7 2.5L376 271.8V192h24c4.4 0 8-3.6 8-8v-75.7c0-25.6-18.5-47.4-43.7-51.6 2.5-5.2 3.7-10.9 3.7-16.7 0-22.1-17.9-40-40-40s-40 17.9-40 40c0 5.8 1.3 11.5 3.7 16.7-25.2 4.2-43.7 26-43.7 51.6V144h-88v-35.7c0-25.6-18.5-47.4-43.7-51.6 2.5-5.2 3.7-10.9 3.7-16.7 0-22.1-17.9-40-40-40S40 17.9 40 40c0 5.8 1.3 11.5 3.7 16.7C18.5 60.9 0 82.7 0 108.3V184c0 4.4 3.6 8 8 8h24v104c0 4.4 3.6 8 8 8h40v168c0 4.4 3.6 8 8 8h240c4.4 0 8-3.6 8-8v-85.6l133.8-140.8c3-3.2 2.9-8.2-.1-11.3zM264 108.3c0-20 16.2-36.2 36.3-36.3h6.8c4.4 0 8-3.6 8-8 0-2.3-1-4.5-2.7-6-5.3-4.5-8.3-11.1-8.3-18 0-13.3 10.7-24 24-24s24 10.7 24 24c0 6.9-3 13.5-8.3 18-3.3 2.9-3.7 8-.8 11.3 1.5 1.7 3.7 2.7 6 2.7h6.8c20 0 36.2 16.2 36.3 36.3V176h-16V96h-16v192.6l-24 25.3V216c0-2.1-.8-4.2-2.3-5.7L296 172.7V96h-16v60.7l-10.3-10.3c-1.5-1.5-3.5-2.3-5.7-2.3v-35.8zm44.7 99.7H272v-36.7l36.7 36.7zM80 152v136H48V96H32v80H16v-67.7C16 88.2 32.2 72 52.3 72H59c4.4 0 8-3.6 8-8 0-2.3-1-4.5-2.7-6C59 53.5 56 46.9 56 40c0-13.3 10.7-24 24-24s24 10.7 24 24c0 6.9-3 13.5-8.3 18-3.3 2.9-3.7 8-.8 11.3 1.5 1.7 3.7 2.7 6 2.7h6.8c20 0 36.2 16.2 36.3 36.3V144h-16V96h-16v48H88c-4.4 0-8 3.6-8 8zm240 312H96V160h160v56c0 4.4 3.6 8 8 8h56v106.7l-36.8 38.8-30.7 15.4c-2.3 1.1-3.9 3.3-4.3 5.8l-8 48c-.7 4.4 2.2 8.5 6.6 9.2.4.1.9.1 1.3.1s.9 0 1.3-.1l48-8c2.5-.4 4.7-2 5.8-4.3l15.5-30.9 1.4-1.4-.1 60.7zm-45.7-61.7L260 416.7l3.2-19.4 23.2-11.6 15.8 15.8-11.6 23.2-19.4 3.2 14.3-14.3-11.2-11.3zm37.6-13.8l-12.7-12.7 141-148.4 12.7 12.7-141 148.4z"/><path class="st0" d="M128 184h96v16h-96zm-16 40h72v16h-72zm88 0h40v16h-40zm-88 40h88v16h-88zm104 0h88v16h-88zm-104 40h56v16h-56zm72 0h120v16H184zm-72 40h48v16h-48zm64 0h103v16H176zm-64 40h44.3v16H112zm57 0h63v16h-63zm-57 40h63v16h-63zm336 8h16v16h-16zm0 32h16v16h-16zm16-16h16v16h-16zm-32 0h16v16h-16zM448 0h16v16h-16zm0 32h16v16h-16zm16-16h16v16h-16zm-32 0h16v16h-16z"/></svg>