<svg xmlns="http://www.w3.org/2000/svg" viewBox="0 0 64 64" width="128" height="128"><circle cx="49" cy="15" fill="#fcd821" r="12"/><path d="M5 53h8v8H5zm15-3h8v11h-8zm15-4h8v15h-8zm15-9h8v24h-8z" fill="#344496"/><path d="M49 18.609L53.326 21l-.826-5.065 3.5-3.587-4.837-.739L49 7l-2.163 4.609-4.837.739 3.5 3.587L44.674 21z" fill="#ec322c"/><path d="M21.47 12.298L23 10.98a9.764 9.764 0 0 0-.707-2.104l-2.021-.185a8.357 8.357 0 0 0-.839-1.133l.443-1.934a10.22 10.22 0 0 0-1.832-1.311L16.307 5.32a8.574 8.574 0 0 0-1.369-.428L14.132 3h-2.264l-.806 1.892a8.584 8.584 0 0 0-1.369.428L7.956 4.313a10.218 10.218 0 0 0-1.832 1.31l.443 1.935a8.34 8.34 0 0 0-.839 1.133l-2.02.185A9.759 9.759 0 0 0 3 10.98l1.529 1.318v1.404L3 15.02a9.764 9.764 0 0 0 .707 2.104l2.021.185a8.354 8.354 0 0 0 .839 1.133l-.443 1.934a10.22 10.22 0 0 0 1.832 1.311l1.737-1.007a8.587 8.587 0 0 0 1.369.428L11.868 23h2.264l.806-1.892a8.59 8.59 0 0 0 1.369-.428l1.737 1.007 1.832-1.31-.443-1.935a8.345 8.345 0 0 0 .839-1.133l2.02-.185A9.765 9.765 0 0 0 23 15.02l-1.53-1.318zM13 17a4 4 0 1 1 4-4 4 4 0 0 1-4 4z" fill="#b6dedc"/><path d="M14.132 24h-2.264a1 1 0 0 1-.92-.607l-.612-1.438a9.415 9.415 0 0 1-.553-.172l-1.326.769a.998.998 0 0 1-.989.008 11.203 11.203 0 0 1-2.011-1.439 1 1 0 0 1-.308-.969l.333-1.452q-.168-.214-.325-.44l-1.54-.14a1 1 0 0 1-.817-.575 10.79 10.79 0 0 1-.779-2.32 1.002 1.002 0 0 1 .326-.963l1.182-1.018v-.488l-1.182-1.018a1.001 1.001 0 0 1-.326-.962 10.79 10.79 0 0 1 .78-2.32 1 1 0 0 1 .816-.576l1.54-.14c.105-.151.213-.299.325-.441l-.333-1.451a1 1 0 0 1 .308-.97 11.328 11.328 0 0 1 2.01-1.439 1.005 1.005 0 0 1 .991.008l1.325.77c.179-.062.363-.12.553-.172l.612-1.438a1 1 0 0 1 .92-.607h2.264a1 1 0 0 1 .92.607l.612 1.438c.19.053.374.11.553.172l1.325-.77a1 1 0 0 1 .99-.008 11.292 11.292 0 0 1 2.011 1.44 1.002 1.002 0 0 1 .308.969L20.518 7.3q.168.214.325.44l1.54.14a1 1 0 0 1 .817.575 10.79 10.79 0 0 1 .779 2.32 1.002 1.002 0 0 1-.326.963l-1.182 1.018v.488l1.182 1.018a1.002 1.002 0 0 1 .326.963 10.79 10.79 0 0 1-.78 2.32 1 1 0 0 1-.816.575l-1.54.14a9.117 9.117 0 0 1-.325.441l.333 1.451a1 1 0 0 1-.393 1.037l-1.832 1.312a1.003 1.003 0 0 1-1.084.052l-1.325-.77c-.179.062-.363.12-.553.172l-.612 1.438a1 1 0 0 1-.92.607zm-1.603-2h.942l.548-1.284a1 1 0 0 1 .697-.583 7.448 7.448 0 0 0 1.208-.377 1.006 1.006 0 0 1 .885.058l1.178.684.765-.548-.294-1.284a1 1 0 0 1 .226-.886 7.316 7.316 0 0 0 .737-.997 1.002 1.002 0 0 1 .76-.47l1.427-.13q.16-.405.274-.807l-1.064-.916a1.002 1.002 0 0 1-.347-.758v-1.404a1.002 1.002 0 0 1 .347-.758l1.064-.916q-.115-.403-.274-.807l-1.427-.13a1.002 1.002 0 0 1-.76-.47 7.37 7.37 0 0 0-.738-.998 1.001 1.001 0 0 1-.224-.885l.306-1.339q-.354-.28-.73-.521l-1.226.712a1.003 1.003 0 0 1-.885.058 7.479 7.479 0 0 0-1.208-.377.995.995 0 0 1-.697-.583L13.47 4h-.942l-.548 1.284a1 1 0 0 1-.697.583 7.448 7.448 0 0 0-1.208.377 1.009 1.009 0 0 1-.885-.058l-1.227-.712q-.375.241-.73.521l.308 1.339a1 1 0 0 1-.226.886 7.316 7.316 0 0 0-.737.997 1.002 1.002 0 0 1-.76.47l-1.427.13q-.16.405-.274.806l1.064.917a1.002 1.002 0 0 1 .347.758v1.404a1.002 1.002 0 0 1-.347.758l-1.064.916q.115.403.274.807l1.427.13a1.002 1.002 0 0 1 .76.47 7.369 7.369 0 0 0 .738.998 1.001 1.001 0 0 1 .225.885l-.307 1.339q.354.28.729.52l1.227-.71a.998.998 0 0 1 .885-.06 7.479 7.479 0 0 0 1.208.378.995.995 0 0 1 .697.583zM13 18a5 5 0 1 1 5-5 5.006 5.006 0 0 1-5 5zm0-8a3 3 0 1 0 3 3 3.003 3.003 0 0 0-3-3zm0 52H5a1 1 0 0 1-1-1v-8a1 1 0 0 1 1-1h8a1 1 0 0 1 1 1v8a1 1 0 0 1-1 1zm-7-2h6v-6H6zm22 2h-8a1 1 0 0 1-1-1V50a1 1 0 0 1 1-1h8a1 1 0 0 1 1 1v11a1 1 0 0 1-1 1zm-7-2h6v-9h-6zm22 2h-8a1 1 0 0 1-1-1V46a1 1 0 0 1 1-1h8a1 1 0 0 1 1 1v15a1 1 0 0 1-1 1zm-7-2h6V47h-6zm22 2h-8a1 1 0 0 1-1-1V37a1 1 0 0 1 1-1h8a1 1 0 0 1 1 1v24a1 1 0 0 1-1 1zm-7-2h6V38h-6zM36.879 24.523a1.001 1.001 0 0 0-.604-.485l-7-2-.55 1.924 4.9 1.4L3.452 45.164l1.098 1.672 29.68-19.477-1.646 5.347 1.911.588 2.462-8a.998.998 0 0 0-.077-.77zM49.016 28a19.92 19.92 0 0 1-2.26-.193l.345-1.971A11.025 11.025 0 0 0 49 26h.015a10.986 10.986 0 0 0 1.905-.166l.348 1.969a12.96 12.96 0 0 1-2.252.197zm-6.504-1.732a13.022 13.022 0 0 1-3.458-2.897l1.529-1.289a11.02 11.02 0 0 0 2.93 2.453zm12.996-.013l-1.003-1.73a11.037 11.037 0 0 0 2.925-2.459l1.53 1.288a13.016 13.016 0 0 1-3.452 2.9zM36.789 19.47A12.947 12.947 0 0 1 36 15.026l2-.004a10.958 10.958 0 0 0 .667 3.76zm24.431-.024l-1.88-.683A10.972 10.972 0 0 0 60 15l1.558-.037.442.008a13.006 13.006 0 0 1-.78 4.475zM38.652 11.26l-1.88-.68a12.958 12.958 0 0 1 2.25-3.913l1.535 1.283a10.952 10.952 0 0 0-1.905 3.31zm20.673-.06a10.953 10.953 0 0 0-1.922-3.3l1.526-1.29a12.932 12.932 0 0 1 2.273 3.897zm-15.85-5.714L42.47 3.757A12.914 12.914 0 0 1 46.706 2.2l.353 1.969a10.92 10.92 0 0 0-3.583 1.316zm10.994-.032a10.906 10.906 0 0 0-3.591-1.294l.339-1.97a12.877 12.877 0 0 1 4.247 1.53z"/></svg>