<svg xmlns="http://www.w3.org/2000/svg" id="Layer_1" viewBox="0 0 64 64" width="128" height="128"><style>.st0{fill:#4bad32}.st1{fill:#ec322c}.st2{fill:#fcd821}.st3{fill:#b6dedc}</style><path class="st0" d="M61 33.2c-.1-2.8-2.4-4.9-5.2-4.9-1-2.7-4-4-6.7-2.9-1.3.5-2.4 1.6-2.9 2.9-2.8 0-5.1 2.1-5.2 4.9 0 1 .4 2 1 2.8-.1.4-.2.8-.2 1.3 0 2.7 2.3 4.9 5 4.9 1.5 0 2.9-.4 4.2-1 1.3.7 2.7 1 4.2 1 2.7 0 5-2.2 5-4.9 0-.4-.1-.8-.2-1.3.6-.8 1-1.8 1-2.8z"/><circle class="st1" cx="9" cy="46" r="4"/><path class="st1" d="M7.9 50H10c2.2 0 3.9 1.8 3.9 3.9V60H4v-6.1C4 51.8 5.8 50 7.9 50z"/><circle class="st2" cx="32" cy="13" r="4"/><ellipse class="st3" cx="51" cy="56" rx="10" ry="5"/><path d="M12.4 49.6c2-1.9 2.1-5.1.2-7.1-1.9-2-5.1-2.1-7.1-.2s-2.1 5.1-.2 7.1l.2.2C4 50.5 3 52.1 3 53.9V60c0 .6.4 1 1 1h10c.6 0 1-.4 1-1v-6.1c0-1.8-1-3.4-2.6-4.3zM9 43c1.7 0 3 1.3 3 3s-1.3 3-3 3-3-1.3-3-3 1.3-3 3-3zm4 16H5v-5.1C5 52.3 6.3 51 7.9 51H10c1.6 0 2.9 1.3 2.9 2.9V59zm19-41c-2.8 0-5-2.2-5-5s2.2-5 5-5 5 2.2 5 5-2.2 5-5 5zm0-8c-1.7 0-3 1.3-3 3s1.3 3 3 3 3-1.3 3-3-1.3-3-3-3zm-1-8h2v4h-2zm0 18h2v4h-2zm-10-8h4v2h-4zm18 0h4v2h-4z"/><path transform="rotate(-45.001 38.545 6.455)" d="M36.5 5.5h4.1v2h-4.1z"/><path transform="rotate(-45.001 25.454 19.546)" d="M23.4 18.5h4.1v2h-4.1z"/><path transform="rotate(-45.001 25.455 6.455)" d="M24.5 4.4h2v4.1h-2z"/><path transform="rotate(-44.992 38.544 19.545)" d="M37.5 17.5h2v4.1h-2z"/><path d="M13 36c-.6 0-1.1-.3-1.4-.7-.4-.6-.9-1-1.6-1.3v-2c1.2.2 2.3.8 3 1.8.7-1 1.8-1.7 3-1.8v2c-.7.3-1.2.7-1.6 1.3-.3.4-.8.7-1.4.7zm8 0c-.6 0-1.1-.3-1.4-.7-.4-.6-.9-1-1.6-1.3v-2c1.2.2 2.3.8 3 1.8.7-1 1.8-1.7 3-1.8v2c-.7.3-1.2.7-1.6 1.3-.3.4-.8.7-1.4.7zm31 14v-7.3c1 .3 2.1.5 3.2.5 3.3 0 6-2.6 6-5.9 0-.3 0-.7-.1-1 .6-.9.9-2 .9-3.1-.1-3-2.4-5.6-5.5-5.8-1.6-3-5.4-4.2-8.4-2.6-1.1.6-2 1.5-2.6 2.6-3 .3-5.4 2.8-5.5 5.8 0 1.1.3 2.2.9 3.1-.1.3-.1.7-.1 1 0 3.3 2.7 5.9 6 5.9 1.1 0 2.1-.2 3.2-.5V50c-6.3.2-10 2.4-10 6 0 3.4 4.8 6 11 6s11-2.6 11-6c0-3.2-4.3-5.7-10-6zm-5.2-8.8c-2.2 0-4-1.7-4-3.9 0-.3 0-.7.1-1 .1-.3 0-.6-.2-.9-.4-.6-.7-1.4-.7-2.2.1-2.2 2-3.9 4.2-3.9.4 0 .8-.3.9-.7.9-2.1 3.3-3.1 5.4-2.3 1 .4 1.8 1.2 2.3 2.3.1.4.5.7.9.7 2.2 0 4.1 1.7 4.2 3.9 0 .8-.3 1.6-.8 2.2-.1.3-.2.6-.1.9.1.3.1.7.1 1 0 2.2-1.8 3.9-4 3.9-1.1 0-2.2-.2-3.2-.6v-2.1l3.6-2.7-1.2-1.6L52 36v-3h-2v3l-2.4-1.8-1.2 1.6 3.6 2.7v2.1c-1 .3-2.1.6-3.2.6zM51 60c-5.3 0-9-2.1-9-4 0-2.9 4.6-4 9-4 5.3 0 9 2.1 9 4s-3.7 4-9 4z"/><path d="M52 55h4v2h-4zm-7-1h4v2h-4zM5.2 39.1C5.1 38.1 5 37 5 36c0-8.6 4.3-16.7 11.4-21.5l1.1 1.7A23.93 23.93 0 0 0 7 36c0 1 .1 1.9.2 2.9l-2 .2zM31 62c-4.8 0-9.4-1.3-13.5-3.8l1-1.7c5.8 3.5 12.7 4.4 19.2 2.5l.6 1.9c-2.4.8-4.8 1.1-7.3 1.1zm20.2-39.5c-1.8-2.7-4-5.1-6.7-6.9l1.1-1.7c2.9 2 5.4 4.5 7.3 7.4l-1.7 1.2zM17 42c-.6 0-1.1-.3-1.4-.7-.4-.6-.9-1-1.6-1.3v-2c1.2.2 2.3.8 3 1.8.7-1 1.8-1.7 3-1.8v2c-.7.3-1.2.7-1.6 1.3-.3.4-.8.7-1.4.7z"/></svg>