<svg xmlns="http://www.w3.org/2000/svg" viewBox="0 0 64 64" width="128" height="128"><path d="M12 32L3 44l4 8h10l4-8z" fill="#b6dedc"/><path d="M7 52h10v9H7z" fill="#344496"/><path d="M33 34l-7 12.6V61h14V46.6z" fill="#fcd821"/><path d="M33 34l-2.778 5h5.556z" fill="#344496"/><path d="M26 47h14v14H26z" fill="#ec322c"/><path d="M36 47h4v14h-4zm-10 0h4v14h-4z" fill="#344496"/><path d="M47 41h14v20H47z" fill="#4bad32"/><path d="M27.165 14.158L29 12.576a11.715 11.715 0 0 0-.849-2.524l-2.425-.222a10.032 10.032 0 0 0-1.006-1.36l.531-2.321a12.259 12.259 0 0 0-2.198-1.573L20.97 5.784a10.295 10.295 0 0 0-1.643-.513l-.968-2.193h-2.716l-.968 2.193a10.302 10.302 0 0 0-1.642.513l-2.085-1.208A12.259 12.259 0 0 0 8.75 6.149l.531 2.32a10.02 10.02 0 0 0-1.006 1.36l-2.425.222A11.716 11.716 0 0 0 5 12.576l1.835 1.582v1.684L5 17.424a11.72 11.72 0 0 0 .849 2.524l2.425.222a10.028 10.028 0 0 0 1.006 1.36l-.531 2.321a12.26 12.26 0 0 0 2.198 1.573l2.084-1.208a10.295 10.295 0 0 0 1.643.513l.968 2.193h2.716l.968-2.193a10.298 10.298 0 0 0 1.642-.513l2.085 1.209a12.259 12.259 0 0 0 2.198-1.574l-.531-2.32a10.025 10.025 0 0 0 1.006-1.36l2.425-.222A11.717 11.717 0 0 0 29 17.424l-1.835-1.582zM17 21a6 6 0 1 1 6-6 6 6 0 0 1-6 6z" fill="#fcd821"/><path d="M60.886 23.705a12.805 12.805 0 0 0 0-3.41l-2.088-.44a11.879 11.879 0 0 0-.513-1.902l1.6-1.433a13.966 13.966 0 0 0-1.716-2.937l-2.019.663a12.064 12.064 0 0 0-1.396-1.396l.663-2.018a13.964 13.964 0 0 0-2.936-1.717l-1.434 1.6a11.888 11.888 0 0 0-1.903-.513l-.439-2.088a12.805 12.805 0 0 0-3.41 0l-.44 2.088a11.885 11.885 0 0 0-1.902.513l-1.433-1.6a13.965 13.965 0 0 0-2.937 1.716l.663 2.019a12.064 12.064 0 0 0-1.396 1.396l-2.018-.663a13.963 13.963 0 0 0-1.717 2.936l1.6 1.434a11.88 11.88 0 0 0-.513 1.903l-2.088.439a12.805 12.805 0 0 0 0 3.41l2.088.44a11.877 11.877 0 0 0 .513 1.902l-1.6 1.433a13.966 13.966 0 0 0 1.716 2.937l2.019-.663a12.064 12.064 0 0 0 1.396 1.396l-.663 2.018a13.964 13.964 0 0 0 2.936 1.717l1.434-1.6a11.888 11.888 0 0 0 1.903.513l.439 2.088a12.805 12.805 0 0 0 3.41 0l.44-2.088a11.885 11.885 0 0 0 1.902-.513l1.433 1.6a13.966 13.966 0 0 0 2.937-1.716l-.663-2.019a12.069 12.069 0 0 0 1.396-1.396l2.018.663a13.964 13.964 0 0 0 1.717-2.936l-1.6-1.434a11.888 11.888 0 0 0 .513-1.903zM47 30a8 8 0 1 1 8-8 8 8 0 0 1-8 8z" fill="#ec322c"/><path d="M47 31a9 9 0 1 1 9-9 9.01 9.01 0 0 1-9 9zm0-16a7 7 0 1 0 7 7 7.008 7.008 0 0 0-7-7zM18.358 27.922h-2.716a1 1 0 0 1-.915-.596l-.77-1.745a11.46 11.46 0 0 1-.838-.26l-1.67.969a1 1 0 0 1-.99.007 13.304 13.304 0 0 1-2.377-1.7 1 1 0 0 1-.308-.97l.429-1.871-.467-.63-1.979-.182a.999.999 0 0 1-.816-.575 12.776 12.776 0 0 1-.92-2.74 1 1 0 0 1 .359-.99L6 15.36v-.717L4.38 13.36a1 1 0 0 1-.359-.988 12.759 12.759 0 0 1 .92-2.742 1 1 0 0 1 .817-.575l1.978-.18.467-.63-.429-1.873a1 1 0 0 1 .308-.969 13.27 13.27 0 0 1 2.378-1.7 1.003 1.003 0 0 1 .989.007l1.67.97c.265-.095.54-.181.83-.26l.773-1.812a1 1 0 0 1 .92-.608h2.716a1 1 0 0 1 .92.608l.773 1.813c.289.078.565.164.83.258l1.67-.969a1.001 1.001 0 0 1 .99-.007 13.304 13.304 0 0 1 2.377 1.7 1 1 0 0 1 .308.97l-.429 1.871.467.63 1.979.182a.999.999 0 0 1 .816.575 12.776 12.776 0 0 1 .92 2.74 1 1 0 0 1-.359.99L28 14.64v.717l1.62 1.282a1 1 0 0 1 .359.988 12.78 12.78 0 0 1-.92 2.741.999.999 0 0 1-.817.575l-1.978.181-.467.63.429 1.873a1 1 0 0 1-.308.969 13.27 13.27 0 0 1-2.378 1.7.998.998 0 0 1-.989-.007l-1.67-.97a10.99 10.99 0 0 1-.838.261l-.77 1.745a1 1 0 0 1-.915.596zm-2.065-2h1.414l.704-1.597a1 1 0 0 1 .692-.57 9.154 9.154 0 0 0 1.482-.463 1.005 1.005 0 0 1 .885.059l1.577.915a11.294 11.294 0 0 0 1.094-.783l-.396-1.73a.998.998 0 0 1 .171-.817l1.006-1.36a1.002 1.002 0 0 1 .713-.402l1.836-.167a10.869 10.869 0 0 0 .407-1.196l-1.498-1.185a.998.998 0 0 1-.38-.784v-1.684a.998.998 0 0 1 .38-.784l1.497-1.185a10.721 10.721 0 0 0-.406-1.195l-1.836-.169a1 1 0 0 1-.713-.4l-1.006-1.361a.998.998 0 0 1-.17-.818l.395-1.73a11.307 11.307 0 0 0-1.093-.781l-1.578.914a1 1 0 0 1-.884.06 9.189 9.189 0 0 0-1.482-.463 1 1 0 0 1-.698-.583L17.698 4h-1.396l-.708 1.663a1 1 0 0 1-.697.583 9.154 9.154 0 0 0-1.482.462 1.001 1.001 0 0 1-.885-.059l-1.577-.915a11.293 11.293 0 0 0-1.094.783l.396 1.73a.998.998 0 0 1-.171.817l-1.006 1.36a1 1 0 0 1-.713.401l-1.835.168a10.802 10.802 0 0 0-.408 1.196l1.498 1.185a.998.998 0 0 1 .38.784v1.684a.998.998 0 0 1-.38.784l-1.497 1.185a10.721 10.721 0 0 0 .406 1.195l1.836.169a1 1 0 0 1 .713.4l1.006 1.361a.998.998 0 0 1 .17.818l-.395 1.73a11.307 11.307 0 0 0 1.093.781l1.578-.914a1.004 1.004 0 0 1 .884-.06 9.189 9.189 0 0 0 1.482.463 1 1 0 0 1 .693.571z"/><path d="M17 22a7 7 0 1 1 7-7 7.008 7.008 0 0 1-7 7zm0-12a5 5 0 1 0 5 5 5.006 5.006 0 0 0-5-5zm31.705 27h-3.41a1 1 0 0 1-.982-.805l-.309-1.554q-.372-.089-.743-.201l-.997 1.112a1.001 1.001 0 0 1-1.137.253 14.992 14.992 0 0 1-3.147-1.84 1 1 0 0 1-.347-1.109l.459-1.397q-.284-.267-.551-.551l-1.397.459a1 1 0 0 1-1.11-.348 14.98 14.98 0 0 1-1.839-3.147.999.999 0 0 1 .253-1.136l1.112-.997q-.112-.371-.2-.743l-1.555-.31a1 1 0 0 1-.805-.98v-3.412a1 1 0 0 1 .805-.98l1.554-.31q.089-.372.201-.743l-1.112-.997a1 1 0 0 1-.253-1.137 14.992 14.992 0 0 1 1.84-3.147 1.001 1.001 0 0 1 1.109-.347l1.397.459q.267-.284.551-.551l-.459-1.397a1 1 0 0 1 .348-1.11 14.98 14.98 0 0 1 3.147-1.839.996.996 0 0 1 1.136.253l.997 1.112q.371-.112.743-.2l.31-1.555a1 1 0 0 1 .98-.805h3.412a1 1 0 0 1 .98.805l.31 1.554q.372.089.743.201l.997-1.112a.996.996 0 0 1 1.137-.253 14.992 14.992 0 0 1 3.147 1.84 1 1 0 0 1 .347 1.109l-.459 1.397q.284.267.551.551l1.398-.459a1 1 0 0 1 1.11.348 14.98 14.98 0 0 1 1.838 3.147.999.999 0 0 1-.253 1.136l-1.112.997q.112.371.2.743l1.555.31a1 1 0 0 1 .805.98v3.412a1 1 0 0 1-.805.98l-1.554.31q-.089.372-.201.743l1.112.997a1 1 0 0 1 .253 1.137 14.992 14.992 0 0 1-1.84 3.147 1 1 0 0 1-1.109.347l-1.397-.459q-.267.284-.551.551l.459 1.398a1 1 0 0 1-.348 1.11 14.98 14.98 0 0 1-3.147 1.838.997.997 0 0 1-1.136-.253l-.997-1.112q-.371.112-.743.2l-.31 1.555a1 1 0 0 1-.98.805zm-2.59-2h1.77l.279-1.397a1 1 0 0 1 .803-.79 10.882 10.882 0 0 0 1.742-.47 1.002 1.002 0 0 1 1.083.275l.94 1.05a13.11 13.11 0 0 0 1.506-.884l-.434-1.322a1 1 0 0 1 .302-1.074 11.135 11.135 0 0 0 1.281-1.281.999.999 0 0 1 1.075-.303l1.321.434a13.074 13.074 0 0 0 .884-1.506l-1.05-.94a1 1 0 0 1-.273-1.083 10.91 10.91 0 0 0 .47-1.742 1.001 1.001 0 0 1 .789-.804L60 22.885v-1.77l-1.397-.279a1 1 0 0 1-.79-.803 10.882 10.882 0 0 0-.47-1.742 1 1 0 0 1 .275-1.083l1.05-.94a13.11 13.11 0 0 0-.884-1.506l-1.322.434a1.004 1.004 0 0 1-1.074-.302 11.135 11.135 0 0 0-1.281-1.281 1 1 0 0 1-.303-1.075l.434-1.321a13.074 13.074 0 0 0-1.506-.884l-.94 1.05a1.003 1.003 0 0 1-1.083.273 10.91 10.91 0 0 0-1.742-.47 1.001 1.001 0 0 1-.804-.789L47.885 9h-1.77l-.279 1.397a1 1 0 0 1-.803.79 10.882 10.882 0 0 0-1.742.47 1 1 0 0 1-1.083-.275l-.94-1.05a13.11 13.11 0 0 0-1.506.884l.434 1.322a1 1 0 0 1-.302 1.074 11.135 11.135 0 0 0-1.281 1.281 1 1 0 0 1-1.075.303l-1.321-.434a13.074 13.074 0 0 0-.884 1.506l1.05.94a1 1 0 0 1 .273 1.083 10.89 10.89 0 0 0-.47 1.742 1 1 0 0 1-.789.803L34 21.115v1.77l1.397.279a1 1 0 0 1 .79.803 10.882 10.882 0 0 0 .47 1.742 1 1 0 0 1-.275 1.083l-1.05.94a13.11 13.11 0 0 0 .884 1.506l1.322-.434a1 1 0 0 1 1.074.302 11.135 11.135 0 0 0 1.281 1.281 1 1 0 0 1 .303 1.075l-.434 1.321a13.074 13.074 0 0 0 1.506.884l.94-1.05a.997.997 0 0 1 1.083-.273 10.91 10.91 0 0 0 1.742.47 1.001 1.001 0 0 1 .804.789zM61 40H47a1 1 0 0 0-1 1v20a1 1 0 0 0 1 1h14a1 1 0 0 0 1-1V41a1 1 0 0 0-1-1zM48 60V42h12v2.054h-3v2h3V48h-5v2h5v2h-3v2h3v2h-5v2h5v2zm-7.12-13.474l-7-13a1.04 1.04 0 0 0-1.76 0l-7 13A.998.998 0 0 0 25 47v14a1 1 0 0 0 1 1h14a1 1 0 0 0 1-1V47a.998.998 0 0 0-.12-.474zM35 48v12h-4V48zm-7.326-2l3.231-6h4.19l3.23 6zM33 36.11L34.018 38h-2.036zM27 48h2v12h-2zm10 12V48h2v12zM21.8 43.4l-9-12a1.035 1.035 0 0 0-1.6 0l-9 12a1 1 0 0 0-.095 1.047L6 52.236V61a1 1 0 0 0 1 1h10a1 1 0 0 0 1-1v-8.764l3.895-7.789A1 1 0 0 0 21.8 43.4zM8 60v-7h8v7zm8.382-9H7.618l-3.447-6.895L11 35v6.278a2 2 0 1 0 2 0V35l6.83 9.105z"/></svg>