<svg xmlns="http://www.w3.org/2000/svg" viewBox="0 0 64 64" width="128" height="128"><circle cx="7" cy="7" fill="#fcd821" r="4"/><circle cx="57" cy="7" fill="#fcd821" r="4"/><circle cx="32" cy="28" fill="#ec322c" r="9"/><path d="M28.133 37h7.734A10.133 10.133 0 0 1 46 47.133V61H18V47.133A10.133 10.133 0 0 1 28.133 37z" fill="#ec322c"/><path d="M37.746 36.171a10 10 0 1 0-11.492 0A11.142 11.142 0 0 0 17 47.133V61a1 1 0 0 0 1 1h28a1 1 0 0 0 1-1V47.133a11.142 11.142 0 0 0-9.254-10.962zM24 28a8 8 0 1 1 8 8 8.01 8.01 0 0 1-8-8zm21 32H19V47.133A9.143 9.143 0 0 1 28.133 38h7.734A9.143 9.143 0 0 1 45 47.133z"/><path d="M31 8h2v4h-2zm9.879 5.293l2.828-2.829 1.414 1.415-2.828 2.828zM53 60h4v2h-4zm0-10h4v2h-4zm0-10h4v2h-4zm-1.214-9.316l3.795-1.265.633 1.897-3.795 1.265zm-3.102-10.367l3.794-1.266.633 1.898-3.795 1.265zm-29.805-8.439l1.414-1.414 2.828 2.829-1.414 1.414zM7 60h4v2H7zm0-10h4v2H7zm0-10h4v2H7zm.786-8.684l.633-1.897 3.795 1.265-.633 1.897zm3.103-10.367l.632-1.898 3.795 1.265-.632 1.898z" fill="#fcd821"/><path d="M57 12a1 1 0 0 1-1-1 3.003 3.003 0 0 0-3-3 1 1 0 0 1 0-2 3.003 3.003 0 0 0 3-3 1 1 0 0 1 2 0 3.003 3.003 0 0 0 3 3 1 1 0 0 1 0 2 3.003 3.003 0 0 0-3 3 1 1 0 0 1-1 1zm-1.003-5A5.044 5.044 0 0 1 57 8.003 5.044 5.044 0 0 1 58.003 7 5.044 5.044 0 0 1 57 5.997 5.044 5.044 0 0 1 55.997 7zM7 12a1 1 0 0 1-1-1 3.003 3.003 0 0 0-3-3 1 1 0 0 1 0-2 3.003 3.003 0 0 0 3-3 1 1 0 0 1 2 0 3.003 3.003 0 0 0 3 3 1 1 0 0 1 0 2 3.003 3.003 0 0 0-3 3 1 1 0 0 1-1 1zM5.997 7A5.044 5.044 0 0 1 7 8.003 5.044 5.044 0 0 1 8.003 7 5.044 5.044 0 0 1 7 5.997 5.044 5.044 0 0 1 5.997 7z"/></svg>