<svg id="Layer_1" xmlns="http://www.w3.org/2000/svg" viewBox="0 0 98 100"><style>.st0,.st1{fill-rule:evenodd;clip-rule:evenodd;fill:#ff1640}.st1{fill:#ff7e5a;fill-opacity:.32}.st2{fill:#02cbb1}.st2,.st3,.st4{fill-rule:evenodd;clip-rule:evenodd}.st3{fill-opacity:.48;fill:#1d2026}.st4{fill:url(#SVGID_1_)}.st5{fill:url(#SVGID_2_)}</style><path class="st0" d="M49 61.5L1.1 74.1l4-37 28-7.4c.1 3.1.3 8.4.5 15.9L49 61.3v.2z"/><path class="st1" d="M23.7 84.3L18 87.8l14.5 8.8 5.7-3.5-14.5-8.8z"/><path class="st2" d="M89.3 72.5l-1.7-15.7L52.8 81l1.7 15.7 34.8-24.2z"/><path class="st3" d="M29 31h40v40H29V31z"/><linearGradient id="SVGID_1_" gradientUnits="userSpaceOnUse" x1="-204.074" y1="302.957" x2="-204.324" y2="301.962" gradientTransform="matrix(30.614 -22.2424 -42.307 -58.2306 19088.563 13125.848)"><stop offset="0" stop-color="#3b404c"/><stop offset="1" stop-color="#333843"/></linearGradient><path class="st4" d="M72.7 72l-41.1 7.8-1.7-65.7L72.7 72z"/><linearGradient id="SVGID_2_" gradientUnits="userSpaceOnUse" x1="-207.068" y1="303.01" x2="-206.468" y2="302.326" gradientTransform="matrix(-30.072 21.8486 -42.307 -58.2306 6647.44 22164.852)"><stop offset="0" stop-color="#2c3039"/><stop offset="1" stop-color="#8a94a7"/></linearGradient><path class="st5" d="M72.7 72l19-36-61.8-21.9L72.7 72z"/><path class="st1" d="M58.6 10.2l-1 5.1L72 10.1 73 5l-14.4 5.2z"/></svg>