<svg id="Layer_1" xmlns="http://www.w3.org/2000/svg" viewBox="0 0 98 100"><style>.st0,.st1{fill-rule:evenodd;clip-rule:evenodd}.st0{fill-opacity:.48;fill:#1d2026}.st1{fill:#02cbb1}.st2{fill:#ff1640}.st2,.st3,.st4,.st5{fill-rule:evenodd;clip-rule:evenodd}.st3{fill-opacity:.32;fill:#ff7e5a}.st4{fill:#474c59}.st5{fill:#8c0019}.st6{fill:#2c3039}.st7{fill:url(#SVGID_1_)}</style><path class="st0" d="M29 31h40v40H29V31z"/><path class="st1" d="M86.8 88.9l3.5-15.3-39.4 10.5-3.5 15.3 39.4-10.5z"/><path class="st2" d="M90.7 53.8l7.1-28.5-77 20.3-7.1 28.5 77-20.3z"/><path class="st3" d="M77.3 14.6l6.4-1.7L72.5.3 66 2l11.3 12.6z"/><path class="st4" d="M46.6 33.7L28.4 61.9 72 81.6l18.2-28.2-43.6-19.7z"/><path class="st5" d="M29.7 92.3l3.8-3.6-14.7-4-3.8 3.6 14.7 4z"/><path class="st6" d="M17.7 36.4l10.7 25.5 18.3-28L35 8.1 17.7 36.4z"/><linearGradient id="SVGID_1_" gradientUnits="userSpaceOnUse" x1="-202.041" y1="303.875" x2="-201.209" y2="303.382" gradientTransform="matrix(60.2114 37.6243 11.6582 -18.6571 8656.855 13276.055)"><stop offset="0" stop-color="#2c3039"/><stop offset="1" stop-color="#8a94a7"/></linearGradient><path class="st7" d="M78.6 27.9L35 8.1l11.7 25.8 43.6 19.7-11.7-25.7z"/></svg>