<svg id="Layer_1" xmlns="http://www.w3.org/2000/svg" viewBox="0 0 108 100"><style>.st0,.st1,.st2,.st3,.st4{fill-rule:evenodd;clip-rule:evenodd}.st0{fill-opacity:.32;fill:#ff7e5a}.st1{fill:#ff1640}.st2{fill:#8c0019}.st3{fill:#02cbb1}.st4{fill:#1d2026;fill-opacity:.48}.st5{fill:url(#SVGID_1_)}.st6{fill:#2c3039}.st7{fill-rule:evenodd;clip-rule:evenodd;fill:url(#SVGID_2_)}</style><path class="st0" d="M31.3 85l1.3-5.1L18 84.3l-1.3 5.1L31.3 85z"/><path class="st1" d="M41.2 74.4L.2 46.5l30.5-21.3 23.9 16.3L43 52.3l-1.8 22.1c.1-.1 0 0 0 0z"/><path class="st2" d="M103.3 14.4l4.6-4.9-16.3-4.7L87 9.7l16.3 4.7z"/><path class="st3" d="M56.9 77.2l-2.1 15.6 39.6-15.1 2.1-15.6-39.6 15.1z"/><path class="st4" d="M32 36h40v40H32V36z"/><linearGradient id="SVGID_1_" gradientUnits="userSpaceOnUse" x1="-196.556" y1="304.768" x2="-195.956" y2="304.084" gradientTransform="matrix(55.0079 33.0521 17.0855 -28.435 5661.305 15166.482)"><stop offset="0" stop-color="#2c3039"/><stop offset="1" stop-color="#8a94a7"/></linearGradient><path class="st5" d="M97.4 45.9c.1-.6-.1-1.3-.4-1.8L79.5 15.9c-.5-.8-1.3-1.3-2.3-1.4l-33-2.2c-.6 0-1.3.1-1.8.5l19.1 30.6 35.9 2.5z"/><path class="st6" d="M43.3 11.9c-.4.3-.7.6-1 1L23.8 43.7c-.6 1-.6 2.2 0 3.1l16.4 27.3c.2.4.5.7.9.9l20.1-33.4-17.9-29.7z"/><linearGradient id="SVGID_2_" gradientUnits="userSpaceOnUse" x1="-192.018" y1="305.661" x2="-192.268" y2="304.665" gradientTransform="matrix(28.4623 17.1018 28.4652 -47.3741 -3149.37 17803.986)"><stop offset="0" stop-color="#3b404c"/><stop offset="1" stop-color="#333843"/></linearGradient><path class="st7" d="M61.1 41.7L41.1 75c.4.2.8.4 1.3.4L76 78.2c1.1.1 2.2-.5 2.8-1.5l18.5-30.8c.2-.4.4-.9.4-1.3l-36.6-2.9z"/></svg>