<svg id="Layer_1" xmlns="http://www.w3.org/2000/svg" viewBox="0 0 112 100"><style>.st0{fill-rule:evenodd;clip-rule:evenodd;fill:#ff1640}.st1{fill:#02cbb1}.st1,.st2,.st3,.st4,.st5,.st6{fill-rule:evenodd;clip-rule:evenodd}.st2{fill-opacity:.48;fill:#1d2026}.st3{fill:url(#SVGID_1_)}.st4{fill:url(#c_1_)}.st5{fill:#8c0019}.st6{fill:#ff7e5a;fill-opacity:.32}</style><path class="st0" d="M35.5 6.9L12 35.8 61 52l23.5-28.9-49-16.2z"/><path class="st1" d="M20 65.5L35.8 74l.2-47.5L20.2 18 20 65.5z"/><g transform="translate(28 31)"><path class="st2" d="M1 0h40v40H1V0z"/><linearGradient id="SVGID_1_" gradientUnits="userSpaceOnUse" x1="-222.854" y1="272.031" x2="-223.847" y2="271.553" gradientTransform="matrix(62.7745 0 0 -54.1481 14050.821 14740.473)"><stop offset="0" stop-color="#2c3039"/><stop offset=".481" stop-color="#8a94a7"/><stop offset="1" stop-color="#2c3039"/></linearGradient><path class="st3" d="M11.3 54.8L1.6 36C.1 33.2-.3 29.8.4 26.1 2.6 14 16.6 2.7 31.5.9 41.8-.4 49.8 3.1 53.1 9.4l9.7 18.8c-3.2-6.3-11.3-9.8-21.6-8.5C26.3 21.5 12.3 32.8 10 44.8c-.7 3.8-.2 7.1 1.3 10"/><linearGradient id="c_1_" gradientUnits="userSpaceOnUse" x1="-222.739" y1="271.322" x2="-222.99" y2="270.326" gradientTransform="matrix(54.6166 0 0 -44.1387 12208.667 11996.664)"><stop offset="0" stop-color="#3b404c"/><stop offset="1" stop-color="#333843"/></linearGradient><path id="c" class="st4" d="M32.8 63.3C17.9 65.1 7.7 56.9 10 44.8c2.3-12 16.3-23.3 31.2-25.2C56.1 17.8 66.3 26 64 38.1c-2.3 12-16.3 23.3-31.2 25.2z"/></g><path class="st5" d="M23 85.7l.8-6.6-16 5.7-.8 6.6 16-5.7z"/><path class="st6" d="M106.7 46.7l4.4-2.8-13.7-6.7L93 40l13.7 6.7z"/></svg>