<svg id="Layer_1" xmlns="http://www.w3.org/2000/svg" viewBox="0 0 103 100"><style>.st0{fill:#ff1640}.st0,.st1,.st2{fill-rule:evenodd;clip-rule:evenodd}.st1{fill:#02cbb1}.st2{fill:#8c0019}.st3{fill:#ff7e5a;fill-opacity:.32}.st3,.st4,.st5{fill-rule:evenodd;clip-rule:evenodd}.st4{fill-opacity:.48;fill:#1d2026}.st5{fill:url(#SVGID_1_)}.st6{fill:url(#SVGID_2_)}</style><path class="st0" d="M48 64.5L.1 77.1l4-37 28-7.4c.1 3.1.3 8.4.5 15.9L48 64.3v.2z"/><path class="st1" d="M91.8 72l2.5-13.4-35.3 12L56.5 84l35.3-12z"/><path class="st2" d="M40.8 98.4l6.4-1.9-11.8-12.3-6.4 1.9 11.8 12.3z"/><path class="st3" d="M23.8 14.4l6.4-1.9L18.4.2 12 2.1l11.8 12.3z"/><path class="st4" d="M34 31h40v40H34V31z"/><linearGradient id="SVGID_1_" gradientUnits="userSpaceOnUse" x1="-197.677" y1="305.104" x2="-197.928" y2="304.108" gradientTransform="matrix(43.6594 22.2456 22.2469 -43.6619 1929.457 17753.133)"><stop offset="0" stop-color="#3b404c"/><stop offset="1" stop-color="#333843"/></linearGradient><path class="st5" d="M78.6 27c.3.1.6.4.6.8l2.6 46.4c0 .2 0 .4-.1.6-.3.6-1 .9-1.5.7L35.4 60c-.2-.1-.3-.2-.4-.3-.3-.4-.2-1.1.3-1.5l42.2-31c.1-.1.3-.2.4-.2.3-.1.5-.1.7 0"/><linearGradient id="SVGID_2_" gradientUnits="userSpaceOnUse" x1="-198.58" y1="305.545" x2="-197.98" y2="304.861" gradientTransform="matrix(46.1466 23.5128 29.2155 -57.3386 280.963 22184.565)"><stop offset="0" stop-color="#2c3039"/><stop offset="1" stop-color="#8a94a7"/></linearGradient><path class="st6" d="M62.3 1.4c-.1-.1-.1-.1-.1-.2-.2-.1-.3-.1-.4-.2h-.6c-.2 0-.3.1-.4.2L18.6 32.8l-.1.1-.1.1-.1.1c0 .1-.1.1-.1.2 0 0 0 .1-.1.1v.4c0 .1.1.2.1.3l17.2 25.5c-.1-.1-.1-.2-.1-.4v-.4c0-.1 0-.1.1-.1 0-.1.1-.2.1-.2l.1-.1c.1-.1.1-.2.2-.2L78 26.6c.1-.1.3-.2.4-.2h.3c.2 0 .5.1.6.2l.2.2L62.3 1.4z"/></svg>