<svg id="Layer_1" xmlns="http://www.w3.org/2000/svg" viewBox="0 0 115 100" enable-background="new 0 0 115 100"><style>.st0{fill:#ff1640}.st0,.st1,.st2,.st3{fill-rule:evenodd;clip-rule:evenodd}.st1{fill:#8c0019}.st2{fill:#ff7e5a;fill-opacity:.32}.st3{fill:#1d2026;fill-opacity:.48}.st4{filter:url(#Adobe_OpacityMaskFilter)}.st5,.st6{fill-rule:evenodd;clip-rule:evenodd;fill:#fff}.st6{mask:url(#d_1_);fill:url(#SVGID_1_)}.st7{filter:url(#Adobe_OpacityMaskFilter_1_)}.st8,.st9{fill-rule:evenodd;clip-rule:evenodd}.st8{mask:url(#g_1_);fill:url(#SVGID_2_)}.st9{fill:#02cbb1}</style><path class="st0" d="M23.3 63.1L.1 45l73.3-31.4 23.2 18.1-73.3 31.4z"/><path class="st1" d="M35.9 83.7l1.2-6.6L20.8 82l-1.2 6.6 16.3-4.9z"/><path class="st2" d="M42 92.5l-3 3.4 11.6 2.7 3-3.4L42 92.5z"/><path class="st3" d="M41 29l38.5 11-11 38.5L30 67.4 41 29z"/><g transform="rotate(16 -28.89 116.929)"><defs><filter id="Adobe_OpacityMaskFilter" filterUnits="userSpaceOnUse" x="16.2" y="-14.6" width="43.5" height="78.3"><feColorMatrix values="1 0 0 0 0 0 1 0 0 0 0 0 1 0 0 0 0 0 1 0"/></filter></defs><mask maskUnits="userSpaceOnUse" x="16.2" y="-14.6" width="43.5" height="78.3" id="d_1_"><g class="st4"><path id="b_1_" class="st5" d="M4.7-4.6h63.5v59.7L4.7 55V-4.6z"/></g></mask><linearGradient id="SVGID_1_" gradientUnits="userSpaceOnUse" x1="-135.347" y1="342.667" x2="-135.652" y2="342.049" gradientTransform="matrix(61.0719 -16.4484 -17.512 -57.3625 14309.263 17432.852)"><stop offset="0" stop-color="#2c3039"/><stop offset=".481" stop-color="#8a94a7"/><stop offset="1" stop-color="#2c3039"/></linearGradient><path class="st6" d="M37.3 34.9c.1-.5.1-1 .2-1.5.1-.3.1-.6.2-.9.1-.4.2-.9.3-1.3l.3-.9c.1-.4.2-.8.4-1.2 0-.1.1-.3.2-.4l.6-1.5c.1-.2.2-.4.3-.7.6-1.2 1.3-2.3 2-3.4.1-.1.2-.2.2-.3.4-.6.9-1.2 1.4-1.8.2-.2.3-.4.5-.6.5-.5.9-1 1.4-1.5l.5-.5c.1-.1.3-.2.4-.3.4-.3.8-.6 1.1-.9.1-.1.3-.2.4-.3.4-.3.7-.5 1.1-.7.2-.1.4-.3.6-.4.4-.3.9-.5 1.3-.7.2-.1.3-.2.5-.2.6-.3 1.1-.5 1.7-.7.2-.1.3-.1.5-.2.5-.2.9-.3 1.4-.4.2 0 .4-.1.5-.1.6-.2 1.2-.3 1.9-.4.6-.1 1.1-.1 1.7-.2h1.6c.6 0 1.1.1 1.7.1.2 0 .3 0 .5.1.4.1.9.2 1.3.3h.2c.5.1 1 .3 1.5.5.1 0 .3.1.4.2.3.1.7.3 1 .4.3.1.6.3.9.4L35.8-2.6l-.6-.3c-.1-.1-.2-.1-.3-.1-.3-.2-.7-.3-1-.4-.1-.1-.3-.1-.4-.2-.5-.2-1-.4-1.5-.5h-.2c-.4-.1-.9-.2-1.3-.3-.2 0-.3 0-.5-.1-.5-.1-1.1-.1-1.7-.1h-1.6c-.6 0-1.1.1-1.7.2-.6.1-1.2.2-1.9.4-.2 0-.4.1-.5.1-.5.1-.9.3-1.4.4-.2.1-.3.1-.5.2-.6.2-1.1.4-1.7.7h-.1c-.2.1-.3.2-.5.2-.4.2-.9.5-1.3.7-.2.1-.4.3-.6.4-.2.2-.5.3-.7.5-.1.1-.2.1-.3.2-.1.1-.3.2-.4.3-.4.3-.8.6-1.1.9-.1.1-.3.2-.4.3l-.2.2-.3.3c-.5.5-1 1-1.4 1.5l-.3.3c-.1.1-.1.2-.2.3-.5.6-1 1.2-1.4 1.8-.3.1-.3.2-.4.2v.1c-.6.8-1 1.6-1.5 2.4 0 .1-.1.2-.2.3-.1.2-.2.5-.3.7-.1.2-.2.4-.4.7l-.6 1.5c-.1.1-.1.3-.2.4v.1c-.1.3-.2.7-.3 1.1l-.3.9c-.1.4-.2.9-.3 1.3-.1.3-.1.6-.2.9-.1.5-.1 1-.2 1.5 0 .2-.1.5-.1.7-.1.7-.1 1.5-.1 2.2 0 7.8 3.7 14.1 9.4 17.2L46.5 55c-5.7-3.1-9.4-9.4-9.4-17.2 0-.8 0-1.5.1-2.2 0-.2.1-.5.1-.7"/></g><g transform="rotate(16 -109.581 222.973)"><defs><filter id="Adobe_OpacityMaskFilter_1_" filterUnits="userSpaceOnUse" x="10.5" y="-9.3" width="29" height="52.4"><feColorMatrix values="1 0 0 0 0 0 1 0 0 0 0 0 1 0 0 0 0 0 1 0"/></filter></defs><mask maskUnits="userSpaceOnUse" x="10.5" y="-9.3" width="29" height="52.4" id="g_1_"><g class="st7"><path id="e_1_" class="st5" d="M4.7-5.2h40.5v44.1H4.7V-5.2z"/></g></mask><linearGradient id="SVGID_2_" gradientUnits="userSpaceOnUse" x1="-165.719" y1="323.217" x2="-165.969" y2="322.221" gradientTransform="matrix(38.9427 -12.1558 -11.1666 -42.3924 10092.498 11683.817)"><stop offset="0" stop-color="#3b404c"/><stop offset="1" stop-color="#333843"/></linearGradient><path class="st8" d="M25-5c11.2-1.5 20.3 7 20.2 19 0 12.1-9.1 23.1-20.3 24.7-11.2 1.6-20.2-6.9-20.2-19C4.7 7.7 13.8-3.4 25-5"/></g><path class="st9" d="M114.3 47.6L104.1 39l-7.8 33 10.2 8.6 7.8-33z"/></svg>