<svg id="Layer_1" xmlns="http://www.w3.org/2000/svg" viewBox="0 0 302 348"><style>.st0{display:none}.st1{fill-rule:evenodd;clip-rule:evenodd}.st1,.st2,.st3{display:inline;fill:#fff}.st2{fill-rule:evenodd;clip-rule:evenodd;fill-opacity:.64}.st3{fill-opacity:.48}.st3,.st4,.st5{fill-rule:evenodd;clip-rule:evenodd}.st4{display:inline;fill:#fff;fill-opacity:.32}.st5{fill-opacity:.24}.st5,.st6,.st7{display:inline;fill:#fff}.st6{fill-rule:evenodd;clip-rule:evenodd;fill-opacity:.16}.st7{fill-opacity:8e-2}.st7,.st8,.st9{fill-rule:evenodd;clip-rule:evenodd}.st8{display:inline;fill-opacity:4e-2;fill:#fff}.st9{fill:url(#SVGID_1_)}</style><g class="st0"><path class="st1" d="M76.9 45.4c.3-1.1-.1-1.1-.4-.1-.1.2-.2.4-.2.6.2-.4.3-.9.5-1.4.2 0 .4-.1.6-.6.1-.2.2-.5.2-.9s.1-.8 0-1.3c-.2-2-1.2-3.9-2.7-5.2-1.5-1.3-3.4-2-5.4-2-2 0-3.9.8-5.4 2.2-1.5 1.4-2.4 3.3-2.6 5.3-.2 2 .3 4 1.5 5.7 1.1 1.6 2.8 2.7 4.8 3.1 1.9.4 3.9 0 5.6-1 1.7-.9 2.9-2.5 3.5-4.4"/><path class="st2" d="M48.5 61c-.3 1 .2 1 .4.1.1-.2.1-.4.2-.5-.2.4-.3.8-.4 1.2-.2 0-.4.1-.6.5-.1.2-.2.5-.2.8 0 .3-.1.7 0 1.2.2 1.8 1.1 3.5 2.5 4.8 1.4 1.2 3.3 1.9 5.1 1.9 3.9 0 7.1-3 7.4-6.8.2-1.8-.4-3.7-1.5-5.2s-2.7-2.5-4.5-2.9c-1.8-.4-3.6-.1-5.2.8-1.5 1-2.6 2.4-3.2 4.1"/><path class="st3" d="M34.5 73.1c1.4-.8 2.5-2.2 3.1-3.8.2-.9-.2-1-.4-.2-.1.2-.1.3-.2.5.2-.4.3-.7.4-1.1.2 0 .4-.1.6-.5.1-.2.2-.4.2-.7 0-.3.1-.7 0-1.1-.2-1.7-1.1-3.3-2.4-4.5-1.3-1.1-3-1.8-4.8-1.8-1.7 0-3.4.7-4.7 1.9-1.3 1.2-2.1 2.8-2.3 4.6-.2 1.7.3 3.5 1.4 4.8 1 1.4 2.5 2.3 4.2 2.7 1.7.3 3.4 0 4.9-.8"/><path class="st4" d="M15.6 54c.2-.8-.2-.8-.4-.1-.1.1-.2.2-.2.3l.3-.9c.2 0 .4-.1.6-.4.1-.2.2-.4.2-.6 0-.3.1-.6 0-.9-.2-1.5-.9-2.8-2-3.8C13 46.5 11.5 46 10 46c-1.5 0-3 .6-4 1.6-1.1 1-1.8 2.4-1.9 3.9-.2 1.5.3 3 1.2 4.1.9 1.2 2.2 2 3.6 2.3 1.4.3 2.9 0 4.2-.7 1.1-.7 2-1.9 2.5-3.2"/><path class="st5" d="M11.1 29.3c.2-.6-.3-.7-.4-.1 0 .1-.1.2-.1.3.1-.2.2-.5.3-.8.2 0 .4 0 .6-.3.2-.3.3-.7.2-1.3-.2-1.2-.9-2.4-1.9-3.3-1-.8-2.4-1.3-3.8-1.3s-2.7.4-3.7 1.3c-1 .8-1.6 2-1.7 3.2-.1 1.2.3 2.5 1.1 3.5s2 1.7 3.3 2c1.3.3 2.7.1 3.8-.5 1.1-.7 1.9-1.6 2.3-2.7"/><path class="st6" d="M23.6 9c.2-.6-.3-.6-.4-.1 0 .1-.1.2-.1.3.1-.2.2-.4.2-.7.2 0 .4 0 .6-.3.1-.2.3-.6.2-1.2-.1-1.1-.7-2.1-1.5-2.9-.9-.7-2-1.1-3.1-1.1-2.3 0-4.3 1.8-4.5 4.1-.1 1.1.2 2.2.9 3.1.7.9 1.6 1.5 2.7 1.7 1.1.2 2.2 0 3.1-.5.9-.6 1.6-1.4 1.9-2.4"/><path class="st7" d="M48.7 4.7c.1-.4-.3-.5-.4-.1v.1c0-.1.1-.2.1-.4.2 0 .4 0 .5-.2.2-.2.3-.5.2-.9-.1-.9-.5-1.7-1.2-2.3-.7-.6-1.5-.9-2.4-.9-1.8 0-3.3 1.4-3.5 3.2-.1.9.2 1.7.7 2.4.5.7 1.3 1.1 2.1 1.3.8.2 1.7 0 2.4-.4s1.2-1.1 1.5-1.8"/><path class="st8" d="M63.3 17c-.1.4.3.4.4.1 0 0 0-.1.1-.1-.1.1-.1.2-.1.4-.2 0-.4 0-.5.1-.2.1-.3.4-.2.8.1.8.5 1.4 1 1.9.6.5 1.3.8 2.1.8 1.6 0 2.8-1.2 3-2.8.1-.7-.2-1.5-.6-2.1-.4-.6-1.1-1-1.8-1.1-.7-.1-1.4 0-2 .4-.7.4-1.2.9-1.4 1.6"/></g><linearGradient id="SVGID_1_" gradientUnits="userSpaceOnUse" x1="-103.622" y1="429.662" x2="-102.622" y2="428.779" gradientTransform="matrix(223.7162 0 0 -65.4288 23240.482 28400.824)"><stop offset="0" stop-color="#fff"/><stop offset="1" stop-color="#fff" stop-opacity="0"/></linearGradient><path class="st9" d="M294.2 320.9c-4.7-3.1-10-4.9-15.4-5.5-2.7-.3-5.5-.3-8.2 0l-2 .3-2 .4c-.7.1-1.3.3-1.9.5-.6.2-1.3.3-1.9.5-10.2 3-19 8.4-27.8 12.8-17.4 8.9-37.1 13.1-56.6 12.6-19.6-.6-39-6-55.8-16.1l-1.6-.9-1.5-1-3.1-2-3-2.1-1.5-1.1-1.4-1.1-2.9-2.3-2.8-2.4c-1.9-1.6-3.6-3.3-5.4-5-3.4-3.5-6.8-7.1-9.8-11-1.6-1.9-2.9-3.9-4.4-5.9-.7-1-1.3-2.1-2-3.1s-1.3-2-1.9-3.1c-2.8-4.8-4.4-4-1.6.9.6 1.1 1.3 2.2 1.9 3.2.7 1.1 1.3 2.1 2 3.2 1.4 2 2.8 4.2 4.3 6.1 2.9 4.1 6.3 7.8 9.7 11.5 1.8 1.8 3.5 3.6 5.4 5.3l2.8 2.5 2.9 2.4 1.5 1.2 1.5 1.1 3 2.3 3.1 2.1 1.6 1.1 1.6 1c17 10.9 37 17 57.4 18.1 20.3 1 41.1-3 59.5-12.1 9.1-4.4 17.7-9.5 26.8-12.1 4.6-1.3 9.1-1.9 13.6-1.3 4.5.5 8.9 2 12.6 4.4 3.5 2.4 5.5 4.7 6.9 6.4.8.8 1.3 1.5 1.8 1.9.5.4 1 .6 1.4.5.4-.1.7-.5.8-1.2.1-.7.2-1.8-.1-3.1-.1-.4-.2-.7-.3-1.1-.1-.4-.3-.7-.5-1.1l-.6-1.2c-.2-.4-.5-.8-.8-1.3-1.3-1.9-3.1-3.6-5.3-5.2"/></svg>