<svg id="Layer_1" xmlns="http://www.w3.org/2000/svg" viewBox="0 0 807 708"><style>.st0{fill-rule:evenodd;clip-rule:evenodd;fill:url(#SVGID_1_);fill-opacity:.32}.st1{fill:#1d2026;fill-opacity:.48}.st1,.st2,.st3,.st4{fill-rule:evenodd;clip-rule:evenodd}.st2{fill-opacity:.64;fill:#fff}.st3{fill:url(#SVGID_2_)}.st4{fill:url(#SVGID_3_)}</style><linearGradient id="SVGID_1_" gradientUnits="userSpaceOnUse" x1="148.418" y1="609.173" x2="147.599" y2="610.225" gradientTransform="matrix(476.4684 286.2911 116.9889 -194.7023 -141622.578 76495.328)"><stop offset="0" stop-color="#e90000" stop-opacity="0"/><stop offset=".516" stop-color="#ff362a"/><stop offset="1" stop-color="#bf1a00"/></linearGradient><path class="st0" d="M458.6 447.6c-6.4-10.4-14.3-19.7-22.9-28.2-8.6-8.5-18-16.1-27.8-23.1-19.4-14.1-40.1-26.1-59.4-39.7l-7.3-5.1-7.1-5.3-3.6-2.7c-1.2-.9-2.3-1.8-3.5-2.7l-7-5.5c-9.1-7.5-18.2-15.2-26.8-23.4-4.4-4-8.6-8.2-12.8-12.3-2.1-2-4.2-4.2-6.2-6.3-2-2.1-4.2-4.2-6.2-6.4-4-4.4-8.1-8.7-12-13.2-1.9-2.2-3.9-4.4-5.9-6.7l-5.7-6.8c-1.9-2.3-3.8-4.6-5.6-6.9l-5.5-7-5.4-7.1-2.7-3.5-2.6-3.6-5.2-7.2-5.1-7.3c-3.4-4.8-6.6-9.8-9.9-14.8-12.9-19.9-24.8-40.5-35.7-61.6-10.8-21.1-20.7-42.7-29.5-64.7-2.2-5.5-4.4-11-6.4-16.6l-3.1-8.3-3-8.4c-1-2.8-2-5.6-2.9-8.4l-2.8-8.4-2.7-8.5c-.9-2.8-1.8-5.6-2.6-8.5-3.8-12.8-5.5-12.4-1.7.6.8 2.9 1.7 5.7 2.6 8.5l2.6 8.5 2.8 8.5c.9 2.8 1.8 5.6 2.8 8.5l2.9 8.4 3 8.4c2 5.6 4.2 11.1 6.3 16.7 8.6 22.2 18.3 44 28.9 65.3 10.7 21.3 22.4 42.1 35.2 62.3 3.3 5 6.4 10.1 9.8 15l5 7.4 5.2 7.3 2.6 3.6 2.7 3.6 5.4 7.2 5.5 7.1c1.8 2.4 3.7 4.7 5.6 7l5.7 6.9c1.9 2.3 3.9 4.5 5.8 6.8 3.9 4.6 7.9 8.9 11.9 13.4 2 2.2 4.1 4.3 6.2 6.5 2.1 2.1 4.1 4.4 6.2 6.5 4.2 4.2 8.4 8.5 12.8 12.6 8.6 8.3 17.7 16.1 26.9 23.8l7 5.6 3.5 2.8 3.6 2.7 7.2 5.4 7.3 5.2c19.5 13.9 40.1 26 59.2 39.9 9.6 6.9 18.7 14.4 27 22.5 8.3 8.2 15.9 17.2 22 27 .8 1.2 1.5 2.3 2.1 3.5.6 1.1 1.3 2.2 1.9 3.3 1.1 2.2 2.3 4.1 3.2 6 .5.9.9 1.8 1.4 2.7.4.9.8 1.7 1.2 2.5l1.1 2.3.9 2.1c.6 1.3 1.2 2.4 1.6 3.4l1.2 2.4c.7 1.3 1.3 1.9 1.7 1.8.4-.1.6-.9.6-2.4 0-.9-.1-1.9-.2-2.8-.1-1.1-.4-2.4-.7-3.8-.2-.7-.3-1.5-.5-2.3-.2-.8-.5-1.6-.8-2.5-.3-.9-.6-1.8-.9-2.8-.4-.9-.8-1.9-1.2-3-.8-2.1-1.9-4.2-3-6.5-.6-1.1-1.3-2.3-1.9-3.5-.8-1.2-1.5-2.5-2.3-3.7"/><path class="st1" d="M326 406.7c9.6 7.5 20.2 13.6 31.1 18.6 11 5 22.4 8.9 34 12.2 23.1 6.6 46.6 10.8 69.4 17l8.6 2.3 8.5 2.6 4.2 1.3c1.4.4 2.8.9 4.2 1.4l8.4 2.8c11.2 4 22.3 8.1 33.1 12.8 5.5 2.3 10.9 4.8 16.3 7.2 2.7 1.2 5.3 2.6 8 3.8 2.7 1.3 5.4 2.5 8 3.9 5.3 2.7 10.6 5.4 15.7 8.3 2.6 1.4 5.2 2.8 7.8 4.3l7.7 4.5c2.6 1.5 5.1 3 7.6 4.6l7.6 4.6 7.5 4.8 3.7 2.4 3.7 2.5 7.4 5 7.3 5.1c4.9 3.4 9.6 7 14.4 10.5 19 14.3 37.1 29.6 54.6 45.7 17.4 16.2 34 33.1 49.8 50.8 3.9 4.4 7.9 8.8 11.7 13.4l5.8 6.8 5.7 6.8c1.9 2.3 3.8 4.6 5.6 6.9l5.5 6.9 5.4 7c1.8 2.3 3.6 4.7 5.4 7.1 8.1 10.8 9.5 9.8 1.5-1.1-1.7-2.4-3.5-4.8-5.3-7.1l-5.4-7.1-5.5-7c-1.8-2.3-3.7-4.7-5.5-7l-5.6-6.9-5.7-6.8c-3.8-4.6-7.7-9-11.6-13.5-15.7-17.9-32.2-35.1-49.5-51.5-17.3-16.3-35.4-31.9-54.3-46.5-4.8-3.6-9.5-7.2-14.4-10.7l-7.3-5.2-7.4-5.1-3.7-2.5-3.7-2.5-7.5-4.9-7.6-4.8c-2.5-1.6-5.1-3.2-7.7-4.7l-7.7-4.6c-2.6-1.5-5.2-2.9-7.8-4.4-5.2-3-10.5-5.7-15.8-8.5-2.6-1.4-5.3-2.7-8-4-2.7-1.3-5.3-2.7-8.1-3.9-5.4-2.5-10.8-5.1-16.3-7.4-10.9-4.8-22.1-9.1-33.4-13.2l-8.5-2.9-4.3-1.4-4.3-1.3-8.6-2.6-8.7-2.4c-23.1-6.4-46.6-10.7-69.3-17.2-11.3-3.2-22.5-7.1-33.1-11.9-10.6-4.9-20.8-10.7-29.9-17.9-1.1-.9-2.2-1.7-3.2-2.5s-1.9-1.6-2.9-2.4c-1.8-1.6-3.6-3.1-5.1-4.6-.8-.7-1.5-1.4-2.2-2.1-.7-.7-1.3-1.3-2-1.9l-1.8-1.7-1.6-1.6-2.6-2.6c-.6-.6-1.3-1.3-2-1.9-1.1-.9-1.9-1.3-2.2-1.1-.3.2-.2 1 .3 2.4.3.7.6 1.5 1.1 2.5.5 1 1.2 2.1 2 3.3.4.6.8 1.3 1.3 2l1.6 2.1c.6.7 1.2 1.5 1.8 2.3l2.1 2.4c1.4 1.7 3.2 3.3 5.1 5.1.9.9 2 1.7 3 2.7 1.3.4 2.4 1.3 3.6 2.2"/><path class="st2" d="M279.2 342.8c21.1.1 42.3.4 63.5-.2 21.2-.6 42.5-2 63.5-5.2 2.6-.4 5.3-.9 7.9-1.3 2.6-.5 5.3-.9 7.9-1.4 5.2-1.1 10.4-2.1 15.6-3.4 10.4-2.4 20.6-5.5 30.8-8.6l7.6-2.6 3.8-1.3 3.7-1.4 7.5-2.8 7.4-3 3.7-1.5 3.7-1.6 7.3-3.1 7.3-3.3 3.6-1.7 3.6-1.7 7.2-3.5 7.1-3.6c4.8-2.4 9.4-5 14.1-7.5 9.3-5.2 18.5-10.4 27.6-16 18.1-11.1 35.7-23.1 52.9-35.5 34.4-24.9 67.2-51.8 99.7-78.7 9.3-7.7 8.7-8.3-.6-.7-32.7 26.8-65.6 53.5-100.1 78.1-17.2 12.3-34.8 24.1-53 35-9 5.5-18.3 10.7-27.6 15.8-4.7 2.5-9.3 5-14.1 7.3l-7.1 3.6-7.2 3.4-3.6 1.7-3.6 1.6-7.2 3.2-7.3 3.1-3.7 1.5-3.7 1.5-7.4 2.9-7.5 2.7-3.7 1.4c-1.2.4-2.5.8-3.8 1.3l-7.5 2.5c-10.1 3.1-20.3 6.1-30.6 8.5-5.1 1.3-10.3 2.3-15.5 3.4-2.6.5-5.2.9-7.8 1.4-2.6.4-5.2.9-7.8 1.3-20.9 3.1-42 4.5-63.2 5-21.1.5-42.3.3-63.5.1-40.8-.1-40.8 3.1.1 3.3"/><linearGradient id="SVGID_2_" gradientUnits="userSpaceOnUse" x1="149.25" y1="609.914" x2="149.25" y2="608.914" gradientTransform="matrix(-209.6253 -106.8094 -106.7412 209.4914 96534.758 -111139.273)"><stop offset="0" stop-color="#fff" stop-opacity=".32"/><stop offset="1" stop-color="#d42f00" stop-opacity="0"/></linearGradient><path class="st3" d="M111.6 512.1c9.1-10.7 20.1-19.6 32.4-26.3 12.3-6.7 25.8-11.1 39.7-13 13.9-1.9 28.1-1.2 41.7 2 13.7 3.2 26.7 9 38.3 16.8 11.6 7.8 21.8 17.8 29.8 29.3s13.9 24.4 17.4 38.1c3.4 13.6 4.4 27.8 2.7 41.7-.1.6-.2 1.3-.2 1.9-.3-.4-.6-.7-.9-1.2-1-1.2-2-2.3-3.1-3.3-1.3-1.3-2.9-2.7-4.8-4.2-1-.8-2-1.6-3-2.3l-3.1-2.2-1.5-1.1-1.6-1-3.2-2c-4.4-2.5-8.8-4.9-13.4-6.9-9.2-4.1-19-6.8-29-8.4-20-3-40.7-1-59.6 6.2-18.9 7.1-35.9 19.3-48.8 34.7-12.9 15.5-21.7 34.2-25.3 53.9-.1.6-.2 1.1-.3 1.7-.4-.4-.7-.8-1.1-1.2-9.5-10.2-17-22.2-22.2-35.1-5.2-13-8.1-26.8-8.4-40.8-.8-28.1 9.2-56.1 27.5-77.3m-30.8 77.1c.3 14.4 3.2 28.6 8.6 42 5.4 13.3 13.1 25.7 22.9 36.2 4.7 5.1 9.4 9 13.5 12.2 4.2 3.1 7.8 5.5 10.8 7.2 1.5.8 2.8 1.6 4 2.1 1 .5 2 .9 3 1.3 1.6.7 2.4.9 2.5.7.1-.2-.6-.8-2-1.7-.7-.5-1.6-1.1-2.7-1.8s-2.3-1.6-3.7-2.5c-2.8-1.9-6.2-4.4-10.2-7.6-3.4-2.8-7.2-6.1-11.1-10.2.1-.6.3-1.4.5-2.3 3.8-19.5 12.8-38 25.7-53 12.9-15 29.7-26.8 48.3-33.5 18.6-6.8 38.8-8.6 58.3-5.5 9.7 1.6 19.2 4.3 28.2 8.3 4.5 1.9 8.8 4.3 13.1 6.7l3.1 2 1.6 1 1.5 1.1 3 2.1c1 .7 1.9 1.5 2.9 2.3 1.9 1.4 3.5 2.8 4.9 3.9l3.5 2.7c.9.7 1.6 1.1 2.2 1.4-1.9 12.6-6 24.9-11.9 36.2-6.4 12.5-15.3 23.6-25.8 32.9-10.5 9.3-22.7 16.6-35.8 21.6-13.1 5-27.1 7.5-41.1 7.4-14 0-28-2.6-41.1-7.7l-4.9-2c-1.4-.5-2.5-1.1-3.4-1.5-1.8-.8-2.8-1.1-2.8-1-.1.1.8.6 2.6 1.6.9.5 2 1.1 3.4 1.7 1.4.6 3 1.3 4.9 2.1 13.2 5.1 27.3 7.8 41.5 7.9 14.2.1 28.3-2.4 41.6-7.4s25.6-12.3 36.3-21.7c10.7-9.4 19.7-20.7 26.2-33.3 6.6-12.6 11-26.3 12.8-40.5 1.7-14.1.8-28.6-2.6-42.4-3.4-13.9-9.4-27-17.5-38.8-8.1-11.8-18.5-22-30.3-30s-25.1-14-39-17.3c-14-3.3-28.4-4.1-42.7-2.2-14.3 1.9-28.1 6.3-40.7 13.1-12.7 6.8-24 15.9-33.4 26.8-18.9 21.9-29.3 50.7-28.7 79.4"/><linearGradient id="SVGID_3_" gradientUnits="userSpaceOnUse" x1="147.547" y1="612.307" x2="148.547" y2="611.424" gradientTransform="matrix(195.6666 -108.4598 -31.7205 -57.2253 -9461.151 51454.934)"><stop offset="0" stop-color="#ff3100"/><stop offset="1" stop-color="#fff" stop-opacity="0"/></linearGradient><path class="st4" d="M207.9 326.7c-5.6-.5-11.1.6-16.1 2.7-2.5 1-4.9 2.4-7.2 3.9l-1.7 1.2-1.5 1.3c-.5.4-1 .9-1.5 1.3s-1 .9-1.4 1.4c-7.5 7.6-12.5 16.6-18.1 24.7-10.9 16.2-26.1 29.4-43.4 38.5-17.4 9-37 13.7-56.7 13h-1.8l-1.8-.1-3.7-.3-3.7-.4-1.8-.2-1.8-.3-3.6-.6-3.6-.7c-2.4-.5-4.8-1.2-7.1-1.8-4.7-1.4-9.4-2.9-13.9-4.9-2.3-.9-4.5-2-6.7-3-1.1-.5-2.2-1.1-3.3-1.7-1.1-.6-2.2-1.1-3.2-1.8-4.8-2.9-5.8-1.4-1 1.6 1 .7 2.1 1.3 3.2 1.9l3.3 1.8c2.2 1.1 4.4 2.3 6.8 3.3 4.5 2.1 9.3 3.8 14 5.3 2.4.7 4.8 1.5 7.3 2l3.7.9 3.7.7 1.9.3 1.9.3 3.7.5 3.8.4 1.9.2 1.9.1c20.2 1.3 40.7-3.1 59-12 18.2-9 34.5-22.5 46.2-39.4 5.8-8.3 10.9-16.9 17.6-23.6 3.4-3.4 7-6.1 11.3-7.8 4.2-1.7 8.8-2.6 13.1-2.2 4.2.4 7.1 1.5 9.1 2.2 1.1.3 1.9.7 2.5.8.7.1 1.2 0 1.5-.2.3-.3.4-.8.1-1.5-.2-.7-.7-1.7-1.6-2.7-.2-.3-.5-.5-.8-.8-.3-.3-.6-.5-1-.8-.4-.3-.7-.5-1.1-.8-.4-.3-.9-.5-1.3-.7-2-1.1-4.4-1.7-7.1-2"/></svg>