<svg id="Capa_1" xmlns="http://www.w3.org/2000/svg" viewBox="0 0 488 488"><style>.st0{fill:#e60000}</style><path class="st0" d="M414.6 211.8c-3.4-9.6-12.5-15.9-22.6-15.9-10.1 0-19.2 6.4-22.5 16H320v-32h32c4.4 0 8-3.6 8-8v-33.5c12.5-4.4 19-18.1 14.6-30.6s-18.1-19-30.6-14.6-19 18.1-14.6 30.6c2.4 6.8 7.8 12.2 14.6 14.6v25.5h-24v-16c0-4.4-3.6-8-8-8h-16V98.4c12.5-4.4 19-18.1 14.6-30.6s-18.1-19-30.6-14.6-19 18.1-14.6 30.6c2.4 6.8 7.8 12.2 14.6 14.6v41.5h-32V12.1c0-4.4-3.6-8-8-8-98.7 0-176 71.5-176 162.7 0 43.3 17.2 100.7 44.9 149.7 5 8.8 11.5 18 18.3 27.8 14.5 20.7 30.7 44 32.4 64.2-6.1 4.3-9.7 11.5-9.6 19 0 5.4 1.9 10.6 5.3 14.9-4.7 4.7-7.4 11.1-7.3 17.7 0 13.2 10.8 24 24 24h136c13.3-.1 24.1-11 24-24.3v-.3c0-6.5-2.7-12.7-7.4-17.2 3.4-4.4 5.3-9.8 5.3-15.3 0-12.7-10.3-22.9-23-22.9h-59V251.9h16v24c0 4.4 3.6 8 8 8h24v9.5c-12.5 4.4-19 18.1-14.6 30.6s18.1 19 30.6 14.6 19-18.1 14.6-30.6c-2.4-6.8-7.8-12.2-14.6-14.6v-17.5c0-4.4-3.6-8-8-8h-24v-16h32c4.4 0 8-3.6 8-8v-16h49.5c4.4 12.5 18.1 19 30.6 14.5s19.1-18.2 14.6-30.6zM352 107.9c4.4 0 8 3.6 8 8s-3.6 8-8 8-8-3.6-8-8c0-4.5 3.6-8 8-8zM140.3 335.2c-6.6-9.5-12.9-18.4-17.5-26.5C96.8 262.7 80 207 80 166.9 80 87 146.1 24 232 20.3v55.9c-2.1.2-4.3.4-6.6.6-3.4.4-6.2 2.9-6.9 6.3l-2.4 11.6c-2 .5-4 1-6 1.6l-8-8.9c-2.3-2.6-5.9-3.4-9.1-2-9 3.9-17.4 8.8-25.2 14.7-2.7 2.1-3.9 5.6-2.8 8.9l3.7 11.2c-1.5 1.4-3 2.9-4.4 4.4l-11.2-3.7c-3.3-1.1-6.8.1-8.9 2.8-5.9 7.8-10.8 16.2-14.7 25.2-1.3 3.2-.5 6.8 2 9.1l8.9 8c-.6 2-1.1 4-1.6 5.9l-12.4 2.5c-3.7.7-6.4 4-6.4 7.8v27.3c0 3.8 2.7 7.1 6.4 7.8l12.4 2.5c.5 2 1 4 1.6 5.9l-8.9 8c-2.6 2.3-3.4 5.9-2 9.1 3.9 9 8.8 17.4 14.7 25.2 2.1 2.7 5.6 3.8 8.9 2.8l11.2-3.7c1.4 1.5 2.9 3 4.4 4.4l-3.7 11.2c-1.1 3.3.1 6.8 2.8 8.9 7.8 5.9 16.2 10.8 25.2 14.7 3.2 1.3 6.8.5 9.1-2l8-8.9c2 .6 4 1.1 6 1.6l2.4 11.6c.7 3.4 3.5 5.9 6.9 6.3 2.3.3 4.5.5 6.6.6v88.6h-56.7c-3.3-23.5-20-47.5-35-68.9zM168 195.9c.1 36.6 27.6 67.4 64 71.5v27.5l-1.3-6.3c-.7-3.2-3.2-5.7-6.4-6.2-4.7-.9-9.4-2.1-13.9-3.8-.9-.3-1.8-.5-2.7-.5-2.3 0-4.4 1-6 2.7l-7.5 8.4c-4.2-2.1-8.2-4.4-12-7.1l3.5-10.6c1-3.1.1-6.5-2.4-8.6a81.9 81.9 0 0 1-10.2-10.2c-2.1-2.5-5.5-3.4-8.6-2.4l-10.6 3.5c-2.6-3.9-5-7.9-7.1-12l8.4-7.5c2.4-2.2 3.3-5.6 2.2-8.7-1.6-4.5-2.9-9.2-3.8-13.9-.6-3.2-3.1-5.8-6.3-6.4l-11.2-2.2v-14.2l11.2-2.2c3.2-.6 5.7-3.2 6.3-6.4.9-4.7 2.1-9.4 3.8-13.9 1.1-3.1.2-6.5-2.2-8.7l-8.4-7.5c2.1-4.2 4.4-8.2 7.1-12l10.6 3.5c3.1 1 6.5 0 8.6-2.4 3.1-3.7 6.6-7.1 10.2-10.3 2.5-2.1 3.4-5.5 2.4-8.6l-3.5-10.6c3.9-2.6 7.9-5 12-7.1l7.5 8.4c2.2 2.4 5.6 3.3 8.7 2.2 4.5-1.6 9.2-2.9 13.9-3.8 3.2-.6 5.7-3 6.4-6.2L232 97v27.5c-36.4 3.9-63.9 34.7-64 71.4zm64-55.4v110.7c-30.6-4.4-51.8-32.7-47.4-63.3 3.5-24.6 22.8-43.9 47.4-47.4zm84 319.6c0 4.4-3.6 8-8 8H172c-4.5-.1-8.1-3.8-8-8.3v-.3c0-4.4 3.6-8 8-8h136c4.5.1 8.1 3.8 8 8.3v.3zm-10-40c4-.4 7.6 2.6 8 6.6v.8c0 4.4-3.6 8-8 8H174c-4.5-.1-8.1-3.8-8-8.3v-.3c.2-4 3.5-7.1 7.5-6.9h.5l132 .1zm-2-112.2c4.4 0 8 3.6 8 8s-3.6 8-8 8-8-3.6-8-8c0-4.5 3.6-8 8-8zm-16-240c4.4 0 8 3.6 8 8s-3.6 8-8 8-8-3.6-8-8c0-4.5 3.6-8 8-8zm16 168h-56v-80h56v80zm88-8c-4.4 0-8-3.6-8-8s3.6-8 8-8 8 3.6 8 8-3.6 8-8 8z"/><path class="st0" d="M317.2 369.8c-2.8 5-5.3 10.3-7.5 15.6l14.9 5.9c1.9-4.7 4.1-9.3 6.6-13.8l-14-7.7zm17.9-28.2c-3.1 4.5-6.3 9.1-9.3 13.8l13.4 8.7c2.9-4.5 5.9-8.9 9-13.3l-13.1-9.2zm18.2-26.6c-2.7 4.3-5.7 8.7-8.9 13.3l13.1 9.1c3.3-4.8 6.4-9.4 9.3-13.9l-13.5-8.5zm15.1-27.9c-2.3 4.8-4.7 9.5-7.2 14.2l14.1 7.5c2.6-4.9 5.1-9.9 7.5-14.9l-14.4-6.8zm12.5-29.3c-1.9 4.9-3.8 9.9-5.9 14.8l14.7 6.3c2.2-5.1 4.2-10.3 6.2-15.5l-15-5.6zm35.1-92.6l-16 .1v1.5c0 4.5-.2 9.2-.6 14.1l15.9 1.3c.4-5.3.7-10.5.7-15.4v-1.6zm-4.1-34l-15.6 3.6c1.2 5 2.1 10.1 2.7 15.2l15.9-1.9c-.7-5.7-1.7-11.4-3-16.9zm-11.5-32.4l-14.4 7c2.2 4.6 4.2 9.4 6 14.2l15.1-5.4c-1.9-5.3-4.2-10.6-6.7-15.8zm-18.3-28.9l-12.5 10c3.2 4 6.2 8.2 8.9 12.6L392 84c-3-5-6.3-9.7-9.9-14.1zm-24-24.5l-10.2 12.3c4 3.3 7.8 6.8 11.4 10.5L370.8 57c-4.1-4.1-8.3-7.9-12.7-11.6zm-28.3-19l-7.6 14.1c4.6 2.5 9 5.2 13.3 8l8.9-13.3c-4.6-3.1-9.5-6.1-14.6-8.8zm-31.3-13.3l-4.8 15.3c5 1.6 9.9 3.4 14.6 5.4l6.3-14.7c-5.3-2.3-10.7-4.3-16.1-6zm-33.2-7.3l-2 15.9c5.2.7 10.3 1.6 15.3 2.7L282 8.7c-5.4-1.2-11.1-2.2-16.7-2.9zM16 435.9h16v16H16zm0 32h16v16H16zm16-16h16v16H32zm-32 0h16v16H0zm456-448h16v16h-16zm0 32h16v16h-16zm16-16h16v16h-16zm-32 0h16v16h-16z"/></svg>