<svg xmlns="http://www.w3.org/2000/svg" id="Layer_1" viewBox="0 0 64 64" width="128" height="128"><style>.st0{fill:#4bad32}.st1{fill:#b6dedc}.st2{fill:#fcd821}</style><path class="st0" d="M15 44.4c-.8-.6-1.9-.7-2.9-.2L12 44 9.5 29.7c-.3-1.8-2-3-3.8-2.6-1.6.2-2.7 1.6-2.7 3.2v18.2c-.1 2.4 1 4.8 3 6.2l7 4.5V61h10V50l-8-5.6zm34 0c.8-.6 1.9-.7 2.9-.2l.1-.2 2.5-14.3c.3-1.8 2-3 3.8-2.6 1.6.3 2.7 1.6 2.7 3.2v18.2c.1 2.4-1 4.8-3 6.2l-7 4.5V61H41V50l8-5.6z"/><circle class="st1" cx="32" cy="23" r="20"/><path class="st2" d="M46 19c0-2.9-2-5.4-4.8-5.9V13c.1-3.3-2.5-5.9-5.8-6-1.2 0-2.4.4-3.4 1.1-1-.7-2.2-1.1-3.4-1.1-3.3.1-5.8 2.7-5.8 6v.1c-2.8.5-4.8 3-4.8 5.9 0 1.5.5 2.9 1.5 4-1 1.1-1.5 2.5-1.5 4 0 2.9 2 5.4 4.8 5.9v.1c-.1 3.3 2.5 5.9 5.8 6 1.2 0 2.4-.4 3.4-1.1 1 .7 2.2 1.1 3.4 1.1 3.3-.1 5.8-2.7 5.8-6v-.1c2.8-.5 4.9-3 4.8-5.9 0-1.5-.5-2.9-1.5-4 1-1.1 1.5-2.5 1.5-4z"/><path d="M51 62H41c-.6 0-1-.4-1-1V50c0-.3.2-.6.4-.8l8-5.7c.8-.6 1.8-.8 2.7-.7l2.4-13.4c.4-2.3 2.6-3.9 4.9-3.5 2 .4 3.5 2.1 3.5 4.2v18.2c.1 2.8-1.2 5.4-3.4 7L52 59.7V61c0 .6-.4 1-1 1zm-9-2h8v-.8c0-.3.2-.7.5-.8l7-4.5c1.7-1.3 2.6-3.3 2.5-5.4V30.3c0-1.2-1-2.3-2.3-2.3-1.1 0-2 .8-2.2 1.9l-2.4 13.8.3.3c1.5 1.5 1.5 3.9 0 5.4-.1.1-.3.2-.4.4l-5.4 4-1.2-1.6 5.4-4c.8-.6 1-1.8.4-2.6s-1.7-1-2.5-.4L42 50.6V60zm-19 2H13c-.6 0-1-.4-1-1v-1.3l-6.6-4.2c-2.2-1.6-3.5-4.3-3.4-7.1V30.2C2 27.9 3.9 26 6.3 26c2.1 0 3.8 1.5 4.2 3.5l2.4 13.4c1-.1 1.9.1 2.7.7l8 5.7c.3.2.4.5.4.8v11c0 .5-.4.9-1 .9zm-9-2h8v-9.4l-7.6-5.4c-.8-.6-2-.4-2.6.4-.6.8-.4 1.9.4 2.5l5.4 4-1.2 1.6-5.4-4c-1.7-1.3-2-3.7-.8-5.4.1-.1.2-.3.4-.4l.3-.3-2.4-13.7c-.2-1.2-1.4-2-2.6-1.8-1.1.1-1.9 1.1-1.9 2.2v18.2c-.1 2.1.9 4.1 2.5 5.4l7 4.5c.3.2.5.5.5.8v.8zm18-16c-1.4 0-2.8-.1-4.1-.4l.4-2c1.2.2 2.4.4 3.7.4v2zm4.1-.4l-.4-2c1.2-.2 2.4-.6 3.6-1.1l.8 1.8c-1.3.6-2.6 1-4 1.3zM24 42.4c-1.3-.5-2.5-1.2-3.6-1.9l1.1-1.7c1 .7 2.1 1.3 3.3 1.8l-.8 1.8zm19.7-1.9l-1.1-1.7c1-.7 2-1.5 2.9-2.4l1.4 1.4c-1 1-2.1 1.9-3.2 2.7zm-26.5-2.6c-1-1-1.8-2-2.6-3.2l1.7-1.1c.7 1 1.5 2 2.4 2.9l-1.5 1.4zm32.3-3.2l-1.7-1.1c.7-1 1.3-2.1 1.8-3.3l1.8.8c-.5 1.2-1.2 2.4-1.9 3.6zm-36.9-3.6c-.5-1.3-.9-2.6-1.2-3.9l2-.4c.2 1.2.6 2.4 1.1 3.6l-1.9.7zm40-4l-2-.4c.2-1.2.4-2.5.4-3.7l2-.1v.1c0 1.4-.1 2.7-.4 4.1zM11 23c0-1.4.1-2.8.4-4.1l2 .4c-.3 1.2-.4 2.5-.4 3.7h-2zm39.6-3.8c-.2-1.2-.6-2.4-1.1-3.6l1.8-.8c.5 1.3.9 2.6 1.2 3.9l-1.9.5zm-36.2-3.4l-1.8-.8c.5-1.3 1.2-2.5 1.9-3.6l1.7 1.1c-.7 1-1.3 2.1-1.8 3.3zm33.4-3.4c-.7-1-1.5-2-2.4-2.9l1.4-1.4c1 1 1.9 2 2.6 3.2l-1.6 1.1zM18.5 9.6l-1.4-1.4c1-1 2-1.9 3.2-2.6l1.1 1.7c-1 .6-2 1.4-2.9 2.3zm24-2.4c-1-.7-2.1-1.3-3.3-1.7l.8-1.9c1.3.5 2.5 1.2 3.6 1.9l-1.1 1.7zM24.7 5.5l-.8-1.8c1.3-.5 2.6-.9 3.9-1.2l.4 2c-1.2.1-2.4.5-3.5 1zm10.9-1.2C34.4 4.1 33.2 4 32 4l-.1-2h.1c1.4 0 2.7.1 4 .4l-.4 1.9zM47 19c0-3.1-1.9-6.4-5.1-6.9-.3-3.4-3.1-6-6.6-6.1-1.1 0-2.3.3-3.3.9-1-.6-2.2-.9-3.4-.9-3.5.1-6.5 2.8-6.8 6.3-2.9.9-4.8 3.6-4.8 6.7 0 1.4.4 2.8 1.2 4-.8 1.2-1.2 2.6-1.2 4 0 3.1 1.9 6.4 5.1 6.9.3 3.4 3.1 6 6.6 6.1 1.2 0 2.4-.3 3.4-.9 1 .6 2.2.9 3.4.9 3.5-.1 6.5-2.8 6.8-6.3 2.9-.9 4.9-3.6 4.9-6.7 0-1.4-.4-2.8-1.2-4 .6-1.2 1-2.6 1-4zM24.1 33.8c2.1-.6 3.4-2.8 2.8-4.9-.5-1.7-2.1-2.9-3.9-2.9v2c1.1 0 2 .9 2 2s-.9 2-2 2c-2.4 0-4-2.6-4-5 0-1.2.4-2.4 1.2-3.3.3-.4.3-.9 0-1.3-.8-1-1.2-2.2-1.2-3.4 0-2.4 1.6-4.5 4-4.9.5-.1.8-.6.8-1.1-.1-2.7 2.1-4.9 4.8-5 .8 0 1.7.2 2.4.7V15c0 1.1-.9 2-2 2s-2-.9-2-2h-2c0 2.2 1.8 4 4 4 .7 0 1.4-.2 2-.6v18.9c-.7.4-1.5.7-2.4.7-2.3-.1-4.3-1.8-4.5-4.2zm19.7-10.1c.8.9 1.2 2.1 1.2 3.3 0 2.4-1.6 4.5-4 4.9-.5.1-.8.6-.8 1.1.1 2.7-2.1 4.9-4.8 5-.8 0-1.7-.2-2.4-.7V26c0-1.1.9-2 2-2s2 .9 2 2h2c0-2.2-1.8-4-4-4-.7 0-1.4.2-2 .6V8.7c.7-.5 1.5-.7 2.4-.7 2.3.1 4.3 1.8 4.5 4.2-2.1.6-3.4 2.8-2.8 4.9.5 1.7 2.1 2.9 3.9 2.9v-2c-1.1 0-2-.9-2-2s.9-2 2-2c2.4 0 4 2.6 4 5 0 1.2-.4 2.4-1.2 3.3-.4.4-.4 1 0 1.4z"/></svg>