<svg id="Layer_2" data-name="Layer 2" width="32" height="32" xmlns="http://www.w3.org/2000/svg" viewBox="0 0 460.8 513.5"><defs><style>.cls-1,.cls-3{fill:#fff}.cls-1{stroke:#000;stroke-miterlimit:10;stroke-width:3px}.cls-2{fill:red}</style></defs><title>logo</title><path class="cls-1" d="M351.34 298.41l25.71-10.62h99.5s-36.33 6.15-41.36 41.36l-.56 143.66S345.33 512 277.32 512l-16.21-.68S70.18 509.7 37.76 328c0 0 19.56-204 254.89-220.24l-35.5 23.48L282 148.05s-72.67-1.12-130.24 21.24c0 0-67.16 77.21-51.5 159.93 0 0 15.55 120.11 131.06 152.53 0 0 61.3 25.72 142.91-15.09l1.68-136.39s-4.1-28.41-24.57-31.86z" transform="translate(-25.6)"/><path class="cls-2" d="M346.24 169.26s53.08-7.22 86.7-16.66c0 0-11.5 16.07-47.77 31.26 0 0-16.96 3.39-38.93-14.6zm-29.18-65.19l-34.8 25.56 37.87 19.7s106.23 17.55 166.27-84.67c0 0-20.01 38.49-169.34 39.41zm40.64-70.2l-33.26 30.79s2.78 8.31 50.19 15.7c0 0 61.27-9.23 100.38-77.28-.01 0-34.79 29.56-117.31 30.79z" transform="translate(-25.6)"/><path class="cls-2" d="M332.54 36.72l-27.69 32.36S326.79 85.26 352 86.7c0 0-271.76-3.4-314.2 190.24-.04 0-3.92-215.77 294.74-240.22z" transform="translate(-25.6)"/><path class="cls-2" d="M47.54 195.49s1.2-36.83 21.43-77.28c0 0 7.24-22.64 6.64-42.26 0 0 .3-5.43-6-5.13 0 0-15.39-2.42-27.47 1.21s-6.64.6-14.49 6.94c0 0-4.53-11.77 0-19.62s15.4-14.79 19-15.7c0 0 1.12-8.5 6.41-15s51.84-15.74 66.37-18.32S143.15 7.87 150.08 0c0 0 2.3 5.84-8.83 28.5 0 0 16.29-1.63 33.8-14.39 0 0 3.93 2.58-16 27.55 0 0 9 4.07 90.25-20.76 0 0-5.7 11-63.24 32.57-.06 0-83.68 22.81-138.52 142.02z" transform="translate(-25.6)"/><path class="cls-3" d="M52.53 37.85s-2.29 6.56 3.57 9.7l9-9.7z" transform="translate(-25.6)"/></svg>