<svg id="Capa_1" xmlns="http://www.w3.org/2000/svg" viewBox="0 0 492.2 492.2"><style>.st0{fill:#e60000}</style><path class="st0" d="M374.2 140.8c-13.3 0-24 10.7-24 24v32h-8.3c-2.2-15.3-16.4-25.9-31.7-23.7-12.3 1.8-21.9 11.4-23.7 23.7h-14.8c4.3-7.3 6.5-15.6 6.5-24 0-26.5-21.5-48-48-48s-48 21.5-48 48c0 8.4 2.2 16.7 6.5 24h-14.8c-2.2-15.3-16.4-25.9-31.7-23.7-12.3 1.8-21.9 11.4-23.7 23.7h-8.3v-32c0-13.3-10.7-24-24-24s-24 10.7-24 24v51.9c0 15.5 12.6 28.1 28.1 28.1h83.9v232c0 4.4 3.6 8 8 8h96c4.4 0 8-3.6 8-8v-232h81c17.1 0 31-13.9 31-31v-49c0-13.2-10.8-24-24-24zm8 73c0 8.3-6.7 15-15 15h-89c-4.4 0-8 3.6-8 8v232h-32v-128h-16v128h-32v-232c0-4.4-3.6-8-8-8H90.3c-6.7 0-12.1-5.4-12.1-12.1v-51.9c0-4.4 3.6-8 8-8s8 3.6 8 8v40c0 4.4 3.6 8 8 8h24c4.4 0 8-3.6 8-8v-4c0-6.6 5.4-12 12-12s12 5.4 12 12v4c0 4.4 3.6 8 8 8h40.2c4.4 0 8-3.6 8-8 0-2.5-1.2-4.9-3.2-6.4-8.2-6-13-15.5-13-25.6 0-17.7 14.3-32 32-32s32 14.3 32 32c0 10.1-4.8 19.6-13 25.6-3.5 2.6-4.3 7.7-1.6 11.2 1.5 2 3.9 3.2 6.4 3.2h40.2c4.4 0 8-3.6 8-8v-4c0-6.6 5.4-12 12-12s12 5.4 12 12v4c0 4.4 3.6 8 8 8h24c4.4 0 8-3.6 8-8v-40c0-4.4 3.6-8 8-8s8 3.6 8 8v49zM85.3 33.2c-.8-1.5-2-2.8-3.6-3.6l-48-24c-4-2-8.8-.4-10.7 3.6-.6 1.1-.8 2.3-.8 3.6v88h16v-35L81.7 44c4-2 5.6-6.8 3.6-10.8zM38.2 47.9V25.8l22.1 11.1-22.1 11zm446.5-7.7c-1.5-2.1-3.9-3.4-6.5-3.4h-24.6l-7.8-26.3c-1.2-4.2-5.7-6.7-9.9-5.4-2.6.8-4.6 2.8-5.4 5.4l-7.8 26.3h-24.6c-4.4 0-8 3.6-8 8 0 2.6 1.3 5 3.4 6.5l20 14.1-7.7 25c-1.3 4.2 1.1 8.7 5.3 10 2.5.8 5.2.3 7.2-1.3L438.2 84 458 99.2c3.5 2.7 8.5 2 11.2-1.5 1.6-2.1 2.1-4.8 1.3-7.2l-7.7-25 20-14.1c3.6-2.6 4.4-7.6 1.9-11.2zm-35.9 15.5c-2.8 2-4.1 5.6-3 8.9l2 6.6-4.8-3.7c-2.9-2.2-6.9-2.2-9.7 0l-4.8 3.7 2-6.6c1-3.3-.2-6.9-3-8.9l-4.1-2.9h5.3c3.5 0 6.7-2.3 7.7-5.7l1.8-6 1.8 6c1 3.4 4.1 5.7 7.7 5.7h5.3l-4.2 2.9zm29.4 293.1h-24c0-4.4-3.6-8-8-8h-48c-4.4 0-8 3.6-8 8h-24c-4.4 0-8 3.6-8 8v8c.1 20.6 15.8 37.7 36.2 39.6 4.2 7.6 11.4 13.1 19.8 15.2v17.1h-8c-3.7 0-6.9 2.5-7.8 6.1l-8 32c-1.1 4.3 1.5 8.6 5.8 9.7.6.2 1.3.2 1.9.2h48c4.4 0 8-3.6 8-8 0-.7-.1-1.3-.2-1.9l-8-32c-.9-3.6-4.1-6.1-7.8-6.1h-8v-17.1c8.4-2.2 15.5-7.7 19.8-15.2 20.5-1.9 36.2-19 36.2-39.6v-8c.1-4.4-3.5-8-7.9-8zm-88 38.5c-9.6-3.4-16-12.4-16-22.5h16v22.5zm41.7 65.5l4 16h-27.5l4-16h19.5zm6.3-64c0 8.8-7.2 16-16 16s-16-7.2-16-16v-32h32v32zm16-1.5v-22.5h16c-.1 10.1-6.5 19.2-16 22.5zM367.8 0c-4.1 5.4-7.5 11.4-10.3 17.6l14.7 6.4c2.2-5.1 5.1-9.9 8.4-14.4L367.8 0z"/><path class="st0" d="M481.4 110.4c-12.4 9.4-27.6 14.4-43.2 14.4-39.8 0-72-32.3-72-72.1 0-4.8.5-9.6 1.4-14.3l-15.7-3.2c-1.2 5.8-1.8 11.7-1.8 17.6.1 48.6 39.4 87.9 88 88 19.1.1 37.6-6.1 52.8-17.6l-9.5-12.8zm-357-75.2l-15.7 3.2c7.9 39-17.3 77-56.2 85-4.7 1-9.5 1.4-14.3 1.4-9.9 0-19.7-2-28.8-6L3 133.5c11.1 4.9 23.1 7.3 35.2 7.3 48.6-.1 87.9-39.4 88-88 0-5.9-.6-11.8-1.8-17.6zM108.6 0L95.8 9.6c3.3 4.5 6.2 9.3 8.4 14.4l14.7-6.4c-2.8-6.2-6.2-12.2-10.3-17.6zm18.2 465.4c-2.4 5.1-5.5 10-9 14.5l12.6 9.9c4.3-5.4 7.9-11.3 10.9-17.5l-14.5-6.9zm-46.9-122c-7.1-1.7-14.4-2.6-21.8-2.6-20.7-.1-40.8 6.9-57 19.7l9.9 12.6c13.4-10.6 30-16.4 47-16.3 42 0 76 34.1 76 76.1 0 6.1-.7 12.1-2.2 18l15.5 3.8c12.3-49.4-18-99.2-67.4-111.3zm244.9 5.1c-12.2 19.2-18.7 41.5-18.7 64.3 0 14.6 2.6 29.2 7.9 42.9l14.9-5.7c-20.5-53.7 6.4-113.8 60.1-134.3 30.7-11.7 65.1-8.3 92.8 9.3l8.6-13.5c-55.9-35.5-130.1-18.9-165.6 37zm11.3 116.3l-13.9 8c4 6.9 8.7 13.4 14 19.4l12-10.6c-4.6-5.2-8.7-10.8-12.1-16.8zm-9.9-324h16v16h-16zm-32 0h16v16h-16zm-136 0h16v16h-16zm-32 0h16v16h-16z"/><path class="st0" d="M62.2 372.8c-30.9 0-56 25.1-56 56s25.1 56 56 56 56-25.1 56-56c-.1-30.9-25.1-56-56-56zm0 72c-5 0-8-2.6-8-4h-16c.5 9.2 7 16.9 16 18.8v8.4c-18.6-3.8-32-20.2-32-39.2 0-19 13.4-35.4 32-39.2v8.4c-9 1.9-15.5 9.6-16 18.8 0 14.6 13.9 17.8 22.2 19.8 7.6 1.8 9.8 2.7 9.8 4.2 0 1.4-3.1 4-8 4zm39.2-8c-3.2 15.7-15.5 28-31.2 31.2v-8.4c9-1.9 15.5-9.6 16-18.8 0-14.6-13.9-17.9-22.2-19.8-7.6-1.8-9.8-2.7-9.8-4.2 0-1.4 3-4 8-4s8 2.6 8 4h16c-.5-9.2-7-16.9-16-18.8v-8.4c21.6 4.4 35.6 25.6 31.2 47.2z"/></svg>