<svg id="Layer_1" xmlns="http://www.w3.org/2000/svg" viewBox="0 0 736 435"><style>.st0,.st1{fill-rule:evenodd;clip-rule:evenodd;fill:url(#SVGID_1_)}.st1{fill:#fff;fill-opacity:.32}.st2{fill:#fff;fill-opacity:8e-2}.st2,.st3,.st4{fill-rule:evenodd;clip-rule:evenodd}.st3{fill-opacity:.16;fill:#f90000}.st4{fill:url(#SVGID_2_)}.st5{fill:url(#SVGID_3_)}.st5,.st6,.st7{fill-rule:evenodd;clip-rule:evenodd}.st6{fill-opacity:.72;fill:#ff1515}.st7{fill:url(#SVGID_4_)}</style><linearGradient id="SVGID_1_" gradientUnits="userSpaceOnUse" x1="112.441" y1="473.814" x2="113.441" y2="472.93" gradientTransform="matrix(-215.0497 61.6645 -18.0346 -62.8942 33342.02 23006.428)"><stop offset="0" stop-color="#e93a00"/><stop offset="1" stop-color="#fff" stop-opacity="0"/></linearGradient><path class="st0" d="M399 236c3.6-4.3 8.3-7.4 13.3-9.5 2.5-1.1 5.2-1.8 7.9-2.3l2-.3 2-.2c.7-.1 1.3-.1 2-.1h2c10.6 0 20.6 2.8 30.2 4.6 19.2 3.8 39.3 2.4 57.9-3.5s35.9-16.5 49.2-30.9l1.3-1.3 1.2-1.4 2.4-2.8 2.3-2.9 1.1-1.4 1.1-1.5 2.2-3 2-3.1c1.4-2 2.5-4.2 3.8-6.3 2.3-4.3 4.6-8.7 6.4-13.3 1-2.2 1.7-4.6 2.6-6.9.4-1.2.7-2.3 1.1-3.5.4-1.2.7-2.3 1-3.5 1.4-5.4 3.1-5.1 1.8.5l-.9 3.6c-.3 1.2-.7 2.4-1 3.6-.8 2.4-1.5 4.8-2.5 7.1-1.7 4.7-3.9 9.2-6.2 13.7-1.2 2.2-2.4 4.4-3.7 6.5l-2 3.2-2.1 3.1-1.1 1.6-1.1 1.5-2.3 3-2.4 2.9-1.2 1.5-1.3 1.4c-13.4 15.1-30.9 26.6-50.2 33.2-19.3 6.5-40.3 8.4-60.5 4.8-10-1.8-19.7-4.3-29.1-4.3-4.8 0-9.2.7-13.5 2.5-4.2 1.7-8 4.4-10.9 7.7-2.7 3.2-4 6-4.9 8-.5 1-.8 1.8-1.2 2.4-.4.6-.8.9-1.2.9-.4 0-.8-.3-1.1-.9-.3-.6-.7-1.7-.7-3v-1.1c0-.4.1-.8.1-1.2.1-.5.1-.9.2-1.3.1-.5.3-.9.4-1.4.6-2.2 1.9-4.3 3.6-6.4"/><path class="st1" d="M560.1 320.3c-1.1-1.2-2.7-2-4.3-2.1-.9 0-.9.4 0 .5.2 0 .4.1.5.1-.4-.1-.8-.1-1.2-.1 0-.2-.2-.4-.6-.5-.2-.1-.5-.1-.8-.1-.3 0-.7.1-1.1.2-1.6.6-3 1.8-3.8 3.3-.8 1.5-1 3.4-.6 5 .4 1.7 1.4 3.2 2.9 4.2 1.4 1 3.2 1.4 4.9 1.2 1.7-.2 3.3-1.1 4.4-2.4 1.1-1.3 1.7-3 1.7-4.7-.1-1.8-.8-3.4-2-4.6"/><path class="st2" d="M577.9 276.2c-.5 0-.4.4 0 .4h.1-.4c0-.2-.1-.3-.3-.5-.2-.1-.5-.2-.9 0-.8.3-1.5.9-1.9 1.7-.4.8-.5 1.7-.3 2.5.4 1.8 2.1 2.9 3.9 2.7.9-.1 1.6-.6 2.2-1.2.5-.6.8-1.5.8-2.3 0-.8-.4-1.6-.9-2.2-.7-.7-1.5-1.1-2.3-1.1"/><path class="st3" d="M109 333.5l27.4-16.5 16.5 27.4-27.4 16.5-16.5-27.4z"/><linearGradient id="SVGID_2_" gradientUnits="userSpaceOnUse" x1="112.127" y1="472.616" x2="112.657" y2="473.483" gradientTransform="scale(300 -300) rotate(-61 -345.448 330.79)"><stop offset="0" stop-color="#ff1515"/><stop offset="1" stop-color="#fff" stop-opacity="0"/></linearGradient><path class="st4" d="M362.4 0l145.4 262.4-262.4 145.4L100 145.4 362.4 0z"/><linearGradient id="SVGID_3_" gradientUnits="userSpaceOnUse" x1="112.851" y1="474.36" x2="112.851" y2="473.36" gradientTransform="matrix(-209.6243 -106.8089 -106.7413 209.4915 74754.906 -86899.086)"><stop offset="0" stop-color="#fff" stop-opacity=".32"/><stop offset="1" stop-color="#e90000" stop-opacity="0"/></linearGradient><path class="st5" d="M431.1 242.7c9.1-10.7 20.1-19.6 32.4-26.3 12.3-6.7 25.8-11.1 39.7-13 13.9-1.9 28.1-1.2 41.7 2 13.7 3.2 26.7 9 38.3 16.8C594.8 230 605 240 613 251.5s13.9 24.4 17.4 38.1c3.4 13.6 4.4 27.8 2.7 41.7-.1.6-.2 1.3-.2 1.9-.3-.4-.6-.7-.9-1.2-1-1.2-2-2.3-3.1-3.3-1.3-1.3-2.9-2.7-4.8-4.2-1-.8-2-1.6-3-2.3L618 320l-1.5-1.1-1.6-1-3.2-2c-4.4-2.5-8.8-4.9-13.4-6.9-9.2-4.1-19-6.8-29-8.4-20-3-40.7-1-59.6 6.2-18.9 7.1-35.9 19.3-48.8 34.7-12.9 15.5-21.7 34.2-25.3 53.9-.1.6-.2 1.1-.3 1.7-.4-.4-.7-.8-1.1-1.2-9.5-10.2-17-22.2-22.2-35.1-5.2-13-8.1-26.8-8.4-40.8-.8-28.1 9.3-56.1 27.5-77.3m-30.8 77.1c.3 14.4 3.2 28.6 8.6 42 5.4 13.3 13.1 25.7 22.9 36.2 4.7 5.1 9.4 9 13.5 12.2 4.2 3.1 7.8 5.5 10.8 7.2 1.5.8 2.8 1.6 4 2.1 1 .5 2 .9 3 1.3 1.6.7 2.4.9 2.5.7.1-.2-.6-.8-2-1.7-.7-.5-1.6-1.1-2.7-1.8l-3.7-2.5c-2.8-1.9-6.2-4.4-10.2-7.6-3.4-2.8-7.2-6.1-11.1-10.2.1-.6.3-1.4.5-2.3 3.8-19.5 12.8-38 25.7-53 12.9-15 29.7-26.8 48.3-33.5 18.6-6.8 38.8-8.6 58.3-5.5 9.7 1.6 19.2 4.3 28.2 8.3 4.5 1.9 8.8 4.3 13.1 6.7l3.1 2 1.6 1 1.5 1.1 3 2.1c1 .7 1.9 1.5 2.9 2.3 1.9 1.4 3.5 2.8 4.9 3.9l3.5 2.7c.9.7 1.6 1.1 2.2 1.4-1.9 12.6-6 24.9-11.9 36.2-6.4 12.5-15.3 23.6-25.8 32.9-10.5 9.3-22.7 16.6-35.8 21.6-13.1 5-27.1 7.5-41.1 7.4-14 0-28-2.6-41.1-7.7-1.8-.8-3.5-1.4-4.9-2-1.4-.5-2.5-1.1-3.4-1.5-1.8-.8-2.8-1.1-2.8-1-.1.1.8.6 2.6 1.6.9.5 2 1.1 3.4 1.7 1.4.6 3 1.3 4.9 2.1 13.2 5.1 27.3 7.8 41.5 7.9 14.2.1 28.3-2.4 41.6-7.4s25.6-12.3 36.3-21.7c10.7-9.4 19.7-20.7 26.2-33.3 6.6-12.6 11-26.3 12.8-40.5 1.7-14.1.8-28.6-2.6-42.4-3.4-13.9-9.4-27-17.5-38.8-8.1-11.8-18.5-22-30.3-30s-25.1-14-39-17.3c-14-3.3-28.4-4.1-42.7-2.2-14.3 1.9-28.1 6.3-40.7 13.1-12.7 6.8-24 15.9-33.4 26.8-18.8 21.9-29.3 50.7-28.7 79.4"/><path class="st6" d="M579.6 284.3L552 263.5l20.8-27.5 27.5 20.8-20.7 27.5z"/><linearGradient id="SVGID_4_" gradientUnits="userSpaceOnUse" x1="114.803" y1="476.872" x2="113.909" y2="476.322" gradientTransform="matrix(-27.537 -20.7506 -20.7488 27.5346 13610.596 -10480.858)"><stop offset="0" stop-color="#fff" stop-opacity="0"/><stop offset="1" stop-color="#fff" stop-opacity=".64"/></linearGradient><path class="st7" d="M579.5 284.5L552 263.7l48.3-6.8-20.8 27.6z"/></svg>