<svg id="Capa_1" xmlns="http://www.w3.org/2000/svg" viewBox="0 0 480 480"><style>.st0{fill:#e60000}</style><path class="st0" d="M363 313.8l-35.2 28.1-27-20.3c-3.4-2.5-8.1-2-10.9 1.2l-48 56 12.1 10.4 43.1-50.3 26 19.5c2.9 2.2 6.9 2.1 9.8-.1l40-32-9.9-12.5zM256 400h16v48h-16z"/><path class="st0" d="M288 360h16v88h-16zm32 24h16v64h-16zm32-8h16v72h-16zm0-344c-4.4 0-8 3.6-8 8v40c0 4.4 3.6 8 8 8h40c4.4 0 8-3.6 8-8 0-26.5-21.5-48-48-48zm8 40V49c11.3 2.9 20.1 11.7 23 23h-23z"/><path class="st0" d="M360 104h-32V72c0-4.4-3.6-8-8-8-26.5 0-48 21.5-48 48s21.5 48 48 48 48-21.5 48-48c0-4.4-3.6-8-8-8zm-48 39c-17.1-4.4-27.4-21.9-23-39 2.9-11.3 11.7-20.1 23-23v31c0 4.4 3.6 8 8 8h31c-4.4 17.1-21.9 27.4-39 23zm72 73c-13.3 0-24 10.7-24 24s10.7 24 24 24 24-10.7 24-24c0-13.2-10.7-24-24-24zm0 32c-4.4 0-8-3.6-8-8s3.6-8 8-8 8 3.6 8 8-3.6 8-8 8z"/><path class="st0" d="M443.5 225.3l-9.7-4.8-.9-2.1 3.2-9.9c.8-2.5.3-5.2-1.2-7.3-3.5-4.6-7.6-8.7-12.1-12.1-2.1-1.6-4.8-2-7.3-1.3l-9.9 3.2-2.1-.9-4.8-9.7c-1.3-2.7-4.1-4.5-7.2-4.5h-15c-3 0-5.8 1.7-7.2 4.5l-4.8 9.7-2.1.9-9.9-3.2c-2.5-.8-5.2-.3-7.3 1.3-4.6 3.5-8.7 7.6-12.1 12.1-1.6 2.1-2 4.8-1.3 7.3l3.2 9.9-.9 2.1-9.7 4.8c-2.7 1.3-4.5 4.1-4.5 7.2v15c0 3 1.7 5.8 4.5 7.2l9.7 4.8.9 2.1-3.2 9.9c-.8 2.5-.3 5.2 1.3 7.3 3.5 4.6 7.6 8.7 12.1 12.1 2.1 1.6 4.8 2 7.3 1.3l9.9-3.2 2.1.9 4.8 9.7c1.3 2.7 4.1 4.5 7.2 4.5h15c3 0 5.8-1.7 7.2-4.5l4.8-9.7 2.1-.9 9.9 3.2c2.5.8 5.2.3 7.3-1.2 4.6-3.5 8.7-7.6 12.1-12.1 1.6-2.1 2-4.8 1.3-7.3l-3.2-9.9.9-2.1 9.7-4.8c2.7-1.3 4.5-4.1 4.5-7.2v-15c-.1-3.2-1.8-5.9-4.6-7.3zM432 242.5l-8.1 4c-2 1-3.4 2.7-4.1 4.8-.7 2-1.5 4-2.5 5.9-1 1.9-1.2 4.1-.5 6.1l2.8 8.8c-1.1 1.2-2.2 2.3-3.4 3.4l-8.8-2.8c-2-.7-4.2-.5-6.1.5-1.9 1-3.9 1.8-5.9 2.5-2.1.7-3.8 2.1-4.8 4.1l-4 8.1h-5.1l-4-8.1c-1-2-2.7-3.4-4.8-4.1-2-.7-4-1.5-5.9-2.5-1.9-1-4.1-1.2-6.1-.5l-8.8 2.8c-1.2-1.1-2.3-2.2-3.4-3.4l2.8-8.8c.6-2 .5-4.2-.5-6.1-1-1.9-1.8-3.9-2.5-5.9-.7-2.1-2.1-3.8-4.1-4.8l-8.1-4v-5.1l8.1-4c2-1 3.4-2.7 4.1-4.8.7-2 1.5-4 2.5-5.9 1-1.9 1.2-4.1.5-6.1l-2.8-8.8c1.1-1.2 2.2-2.3 3.4-3.4l8.8 2.8c2 .6 4.2.4 6.1-.5 1.9-1 3.9-1.8 5.9-2.5 2.1-.7 3.8-2.1 4.8-4.1l4-8.1h5.1l4 8.1c1 2 2.7 3.4 4.8 4.1 2 .7 4 1.5 5.9 2.5 1.9 1 4.1 1.2 6.1.5l8.8-2.8c1.2 1.1 2.3 2.2 3.4 3.4l-2.8 8.8c-.6 2-.5 4.2.5 6.1 1 1.9 1.8 3.9 2.5 5.9.7 2.1 2.1 3.8 4.1 4.8l8.1 4v5.1zM464 40h16v16h-16zm8-40H216c-4.4 0-8 3.6-8 8v144h16V16h240v8h16V8c0-4.4-3.6-8-8-8zM208 232h16v176h-16zm0 192h16v16h-16z"/><path class="st0" d="M464 72v392H224v-8h-16v16c0 4.4 3.6 8 8 8h256c4.4 0 8-3.6 8-8V72h-16zm-255.4 96l-92.5-6.9c2.6-5.3 3.9-11.2 3.9-17.1 0-22.1-17.9-40-40-40s-40 17.9-40 40c0 5.8 1.3 11.5 3.7 16.7-25.2 4.2-43.7 26-43.7 51.6V288c0 4.4 3.6 8 8 8h24v102.3L.7 468.8c-1.8 4 0 8.8 4.1 10.6 1 .5 2.1.7 3.3.7h144c4.4 0 8-3.6 8-8 0-1.1-.2-2.2-.7-3.3L128 398.3V216h80c4.4 0 8-3.6 8-8v-32c0-4.2-3.2-7.7-7.4-8zm-68.9 296H20.3l24.9-56h69.6l24.9 56zM200 200h-80c-4.4 0-8 3.6-8 8v184H88V288H72v104H48V200H32v80H16v-67.7c0-20 16.2-36.2 36.3-36.3H59c4.4 0 8-3.6 8-8 0-2.3-1-4.5-2.7-6-5.3-4.5-8.3-11.1-8.3-18 0-13.3 10.7-24 24-24s24 10.7 24 24c0 6.9-3 13.5-8.3 18-3.3 2.9-3.7 8-.8 11.3 1.4 1.6 3.3 2.6 5.4 2.7l99.6 7.4V200z"/><path transform="rotate(-45.001 35.317 12.694)" class="st0" d="M27.3 4.7h16v16h-16z"/><path transform="rotate(-45.001 12.693 35.312)" class="st0" d="M4.7 27.3h16v16h-16z"/><path transform="rotate(-45.001 35.314 35.315)" class="st0" d="M27.3 27.3h16v16h-16z"/><path transform="rotate(-45.001 12.695 12.69)" class="st0" d="M4.7 4.7h16v16h-16z"/><path transform="rotate(-45.001 140.285 59.729)" class="st0" d="M132.3 51.7h16v16h-16z"/><path transform="rotate(-45.001 117.66 82.347)" class="st0" d="M109.7 74.3h16v16h-16z"/><path transform="rotate(-45.001 140.282 82.349)" class="st0" d="M132.3 74.3h16v16h-16z"/><path transform="rotate(-45.001 117.663 59.725)" class="st0" d="M109.7 51.7h16v16h-16z"/></svg>