<svg id="Capa_1" xmlns="http://www.w3.org/2000/svg" viewBox="0 0 480 480"><style>.st0{fill:#e60000}</style><path class="st0" d="M262.6 355.5c1.7-5.2 1.8-10.7.2-16-2.8-9.2-10.2-16.2-19.6-18.6-8.6-2.3-17.8-.4-24.9 5.1-6.6 5.1-10.5 12.9-10.5 21.2 0 2.8.4 5.6 1.3 8.3-10.1 2.8-17.2 11.9-17.3 22.4V424c0 4.4 3.6 8 8 8h8v40c0 4.4 3.6 8 8 8h40c4.4 0 8-3.6 8-8v-40h8c4.4 0 8-3.6 8-8v-46.1c.1-10.5-7-19.7-17.2-22.4zM264 416h-8c-4.4 0-8 3.6-8 8v40h-24v-40c0-4.4-3.6-8-8-8h-8v-38.1c.2-4.2 3.8-7.5 8-7.4h8.1c4.4 0 8-3.6 8-8 0-2.6-1.2-5-3.3-6.5-4.9-3.3-6.2-9.9-3-14.8.7-1 1.5-1.9 2.5-2.7 3.2-2.4 7.3-3.2 11.1-2.2s6.9 3.8 8.1 7.5c1.4 4.5-.3 9.5-4.3 12.1-3.6 2.6-4.4 7.6-1.9 11.2 1.5 2.1 3.9 3.3 6.5 3.3h8.1c4.2-.2 7.8 3.1 8 7.4V416zm-120-56c0-4.3-3.5-7.8-7.8-7.9-26.3-.6-44 4.6-55.6 16-3.5 3.5-6.3 7.5-8.6 11.9-2.2-4.4-5.1-8.4-8.6-11.9-11.5-11.4-29.2-16.5-55.6-16-4.3 0-7.8 3.5-7.8 7.9-.2 27.2 4.9 44.5 16.6 56 10.3 10.2 25.6 15.3 47.4 15.9V480h16v-48.1c21.9-.6 37.1-5.7 47.4-15.9 11.7-11.6 16.8-28.8 16.6-56zM27.8 404.6c-7.2-7.1-11-18.9-11.7-36.5 17.3.5 28.9 4.2 36.1 11.3 7.2 7.1 11 18.9 11.7 36.5-17.3-.5-28.9-4.2-36.1-11.3zm52.3 11.3c.7-17.7 4.5-29.4 11.7-36.5 7.2-7.1 18.8-10.8 36.1-11.3-.7 17.7-4.5 29.4-11.7 36.5-7.2 7.1-18.8 10.8-36.1 11.3zM240 168c-13.3 0-24 10.7-24 24 0 13.2 10.8 24 24 24 13.3 0 24-10.7 24-24s-10.7-24-24-24zm0 32c-4.4 0-8-3.6-8-8s3.6-8 8-8 8 3.6 8 8-3.6 8-8 8z"/><path class="st0" d="M299.5 177.3l-9.7-4.8-.9-2.1 3.2-9.9c.8-2.5.3-5.2-1.3-7.3-3.5-4.6-7.6-8.7-12.1-12.1-2.1-1.6-4.8-2-7.3-1.3l-9.9 3.2-2.1-.9-4.8-9.7c-1.3-2.7-4.1-4.5-7.2-4.5h-15c-3 0-5.8 1.7-7.2 4.5l-4.8 9.7-2.1.9-9.9-3.2c-2.5-.8-5.2-.3-7.3 1.3-4.6 3.5-8.6 7.6-12.1 12.1-1.6 2.1-2.1 4.8-1.3 7.3l3.2 9.9-.9 2.1-9.7 4.8c-2.7 1.3-4.5 4.1-4.5 7.2v15c0 3 1.7 5.8 4.5 7.2l9.7 4.8.9 2.1-3.2 9.9c-.8 2.5-.3 5.2 1.3 7.3 3.5 4.6 7.6 8.7 12.1 12.1 2.1 1.6 4.8 2 7.3 1.3l9.9-3.2 2.1.9 4.8 9.7c1.3 2.7 4.1 4.5 7.2 4.5h15c3 0 5.8-1.7 7.2-4.5l4.8-9.7 2.1-.9 9.9 3.2c2.5.8 5.2.3 7.3-1.3 4.6-3.5 8.7-7.6 12.1-12.1 1.6-2.1 2.1-4.8 1.3-7.3l-3.2-9.9.9-2.1 9.7-4.8c2.7-1.3 4.5-4.1 4.5-7.2v-15c0-3.1-1.7-5.8-4.5-7.2zM288 194.5l-8.1 4c-2 1-3.4 2.7-4.1 4.8-.7 2.1-1.5 4-2.5 6-1 1.9-1.2 4.1-.5 6.1l2.8 8.8c-1.1 1.2-2.2 2.3-3.4 3.4l-8.8-2.8c-2-.6-4.2-.5-6.1.5-1.9 1-3.9 1.8-5.9 2.5-2.1.7-3.8 2.1-4.8 4.1l-4 8.1h-5.1l-4-8.1c-1-2-2.7-3.4-4.8-4.1-2-.7-4-1.5-5.9-2.5-1.9-1-4.1-1.2-6.1-.5l-8.8 2.8c-1.2-1.1-2.3-2.2-3.4-3.4l2.8-8.8c.6-2 .5-4.2-.5-6.1-1-1.9-1.8-3.9-2.5-5.9-.7-2.1-2.1-3.8-4.1-4.8l-8.1-4v-5.1l8.1-4c2-1 3.4-2.7 4.1-4.8.7-2.1 1.5-4 2.5-6 1-1.9 1.2-4.1.5-6.1l-2.8-8.8c1.1-1.2 2.2-2.3 3.4-3.4l8.8 2.8c2 .6 4.2.5 6.1-.5 1.9-1 3.9-1.8 5.9-2.5 2.1-.7 3.8-2.1 4.8-4.1l4-8.1h5.1l4 8.1c1 2 2.7 3.4 4.8 4.1 2 .7 4 1.5 5.9 2.5 1.9 1 4.1 1.2 6.1.5l8.8-2.8c1.2 1.1 2.3 2.2 3.4 3.4l-2.8 8.8c-.6 2-.5 4.2.5 6.1 1 1.9 1.8 3.9 2.5 6s2.1 3.8 4.1 4.8l8.1 4v5zM416 280H248v-8h-16v8H72c-4.4 0-8 3.6-8 8v32h16v-24h152v8h16v-8h160v8h16v-16c0-4.4-3.6-8-8-8zM328 8h-24c0-4.4-3.6-8-8-8h-56c-4.4 0-8 3.6-8 8v104h16V64h40c0 4.4 3.6 8 8 8h32c4.4 0 8-3.6 8-8V16c0-4.4-3.6-8-8-8zm-40 40h-40V16h40v32zm32 8h-16V24h16v32zM64 336h16v16H64zm344-16h16v16h-16zm8 32c-35.3 0-64 28.7-64 64s28.7 64 64 64 64-28.7 64-64-28.7-64-64-64zm0 80c-5 0-8-2.6-8-4h-16c.5 9.2 7 16.9 16 18.8v16.5c-23.1-3.9-40-23.9-40-47.3s16.9-43.4 40-47.3v16.5c-9 1.9-15.5 9.6-16 18.8 0 14.6 13.9 17.8 22.2 19.8 7.6 1.8 9.8 2.7 9.8 4.2 0 1.4-3 4-8 4zm8 31.3v-16.5c9-1.9 15.5-9.6 16-18.8 0-14.6-13.9-17.9-22.2-19.8-7.6-1.8-9.8-2.7-9.8-4.2 0-1.4 3-4 8-4s8 2.6 8 4h16c-.5-9.2-7-16.9-16-18.8v-16.5c26.1 4.4 43.7 29.1 39.3 55.2-3.3 20.2-19.1 36-39.3 39.4z"/></svg>