<svg id="Layer_1" xmlns="http://www.w3.org/2000/svg" viewBox="0 0 128 128"><style>.st0{fill:#fcd821}.st1{fill:#b6dedc}.st2{fill:#344496}.st3{fill:#ec322c}</style><path class="st0" d="M119.7 102.7c3.1 3.1 3.1 8.2 0 11.3l-5.7 5.7c-3.1 3.1-8.2 3.1-11.3 0-3.1-3.1-3.1-8.2 0-11.3l5.7-5.7c3.1-3.1 8.1-3.1 11.3 0z"/><path class="st1" d="M46 6v49c2.3 1.9 4.2 4.3 5.6 7H122V6H46z"/><path class="st2" d="M80 70h10v16H80V70zM64 86h40v10H64V86zM6 112h50v10H6v-10zm45.6-50c1.3 2.5 2.1 5.2 2.3 8H122v-8H51.6z"/><path class="st0" d="M103.9 31.8L97.4 30c-.3-.9-.7-1.9-1.1-2.7l3.3-5.8-3.1-3.1-5.8 3.3c-.9-.5-1.8-.9-2.7-1.1l-1.7-6.4c-1.5-.2-3-.2-4.4 0l-1.7 6.4c-.9.3-1.9.7-2.7 1.1l-5.8-3.3-3.1 3.1 3.3 5.8c-.5.9-.9 1.8-1.1 2.7l-6.4 1.7c-.2 1.5-.2 3 0 4.4l6.4 1.8c.3.9.7 1.9 1.1 2.7l-3.3 5.8 3.1 3.1 5.8-3.3c.9.5 1.8.9 2.7 1.1l1.7 6.4c1.5.2 3 .2 4.4 0l1.7-6.4c.9-.3 1.9-.7 2.7-1.1l5.8 3.3 3.1-3.1-3.3-5.8c.5-.9.9-1.8 1.1-2.7l6.4-1.7c.2-1.5.2-2.9.1-4.4zM84 40c-3.3 0-6-2.7-6-6s2.7-6 6-6 6 2.7 6 6-2.7 6-6 6z"/><path class="st3" d="M32 50c-12.2 0-22 9.8-22 22s9.8 22 22 22 22-9.8 22-22-9.8-22-22-22zm3 27.2c-2.9 1.7-6.5.7-8.2-2.2-1.7-2.9-.7-6.5 2.2-8.2 2.9-1.7 6.5-.7 8.2 2.2 1.7 2.9.7 6.5-2.2 8.2z"/><path d="M84 56c-.8 0-1.6 0-2.4-.1-.8-.1-1.5-.7-1.7-1.5L78.4 49c-.3-.1-.7-.3-1-.4l-4.9 2.8c-.8.4-1.8.3-2.4-.3L67 47.9c-.6-.6-.8-1.6-.3-2.4l2.8-4.9c-.2-.3-.3-.7-.4-1l-5.4-1.5c-.8-.2-1.4-.9-1.5-1.7-.2-1.6-.2-3.2 0-4.9.1-.8.7-1.5 1.5-1.7l5.4-1.5c.1-.3.3-.7.4-1l-2.8-4.9c-.4-.8-.3-1.8.3-2.4l3.1-3.1c.6-.6 1.6-.8 2.4-.3l4.9 2.8c.3-.2.7-.3 1-.4l1.5-5.4c.2-.8.9-1.4 1.7-1.5 1.6-.2 3.2-.2 4.9 0 .8.1 1.5.7 1.7 1.5l1.5 5.4c.3.1.7.3 1 .4l4.9-2.8c.8-.5 1.8-.3 2.4.3l3.1 3.1c.6.6.8 1.6.3 2.4l-2.8 4.9c.2.3.3.7.4 1l5.4 1.5c.8.2 1.4.9 1.5 1.7.2 1.6.2 3.2 0 4.9-.1.8-.7 1.5-1.5 1.7L99 39.6c-.1.3-.3.7-.4 1l2.8 4.9c.4.8.3 1.8-.3 2.4L97.9 51c-.6.6-1.6.8-2.4.3l-4.9-2.8c-.3.2-.7.3-1 .4l-1.5 5.4c-.2.8-.9 1.4-1.7 1.5-.8.1-1.6.2-2.4.2zm-.7-4h1.3l1.4-5.1c.2-.7.7-1.2 1.4-1.4.8-.2 1.6-.6 2.3-1 .6-.3 1.3-.3 2 0l4.5 2.6 1-1-2.6-4.5c-.3-.6-.4-1.3 0-2s.7-1.5 1-2.3c.2-.7.7-1.2 1.4-1.4l5.1-1.4v-1.3L96.9 32c-.7-.2-1.2-.7-1.4-1.4-.2-.8-.6-1.6-1-2.3-.3-.6-.3-1.3 0-2l2.6-4.5-1-1-4.5 2.6c-.6.3-1.3.4-2 0s-1.5-.7-2.3-1c-.7-.2-1.2-.7-1.4-1.4l-1.3-5h-1.3L82 21.1c-.2.7-.7 1.2-1.4 1.4-.8.2-1.6.6-2.3 1-.6.3-1.3.3-2 0l-4.5-2.6-1 1 2.6 4.5c.3.6.4 1.3 0 2s-.7 1.5-1 2.3c-.2.7-.7 1.2-1.4 1.4l-5 1.2v1.3l5.1 1.4c.7.2 1.2.7 1.4 1.4.2.8.6 1.6 1 2.3.3.6.3 1.3 0 2l-2.6 4.5 1 1 4.5-2.6c.6-.3 1.3-.4 2 0s1.5.7 2.3 1c.7.2 1.2.7 1.4 1.4l1.2 5z"/><path d="M84 42c-4.4 0-8-3.6-8-8s3.6-8 8-8 8 3.6 8 8-3.6 8-8 8zm0-12c-2.2 0-4 1.8-4 4s1.8 4 4 4 4-1.8 4-4-1.8-4-4-4zm20-18h4v4h-4v-4zm8 0h4v4h-4v-4zM56 124H6c-1.1 0-2-.9-2-2v-10c0-1.1.9-2 2-2h50c1.1 0 2 .9 2 2v10c0 1.1-.9 2-2 2zm-48-4h46v-6H8v6zm24-40c-4.4 0-8-3.6-8-8s3.6-8 8-8 8 3.6 8 8-3.6 8-8 8zm0-12c-2.2 0-4 1.8-4 4s1.8 4 4 4 4-1.8 4-4-1.8-4-4-4zM8 92h4v14H8V92zm42 0h4v14h-4V92zm-8 6h4v8h-4v-8zm-26 0h4v8h-4v-8zm8 4h4v4h-4v-4zm10 0h4v4h-4v-4zm87.1-.7c-3.9-3.9-10.2-3.9-14.1 0l-5.7 5.7c-3.9 3.9-3.9 10.2 0 14.1 3.9 3.9 10.2 3.9 14.1 0l5.7-5.7c3.9-3.9 3.9-10.2 0-14.1zm-4.5 1.6l-4 4-2.8-2.8c1.8-1.8 4.5-2.2 6.8-1.2zm-4 15.3c-2.3 2.3-6.1 2.4-8.5 0s-2.4-6.1 0-8.5l2.8-2.8 8.5 8.5-2.8 2.8zm5.6-5.6l-2.8-2.8 4-4c1.1 2.3.6 5-1.2 6.8z"/><path d="M122 4H46c-1.1 0-2 .9-2 2v45.2c-11.5-6.6-26.1-2.7-32.8 8.8S8.6 86.2 20 92.8s26.1 2.7 32.8-8.8c2.1-3.6 3.2-7.8 3.2-12h22v12H64c-1.1 0-2 .9-2 2v10c0 1.1.9 2 2 2h40c1.1 0 2-.9 2-2V86c0-1.1-.9-2-2-2H92V72h30c1.1 0 2-.9 2-2V6c0-1.1-.9-2-2-2zM48 8h72v52H52.8c-1.3-2.2-2.9-4.2-4.8-5.8V8zM32 92c-11 0-20-9-20-20s9-20 20-20 20 9 20 20-9 20-20 20zm70 2H66v-6h36v6zM88 84h-6V72h6v12zM55.6 68c-.2-1.4-.6-2.7-1-4H120v4H55.6z"/></svg>