<?xml version="1.0" encoding="utf-8"?>
<!-- Generator: Adobe Illustrator 23.0.2, SVG Export Plug-In . SVG Version: 6.00 Build 0)  -->
<svg version="1.1" id="Capa_1" xmlns="http://www.w3.org/2000/svg" xmlns:xlink="http://www.w3.org/1999/xlink" x="0px" y="0px"
	 viewBox="0 0 480 480" style="enable-background:new 0 0 480 480;" xml:space="preserve">
<style type="text/css">
	.st0{fill:#E60000;}
</style>
<g>
	<g>
		<path class="st0" d="M469.7,234.3l-24-24c-1.5-1.5-3.6-2.4-5.8-2.3c-2.2,0-4.2,0.9-5.7,2.5L376,271.8V192h24c4.4,0,8-3.6,8-8
			c0,0,0,0,0,0v-75.7c0-25.6-18.5-47.4-43.7-51.6c2.5-5.2,3.7-10.9,3.7-16.7c0-22.1-17.9-40-40-40s-40,17.9-40,40
			c0,5.8,1.3,11.5,3.7,16.7c-25.2,4.2-43.7,26-43.7,51.6V144h-88v-35.7c0-25.6-18.5-47.4-43.7-51.6c2.5-5.2,3.7-10.9,3.7-16.7
			c0-22.1-17.9-40-40-40S40,17.9,40,40c0,5.8,1.3,11.5,3.7,16.7C18.5,60.9,0,82.7,0,108.3V184c0,4.4,3.6,8,8,8c0,0,0,0,0,0h24v104
			c0,4.4,3.6,8,8,8c0,0,0,0,0,0h40v168c0,4.4,3.6,8,8,8c0,0,0,0,0,0h240c4.4,0,8-3.6,8-8c0,0,0,0,0,0v-85.6l133.8-140.8
			C472.8,242.4,472.7,237.4,469.7,234.3z M264,108.3c0-20,16.2-36.2,36.3-36.3h6.8c4.4,0,8-3.6,8-8c0-2.3-1-4.5-2.7-6
			c-5.3-4.5-8.3-11.1-8.3-18c0-13.3,10.7-24,24-24s24,10.7,24,24c0,6.9-3,13.5-8.3,18c-3.3,2.9-3.7,8-0.8,11.3
			c1.5,1.7,3.7,2.7,6,2.7h6.8c20,0,36.2,16.2,36.3,36.3V176h-16V96h-16v192.6l-24,25.3V216c0-2.1-0.8-4.2-2.3-5.7L296,172.7V96h-16
			v60.7l-10.3-10.3c-1.5-1.5-3.5-2.3-5.7-2.3V108.3z M308.7,208H272v-36.7L308.7,208z M80,152C80,152,80,152,80,152v136H48V96H32v80
			H16v-67.7C16,88.2,32.2,72,52.3,72H59c4.4,0,8-3.6,8-8c0-2.3-1-4.5-2.7-6C59,53.5,56,46.9,56,40c0-13.3,10.7-24,24-24
			s24,10.7,24,24c0,6.9-3,13.5-8.3,18c-3.3,2.9-3.7,8-0.8,11.3c1.5,1.7,3.7,2.7,6,2.7h6.8c20,0,36.2,16.2,36.3,36.3V144h-16V96h-16
			v48H88C83.6,144,80,147.6,80,152z M320,464H96V160h160v56c0,4.4,3.6,8,8,8c0,0,0,0,0,0h56v106.7l-36.8,38.8l-30.7,15.4
			c-2.3,1.1-3.9,3.3-4.3,5.8l-8,48c-0.7,4.4,2.2,8.5,6.6,9.2c0.4,0.1,0.9,0.1,1.3,0.1c0.4,0,0.9,0,1.3-0.1l48-8
			c2.5-0.4,4.7-2,5.8-4.3l15.5-30.9l1.4-1.4L320,464L320,464z M274.3,402.3L260,416.7l3.2-19.4l23.2-11.6l15.8,15.8l-11.6,23.2
			l-19.4,3.2l14.3-14.3L274.3,402.3z M311.9,388.5l-12.7-12.7l141-148.4l12.7,12.7L311.9,388.5z"/>
	</g>
</g>
<g>
	<g>
		<rect x="128" y="184" class="st0" width="96" height="16"/>
	</g>
</g>
<g>
	<g>
		<rect x="112" y="224" class="st0" width="72" height="16"/>
	</g>
</g>
<g>
	<g>
		<rect x="200" y="224" class="st0" width="40" height="16"/>
	</g>
</g>
<g>
	<g>
		<rect x="112" y="264" class="st0" width="88" height="16"/>
	</g>
</g>
<g>
	<g>
		<rect x="216" y="264" class="st0" width="88" height="16"/>
	</g>
</g>
<g>
	<g>
		<rect x="112" y="304" class="st0" width="56" height="16"/>
	</g>
</g>
<g>
	<g>
		<rect x="184" y="304" class="st0" width="120" height="16"/>
	</g>
</g>
<g>
	<g>
		<rect x="112" y="344" class="st0" width="48" height="16"/>
	</g>
</g>
<g>
	<g>
		<rect x="176" y="344" class="st0" width="103" height="16"/>
	</g>
</g>
<g>
	<g>
		<rect x="112" y="384" class="st0" width="44.3" height="16"/>
	</g>
</g>
<g>
	<g>
		<rect x="169" y="384" class="st0" width="63" height="16"/>
	</g>
</g>
<g>
	<g>
		<rect x="112" y="424" class="st0" width="63" height="16"/>
	</g>
</g>
<g>
	<g>
		<rect x="448" y="432" class="st0" width="16" height="16"/>
	</g>
</g>
<g>
	<g>
		<rect x="448" y="464" class="st0" width="16" height="16"/>
	</g>
</g>
<g>
	<g>
		<rect x="464" y="448" class="st0" width="16" height="16"/>
	</g>
</g>
<g>
	<g>
		<rect x="432" y="448" class="st0" width="16" height="16"/>
	</g>
</g>
<g>
	<g>
		<rect x="448" class="st0" width="16" height="16"/>
	</g>
</g>
<g>
	<g>
		<rect x="448" y="32" class="st0" width="16" height="16"/>
	</g>
</g>
<g>
	<g>
		<rect x="464" y="16" class="st0" width="16" height="16"/>
	</g>
</g>
<g>
	<g>
		<rect x="432" y="16" class="st0" width="16" height="16"/>
	</g>
</g>
</svg>
