<?xml version="1.0" encoding="utf-8"?>
<!-- Generator: Adobe Illustrator 23.0.2, SVG Export Plug-In . SVG Version: 6.00 Build 0)  -->
<svg version="1.1" id="Layer_1" xmlns="http://www.w3.org/2000/svg" xmlns:xlink="http://www.w3.org/1999/xlink" x="0px" y="0px"
	 viewBox="0 0 98 100" style="enable-background:new 0 0 98 100;" xml:space="preserve">
<style type="text/css">
	.st0{fill-rule:evenodd;clip-rule:evenodd;fill:#FF1640;}
	.st1{fill-rule:evenodd;clip-rule:evenodd;fill:#FF7E5A;fill-opacity:0.32;}
	.st2{fill-rule:evenodd;clip-rule:evenodd;fill:#02CBB1;}
	.st3{fill-rule:evenodd;clip-rule:evenodd;fill:#1D2026;fill-opacity:0.48;}
	.st4{fill-rule:evenodd;clip-rule:evenodd;fill:url(#SVGID_1_);}
	.st5{fill:url(#SVGID_2_);}
</style>
<path class="st0" d="M49,61.5L1.1,74.1l4-37l28-7.4c0.1,3.1,0.3,8.4,0.5,15.9L49,61.3C49,61.3,49,61.5,49,61.5z"/>
<path class="st1" d="M23.7,84.3l-5.7,3.5l14.5,8.8l5.7-3.5L23.7,84.3z"/>
<path class="st2" d="M89.3,72.5l-1.7-15.7L52.8,81l1.7,15.7L89.3,72.5z"/>
<path class="st3" d="M29,31h40v40H29V31z"/>
<linearGradient id="SVGID_1_" gradientUnits="userSpaceOnUse" x1="-204.074" y1="302.9572" x2="-204.3243" y2="301.9615" gradientTransform="matrix(30.614 -22.2424 -42.307 -58.2306 19088.5625 13125.8477)">
	<stop  offset="0" style="stop-color:#3B404C"/>
	<stop  offset="1" style="stop-color:#333843"/>
</linearGradient>
<path class="st4" d="M72.7,72l-41.1,7.8l-1.7-65.7L72.7,72z"/>
<linearGradient id="SVGID_2_" gradientUnits="userSpaceOnUse" x1="-207.0683" y1="303.0104" x2="-206.4679" y2="302.3262" gradientTransform="matrix(-30.072 21.8486 -42.307 -58.2306 6647.4399 22164.8516)">
	<stop  offset="0" style="stop-color:#2C3039"/>
	<stop  offset="1" style="stop-color:#8A94A7"/>
</linearGradient>
<path class="st5" d="M72.7,72l19-36L29.9,14.1L72.7,72z"/>
<path class="st1" d="M58.6,10.2l-1,5.1l14.4-5.2l1-5.1L58.6,10.2z"/>
</svg>
