<?xml version="1.0" encoding="utf-8"?>
<!-- Generator: Adobe Illustrator 23.0.2, SVG Export Plug-In . SVG Version: 6.00 Build 0)  -->
<svg version="1.1" id="Layer_1" xmlns="http://www.w3.org/2000/svg" xmlns:xlink="http://www.w3.org/1999/xlink" x="0px" y="0px"
	 viewBox="0 0 112 100" style="enable-background:new 0 0 112 100;" xml:space="preserve">
<style type="text/css">
	.st0{fill-rule:evenodd;clip-rule:evenodd;fill:#FF1640;}
	.st1{fill-rule:evenodd;clip-rule:evenodd;fill:#02CBB1;}
	.st2{fill-rule:evenodd;clip-rule:evenodd;fill:#1D2026;fill-opacity:0.48;}
	.st3{fill-rule:evenodd;clip-rule:evenodd;fill:url(#SVGID_1_);}
	.st4{fill-rule:evenodd;clip-rule:evenodd;fill:url(#c_1_);}
	.st5{fill-rule:evenodd;clip-rule:evenodd;fill:#8C0019;}
	.st6{fill-rule:evenodd;clip-rule:evenodd;fill:#FF7E5A;fill-opacity:0.32;}
</style>
<path class="st0" d="M35.5,6.9L12,35.8L61,52l23.5-28.9L35.5,6.9z"/>
<path class="st1" d="M20,65.5L35.8,74L36,26.5L20.2,18L20,65.5z"/>
<g transform="translate(28 31)">
	<path class="st2" d="M1,0h40v40H1V0z"/>
	
		<linearGradient id="SVGID_1_" gradientUnits="userSpaceOnUse" x1="-222.8544" y1="272.0309" x2="-223.8475" y2="271.5529" gradientTransform="matrix(62.7745 0 0 -54.1481 14050.8213 14740.4727)">
		<stop  offset="0" style="stop-color:#2C3039"/>
		<stop  offset="0.4813" style="stop-color:#8A94A7"/>
		<stop  offset="1" style="stop-color:#2C3039"/>
	</linearGradient>
	<path class="st3" d="M11.3,54.8L1.6,36c-1.5-2.8-1.9-6.2-1.2-9.9C2.6,14,16.6,2.7,31.5,0.9c10.3-1.3,18.3,2.2,21.6,8.5l9.7,18.8
		c-3.2-6.3-11.3-9.8-21.6-8.5C26.3,21.5,12.3,32.8,10,44.8C9.3,48.6,9.8,51.9,11.3,54.8"/>
	<g>
		
			<linearGradient id="c_1_" gradientUnits="userSpaceOnUse" x1="-222.7392" y1="271.3215" x2="-222.9896" y2="270.3258" gradientTransform="matrix(54.6166 0 0 -44.1387 12208.667 11996.6641)">
			<stop  offset="0" style="stop-color:#3B404C"/>
			<stop  offset="1" style="stop-color:#333843"/>
		</linearGradient>
		<path id="c" class="st4" d="M32.8,63.3C17.9,65.1,7.7,56.9,10,44.8c2.3-12,16.3-23.3,31.2-25.2C56.1,17.8,66.3,26,64,38.1
			C61.7,50.1,47.7,61.4,32.8,63.3z"/>
	</g>
</g>
<path class="st5" d="M23,85.7l0.8-6.6l-16,5.7L7,91.4L23,85.7z"/>
<path class="st6" d="M106.7,46.7l4.4-2.8l-13.7-6.7L93,40L106.7,46.7z"/>
</svg>
