<?xml version="1.0" encoding="utf-8"?>
<!-- Generator: Adobe Illustrator 23.0.2, SVG Export Plug-In . SVG Version: 6.00 Build 0)  -->
<svg version="1.1" id="Layer_1" xmlns="http://www.w3.org/2000/svg" xmlns:xlink="http://www.w3.org/1999/xlink" x="0px" y="0px"
	 viewBox="0 0 103 100" style="enable-background:new 0 0 103 100;" xml:space="preserve">
<style type="text/css">
	.st0{fill-rule:evenodd;clip-rule:evenodd;fill:#FF1640;}
	.st1{fill-rule:evenodd;clip-rule:evenodd;fill:#02CBB1;}
	.st2{fill-rule:evenodd;clip-rule:evenodd;fill:#8C0019;}
	.st3{fill-rule:evenodd;clip-rule:evenodd;fill:#FF7E5A;fill-opacity:0.32;}
	.st4{fill-rule:evenodd;clip-rule:evenodd;fill:#1D2026;fill-opacity:0.48;}
	.st5{fill-rule:evenodd;clip-rule:evenodd;fill:url(#SVGID_1_);}
	.st6{fill:url(#SVGID_2_);}
</style>
<path class="st0" d="M48,64.5L0.1,77.1l4-37l28-7.4c0.1,3.1,0.3,8.4,0.5,15.9L48,64.3C48,64.3,48,64.5,48,64.5z"/>
<path class="st1" d="M91.8,72l2.5-13.4l-35.3,12l-2.5,13.4L91.8,72z"/>
<path class="st2" d="M40.8,98.4l6.4-1.9L35.4,84.2L29,86.1L40.8,98.4z"/>
<path class="st3" d="M23.8,14.4l6.4-1.9L18.4,0.2L12,2.1L23.8,14.4z"/>
<path class="st4" d="M34,31h40v40H34V31z"/>
<g>
	
		<linearGradient id="SVGID_1_" gradientUnits="userSpaceOnUse" x1="-197.6771" y1="305.1042" x2="-197.9275" y2="304.1084" gradientTransform="matrix(43.6594 22.2456 22.2469 -43.6619 1929.4569 17753.1328)">
		<stop  offset="0" style="stop-color:#3B404C"/>
		<stop  offset="1" style="stop-color:#333843"/>
	</linearGradient>
	<path class="st5" d="M78.6,27c0.3,0.1,0.6,0.4,0.6,0.8l2.6,46.4c0,0.2,0,0.4-0.1,0.6c-0.3,0.6-1,0.9-1.5,0.7L35.4,60
		c-0.2-0.1-0.3-0.2-0.4-0.3c-0.3-0.4-0.2-1.1,0.3-1.5l42.2-31c0.1-0.1,0.3-0.2,0.4-0.2C78.2,26.9,78.4,26.9,78.6,27"/>
	
		<linearGradient id="SVGID_2_" gradientUnits="userSpaceOnUse" x1="-198.5802" y1="305.5447" x2="-197.9798" y2="304.8605" gradientTransform="matrix(46.1466 23.5128 29.2155 -57.3386 280.963 22184.5645)">
		<stop  offset="0" style="stop-color:#2C3039"/>
		<stop  offset="1" style="stop-color:#8A94A7"/>
	</linearGradient>
	<path class="st6" d="M62.3,1.4C62.3,1.4,62.3,1.4,62.3,1.4c-0.1-0.1-0.1-0.1-0.1-0.2c0,0,0,0,0,0C62,1.1,61.9,1.1,61.8,1
		C61.7,1,61.6,1,61.5,1l0,0c-0.1,0-0.1,0-0.2,0c0,0-0.1,0-0.1,0l0,0c-0.2,0-0.3,0.1-0.4,0.2L18.6,32.8c0,0-0.1,0.1-0.1,0.1
		c0,0-0.1,0.1-0.1,0.1c0,0-0.1,0.1-0.1,0.1c0,0.1-0.1,0.1-0.1,0.2c0,0,0,0.1-0.1,0.1c0,0.1,0,0.2,0,0.3c0,0,0,0.1,0,0.1
		c0,0.1,0.1,0.2,0.1,0.3l17.2,25.5c-0.1-0.1-0.1-0.2-0.1-0.4c0,0,0-0.1,0-0.1c0-0.1,0-0.2,0-0.3c0-0.1,0-0.1,0.1-0.1
		c0-0.1,0.1-0.2,0.1-0.2c0,0,0.1-0.1,0.1-0.1c0.1-0.1,0.1-0.2,0.2-0.2l42.2-31.6c0.1-0.1,0.3-0.2,0.4-0.2c0.1,0,0.2,0,0.3,0
		c0.2,0,0.5,0.1,0.6,0.2c0.1,0.1,0.1,0.1,0.2,0.2L62.3,1.4L62.3,1.4z"/>
</g>
</svg>
