<?xml version="1.0" encoding="utf-8"?>
<!-- Generator: Adobe Illustrator 23.0.2, SVG Export Plug-In . SVG Version: 6.00 Build 0)  -->
<svg version="1.1" id="Layer_1" xmlns="http://www.w3.org/2000/svg" xmlns:xlink="http://www.w3.org/1999/xlink" x="0px" y="0px"
	 viewBox="0 0 108 100" style="enable-background:new 0 0 108 100;" xml:space="preserve">
<style type="text/css">
	.st0{fill-rule:evenodd;clip-rule:evenodd;fill:#FF7E5A;fill-opacity:0.32;}
	.st1{fill-rule:evenodd;clip-rule:evenodd;fill:#FF1640;}
	.st2{fill-rule:evenodd;clip-rule:evenodd;fill:#8C0019;}
	.st3{fill-rule:evenodd;clip-rule:evenodd;fill:#02CBB1;}
	.st4{fill-rule:evenodd;clip-rule:evenodd;fill:#1D2026;fill-opacity:0.48;}
	.st5{fill:url(#SVGID_1_);}
	.st6{fill:#2C3039;}
	.st7{fill-rule:evenodd;clip-rule:evenodd;fill:url(#SVGID_2_);}
</style>
<path class="st0" d="M31.3,85l1.3-5.1L18,84.3l-1.3,5.1L31.3,85z"/>
<path class="st1" d="M41.2,74.4l-41-27.9l30.5-21.3l23.9,16.3L43,52.3L41.2,74.4C41.3,74.3,41.2,74.4,41.2,74.4z"/>
<path class="st2" d="M103.3,14.4l4.6-4.9L91.6,4.8L87,9.7L103.3,14.4z"/>
<path class="st3" d="M56.9,77.2l-2.1,15.6l39.6-15.1l2.1-15.6L56.9,77.2z"/>
<path class="st4" d="M32,36h40v40H32V36z"/>
<linearGradient id="SVGID_1_" gradientUnits="userSpaceOnUse" x1="-196.5564" y1="304.7679" x2="-195.956" y2="304.0837" gradientTransform="matrix(55.0079 33.0521 17.0855 -28.435 5661.3052 15166.4824)">
	<stop  offset="0" style="stop-color:#2C3039"/>
	<stop  offset="1" style="stop-color:#8A94A7"/>
</linearGradient>
<path class="st5" d="M97.4,45.9c0.1-0.6-0.1-1.3-0.4-1.8L79.5,15.9c-0.5-0.8-1.3-1.3-2.3-1.4l-33-2.2c-0.6,0-1.3,0.1-1.8,0.5
	l19.1,30.6L97.4,45.9L97.4,45.9z"/>
<path class="st6" d="M43.3,11.9c-0.4,0.3-0.7,0.6-1,1L23.8,43.7c-0.6,1-0.6,2.2,0,3.1l16.4,27.3c0.2,0.4,0.5,0.7,0.9,0.9l20.1-33.4
	L43.3,11.9L43.3,11.9z"/>
<linearGradient id="SVGID_2_" gradientUnits="userSpaceOnUse" x1="-192.0175" y1="305.6605" x2="-192.2678" y2="304.6647" gradientTransform="matrix(28.4623 17.1018 28.4652 -47.3741 -3149.3704 17803.9863)">
	<stop  offset="0" style="stop-color:#3B404C"/>
	<stop  offset="1" style="stop-color:#333843"/>
</linearGradient>
<path class="st7" d="M61.1,41.7L41.1,75c0.4,0.2,0.8,0.4,1.3,0.4L76,78.2c1.1,0.1,2.2-0.5,2.8-1.5l18.5-30.8
	c0.2-0.4,0.4-0.9,0.4-1.3L61.1,41.7z"/>
</svg>
