<?xml version="1.0" encoding="utf-8"?>
<!-- Generator: Adobe Illustrator 23.0.2, SVG Export Plug-In . SVG Version: 6.00 Build 0)  -->
<svg version="1.1" id="Layer_1" xmlns="http://www.w3.org/2000/svg" xmlns:xlink="http://www.w3.org/1999/xlink" x="0px" y="0px"
	 viewBox="0 0 115 100" style="enable-background:new 0 0 115 100;" xml:space="preserve">
<style type="text/css">
	.st0{fill-rule:evenodd;clip-rule:evenodd;fill:#FF1640;}
	.st1{fill-rule:evenodd;clip-rule:evenodd;fill:#8C0019;}
	.st2{fill-rule:evenodd;clip-rule:evenodd;fill:#FF7E5A;fill-opacity:0.32;}
	.st3{fill-rule:evenodd;clip-rule:evenodd;fill:#1D2026;fill-opacity:0.48;}
	.st4{filter:url(#Adobe_OpacityMaskFilter);}
	.st5{fill-rule:evenodd;clip-rule:evenodd;fill:#FFFFFF;}
	.st6{mask:url(#d_1_);fill-rule:evenodd;clip-rule:evenodd;fill:url(#SVGID_1_);}
	.st7{filter:url(#Adobe_OpacityMaskFilter_1_);}
	.st8{mask:url(#g_1_);fill-rule:evenodd;clip-rule:evenodd;fill:url(#SVGID_2_);}
	.st9{fill-rule:evenodd;clip-rule:evenodd;fill:#02CBB1;}
</style>
<path class="st0" d="M23.3,63.1L0.1,45l73.3-31.4l23.2,18.1L23.3,63.1z"/>
<path class="st1" d="M35.9,83.7l1.2-6.6L20.8,82l-1.2,6.6L35.9,83.7z"/>
<path class="st2" d="M42,92.5l-3,3.4l11.6,2.7l3-3.4L42,92.5z"/>
<path class="st3" d="M41,29l38.5,11l-11,38.5L30,67.4L41,29z"/>
<g transform="rotate(16 -28.89 116.929)">
	<defs>
		<filter id="Adobe_OpacityMaskFilter" filterUnits="userSpaceOnUse" x="16.2" y="-14.6" width="43.5" height="78.3">
			<feColorMatrix  type="matrix" values="1 0 0 0 0  0 1 0 0 0  0 0 1 0 0  0 0 0 1 0"/>
		</filter>
	</defs>
	<mask maskUnits="userSpaceOnUse" x="16.2" y="-14.6" width="43.5" height="78.3" id="d_1_">
		<g class="st4">
			<path id="b_1_" class="st5" d="M4.7-4.6l63.5,0l0,59.7L4.7,55L4.7-4.6z"/>
		</g>
	</mask>
	
		<linearGradient id="SVGID_1_" gradientUnits="userSpaceOnUse" x1="-135.3472" y1="342.6666" x2="-135.6517" y2="342.0488" gradientTransform="matrix(61.0719 -16.4484 -17.512 -57.3625 14309.2627 17432.8516)">
		<stop  offset="0" style="stop-color:#2C3039"/>
		<stop  offset="0.4813" style="stop-color:#8A94A7"/>
		<stop  offset="1" style="stop-color:#2C3039"/>
	</linearGradient>
	<path class="st6" d="M37.3,34.9c0.1-0.5,0.1-1,0.2-1.5c0.1-0.3,0.1-0.6,0.2-0.9c0.1-0.4,0.2-0.9,0.3-1.3c0.1-0.3,0.2-0.6,0.3-0.9
		c0.1-0.4,0.2-0.8,0.4-1.2c0-0.1,0.1-0.3,0.2-0.4c0.2-0.5,0.4-1,0.6-1.5c0.1-0.2,0.2-0.4,0.3-0.7c0.6-1.2,1.3-2.3,2-3.4
		c0.1-0.1,0.2-0.2,0.2-0.3c0.4-0.6,0.9-1.2,1.4-1.8c0.2-0.2,0.3-0.4,0.5-0.6c0.5-0.5,0.9-1,1.4-1.5c0.2-0.2,0.3-0.3,0.5-0.5
		c0.1-0.1,0.3-0.2,0.4-0.3c0.4-0.3,0.8-0.6,1.1-0.9c0.1-0.1,0.3-0.2,0.4-0.3c0.4-0.3,0.7-0.5,1.1-0.7c0.2-0.1,0.4-0.3,0.6-0.4
		c0.4-0.3,0.9-0.5,1.3-0.7c0.2-0.1,0.3-0.2,0.5-0.2c0.6-0.3,1.1-0.5,1.7-0.7c0.2-0.1,0.3-0.1,0.5-0.2c0.5-0.2,0.9-0.3,1.4-0.4
		c0.2,0,0.4-0.1,0.5-0.1c0.6-0.2,1.2-0.3,1.9-0.4c0.6-0.1,1.1-0.1,1.7-0.2c0.2,0,0.3,0,0.5,0c0.4,0,0.8,0,1.1,0
		c0.6,0,1.1,0.1,1.7,0.1c0.2,0,0.3,0,0.5,0.1c0.4,0.1,0.9,0.2,1.3,0.3c0.1,0,0.2,0,0.2,0c0.5,0.1,1,0.3,1.5,0.5
		c0.1,0,0.3,0.1,0.4,0.2c0.3,0.1,0.7,0.3,1,0.4c0.3,0.1,0.6,0.3,0.9,0.4L35.8-2.6c-0.2-0.1-0.4-0.2-0.6-0.3C35.1-3,35-3,34.9-3
		c-0.3-0.2-0.7-0.3-1-0.4c-0.1-0.1-0.3-0.1-0.4-0.2C33-3.8,32.5-4,32-4.1l0,0c-0.1,0-0.1,0-0.2,0c-0.4-0.1-0.9-0.2-1.3-0.3
		c-0.2,0-0.3,0-0.5-0.1c-0.5-0.1-1.1-0.1-1.7-0.1c-0.4,0-0.8,0-1.1,0c-0.2,0-0.3,0-0.5,0c-0.6,0-1.1,0.1-1.7,0.2
		c-0.6,0.1-1.2,0.2-1.9,0.4c-0.2,0-0.4,0.1-0.5,0.1c-0.5,0.1-0.9,0.3-1.4,0.4c-0.2,0.1-0.3,0.1-0.5,0.2c-0.6,0.2-1.1,0.4-1.7,0.7
		l-0.1,0c-0.2,0.1-0.3,0.2-0.5,0.2c-0.4,0.2-0.9,0.5-1.3,0.7c-0.2,0.1-0.4,0.3-0.6,0.4C16.3-1.1,16-1,15.8-0.8
		c-0.1,0.1-0.2,0.1-0.3,0.2c-0.1,0.1-0.3,0.2-0.4,0.3c-0.4,0.3-0.8,0.6-1.1,0.9c-0.1,0.1-0.3,0.2-0.4,0.3c-0.1,0.1-0.1,0.1-0.2,0.2
		c-0.1,0.1-0.2,0.2-0.3,0.3c-0.5,0.5-1,1-1.4,1.5c-0.1,0.1-0.2,0.2-0.3,0.3c-0.1,0.1-0.1,0.2-0.2,0.3c-0.5,0.6-1,1.2-1.4,1.8
		C9.5,5.4,9.5,5.5,9.4,5.5c0,0,0,0,0,0.1C8.8,6.4,8.4,7.2,7.9,8c0,0.1-0.1,0.2-0.2,0.3C7.6,8.5,7.5,8.8,7.4,9C7.3,9.2,7.2,9.4,7,9.7
		c-0.2,0.5-0.4,1-0.6,1.5c-0.1,0.1-0.1,0.3-0.2,0.4l0,0.1C6.1,12,6,12.4,5.9,12.8c-0.1,0.3-0.2,0.6-0.3,0.9
		c-0.1,0.4-0.2,0.9-0.3,1.3c-0.1,0.3-0.1,0.6-0.2,0.9c-0.1,0.5-0.1,1-0.2,1.5c0,0.2-0.1,0.5-0.1,0.7c-0.1,0.7-0.1,1.5-0.1,2.2
		c0,7.8,3.7,14.1,9.4,17.2L46.5,55c-5.7-3.1-9.4-9.4-9.4-17.2c0-0.8,0-1.5,0.1-2.2C37.2,35.4,37.3,35.1,37.3,34.9"/>
</g>
<g transform="rotate(16 -109.581 222.973)">
	<defs>
		<filter id="Adobe_OpacityMaskFilter_1_" filterUnits="userSpaceOnUse" x="10.5" y="-9.3" width="29" height="52.4">
			<feColorMatrix  type="matrix" values="1 0 0 0 0  0 1 0 0 0  0 0 1 0 0  0 0 0 1 0"/>
		</filter>
	</defs>
	<mask maskUnits="userSpaceOnUse" x="10.5" y="-9.3" width="29" height="52.4" id="g_1_">
		<g class="st7">
			<path id="e_1_" class="st5" d="M4.7-5.2l40.5,0l0,44.1l-40.5,0L4.7-5.2z"/>
		</g>
	</mask>
	
		<linearGradient id="SVGID_2_" gradientUnits="userSpaceOnUse" x1="-165.7187" y1="323.2166" x2="-165.969" y2="322.2209" gradientTransform="matrix(38.9427 -12.1558 -11.1666 -42.3924 10092.498 11683.8174)">
		<stop  offset="0" style="stop-color:#3B404C"/>
		<stop  offset="1" style="stop-color:#333843"/>
	</linearGradient>
	<path class="st8" d="M25-5C36.2-6.5,45.3,2,45.2,14c0,12.1-9.1,23.1-20.3,24.7c-11.2,1.6-20.2-6.9-20.2-19C4.7,7.7,13.8-3.4,25-5"
		/>
</g>
<path class="st9" d="M114.3,47.6L104.1,39l-7.8,33l10.2,8.6L114.3,47.6z"/>
</svg>
