<?xml version="1.0" encoding="utf-8"?>
<!-- Generator: Adobe Illustrator 23.0.2, SVG Export Plug-In . SVG Version: 6.00 Build 0)  -->
<svg version="1.1" id="Layer_1" xmlns="http://www.w3.org/2000/svg" xmlns:xlink="http://www.w3.org/1999/xlink" x="0px" y="0px"
	 viewBox="0 0 807 708" style="enable-background:new 0 0 807 708;" xml:space="preserve">
<style type="text/css">
	.st0{fill-rule:evenodd;clip-rule:evenodd;fill:url(#SVGID_1_);fill-opacity:0.32;}
	.st1{fill-rule:evenodd;clip-rule:evenodd;fill:#1D2026;fill-opacity:0.48;}
	.st2{fill-rule:evenodd;clip-rule:evenodd;fill:#FFFFFF;fill-opacity:0.64;}
	.st3{fill-rule:evenodd;clip-rule:evenodd;fill:url(#SVGID_2_);}
	.st4{fill-rule:evenodd;clip-rule:evenodd;fill:url(#SVGID_3_);}
</style>
<g>
	
		<linearGradient id="SVGID_1_" gradientUnits="userSpaceOnUse" x1="148.4184" y1="609.1733" x2="147.5987" y2="610.2254" gradientTransform="matrix(476.4684 286.2911 116.9889 -194.7023 -141622.5781 76495.3281)">
		<stop  offset="0" style="stop-color:#E90000;stop-opacity:0"/>
		<stop  offset="0.5157" style="stop-color:#FF362A"/>
		<stop  offset="1" style="stop-color:#BF1A00"/>
	</linearGradient>
	<path class="st0" d="M458.6,447.6c-6.4-10.4-14.3-19.7-22.9-28.2c-8.6-8.5-18-16.1-27.8-23.1c-19.4-14.1-40.1-26.1-59.4-39.7
		l-7.3-5.1l-7.1-5.3l-3.6-2.7c-1.2-0.9-2.3-1.8-3.5-2.7l-7-5.5c-9.1-7.5-18.2-15.2-26.8-23.4c-4.4-4-8.6-8.2-12.8-12.3
		c-2.1-2-4.2-4.2-6.2-6.3c-2-2.1-4.2-4.2-6.2-6.4c-4-4.4-8.1-8.7-12-13.2c-1.9-2.2-3.9-4.4-5.9-6.7l-5.7-6.8
		c-1.9-2.3-3.8-4.6-5.6-6.9l-5.5-7l-5.4-7.1l-2.7-3.5l-2.6-3.6l-5.2-7.2l-5.1-7.3c-3.4-4.8-6.6-9.8-9.9-14.8
		c-12.9-19.9-24.8-40.5-35.7-61.6c-10.8-21.1-20.7-42.7-29.5-64.7c-2.2-5.5-4.4-11-6.4-16.6l-3.1-8.3l-3-8.4c-1-2.8-2-5.6-2.9-8.4
		l-2.8-8.4l-2.7-8.5c-0.9-2.8-1.8-5.6-2.6-8.5C109.9-3.4,108.2-3,112,10c0.8,2.9,1.7,5.7,2.6,8.5l2.6,8.5l2.8,8.5
		c0.9,2.8,1.8,5.6,2.8,8.5l2.9,8.4l3,8.4c2,5.6,4.2,11.1,6.3,16.7c8.6,22.2,18.3,44,28.9,65.3c10.7,21.3,22.4,42.1,35.2,62.3
		c3.3,5,6.4,10.1,9.8,15l5,7.4l5.2,7.3l2.6,3.6l2.7,3.6l5.4,7.2l5.5,7.1c1.8,2.4,3.7,4.7,5.6,7l5.7,6.9c1.9,2.3,3.9,4.5,5.8,6.8
		c3.9,4.6,7.9,8.9,11.9,13.4c2,2.2,4.1,4.3,6.2,6.5c2.1,2.1,4.1,4.4,6.2,6.5c4.2,4.2,8.4,8.5,12.8,12.6c8.6,8.3,17.7,16.1,26.9,23.8
		l7,5.6l3.5,2.8l3.6,2.7l7.2,5.4l7.3,5.2c19.5,13.9,40.1,26,59.2,39.9c9.6,6.9,18.7,14.4,27,22.5c8.3,8.2,15.9,17.2,22,27
		c0.8,1.2,1.5,2.3,2.1,3.5c0.6,1.1,1.3,2.2,1.9,3.3c1.1,2.2,2.3,4.1,3.2,6c0.5,0.9,0.9,1.8,1.4,2.7c0.4,0.9,0.8,1.7,1.2,2.5l1.1,2.3
		l0.9,2.1c0.6,1.3,1.2,2.4,1.6,3.4c0.4,0.8,0.8,1.6,1.2,2.4c0.7,1.3,1.3,1.9,1.7,1.8c0.4-0.1,0.6-0.9,0.6-2.4c0-0.9-0.1-1.9-0.2-2.8
		c-0.1-1.1-0.4-2.4-0.7-3.8c-0.2-0.7-0.3-1.5-0.5-2.3c-0.2-0.8-0.5-1.6-0.8-2.5c-0.3-0.9-0.6-1.8-0.9-2.8c-0.4-0.9-0.8-1.9-1.2-3
		c-0.8-2.1-1.9-4.2-3-6.5c-0.6-1.1-1.3-2.3-1.9-3.5C460.1,450.1,459.4,448.8,458.6,447.6"/>
	<path class="st1" d="M326,406.7c9.6,7.5,20.2,13.6,31.1,18.6c11,5,22.4,8.9,34,12.2c23.1,6.6,46.6,10.8,69.4,17l8.6,2.3l8.5,2.6
		l4.2,1.3c1.4,0.4,2.8,0.9,4.2,1.4l8.4,2.8c11.2,4,22.3,8.1,33.1,12.8c5.5,2.3,10.9,4.8,16.3,7.2c2.7,1.2,5.3,2.6,8,3.8
		c2.7,1.3,5.4,2.5,8,3.9c5.3,2.7,10.6,5.4,15.7,8.3c2.6,1.4,5.2,2.8,7.8,4.3l7.7,4.5c2.6,1.5,5.1,3,7.6,4.6l7.6,4.6l7.5,4.8l3.7,2.4
		l3.7,2.5l7.4,5l7.3,5.1c4.9,3.4,9.6,7,14.4,10.5c19,14.3,37.1,29.6,54.6,45.7c17.4,16.2,34,33.1,49.8,50.8
		c3.9,4.4,7.9,8.8,11.7,13.4l5.8,6.8l5.7,6.8c1.9,2.3,3.8,4.6,5.6,6.9l5.5,6.9l5.4,7c1.8,2.3,3.6,4.7,5.4,7.1
		c8.1,10.8,9.5,9.8,1.5-1.1c-1.7-2.4-3.5-4.8-5.3-7.1l-5.4-7.1l-5.5-7c-1.8-2.3-3.7-4.7-5.5-7l-5.6-6.9l-5.7-6.8
		c-3.8-4.6-7.7-9-11.6-13.5c-15.7-17.9-32.2-35.1-49.5-51.5c-17.3-16.3-35.4-31.9-54.3-46.5c-4.8-3.6-9.5-7.2-14.4-10.7l-7.3-5.2
		l-7.4-5.1l-3.7-2.5l-3.7-2.5l-7.5-4.9l-7.6-4.8c-2.5-1.6-5.1-3.2-7.7-4.7l-7.7-4.6c-2.6-1.5-5.2-2.9-7.8-4.4
		c-5.2-3-10.5-5.7-15.8-8.5c-2.6-1.4-5.3-2.7-8-4c-2.7-1.3-5.3-2.7-8.1-3.9c-5.4-2.5-10.8-5.1-16.3-7.4
		c-10.9-4.8-22.1-9.1-33.4-13.2l-8.5-2.9l-4.3-1.4l-4.3-1.3l-8.6-2.6l-8.7-2.4c-23.1-6.4-46.6-10.7-69.3-17.2
		c-11.3-3.2-22.5-7.1-33.1-11.9c-10.6-4.9-20.8-10.7-29.9-17.9c-1.1-0.9-2.2-1.7-3.2-2.5c-1-0.8-1.9-1.6-2.9-2.4
		c-1.8-1.6-3.6-3.1-5.1-4.6c-0.8-0.7-1.5-1.4-2.2-2.1c-0.7-0.7-1.3-1.3-2-1.9l-1.8-1.7l-1.6-1.6c-1-1-1.9-1.9-2.6-2.6
		c-0.6-0.6-1.3-1.3-2-1.9c-1.1-0.9-1.9-1.3-2.2-1.1c-0.3,0.2-0.2,1,0.3,2.4c0.3,0.7,0.6,1.5,1.1,2.5c0.5,1,1.2,2.1,2,3.3
		c0.4,0.6,0.8,1.3,1.3,2l1.6,2.1c0.6,0.7,1.2,1.5,1.8,2.3l2.1,2.4c1.4,1.7,3.2,3.3,5.1,5.1c0.9,0.9,2,1.7,3,2.7
		C323.7,404.9,324.8,405.8,326,406.7"/>
	<path class="st2" d="M279.2,342.8c21.1,0.1,42.3,0.4,63.5-0.2c21.2-0.6,42.5-2,63.5-5.2c2.6-0.4,5.3-0.9,7.9-1.3
		c2.6-0.5,5.3-0.9,7.9-1.4c5.2-1.1,10.4-2.1,15.6-3.4c10.4-2.4,20.6-5.5,30.8-8.6l7.6-2.6l3.8-1.3l3.7-1.4l7.5-2.8l7.4-3l3.7-1.5
		l3.7-1.6l7.3-3.1l7.3-3.3l3.6-1.7l3.6-1.7l7.2-3.5l7.1-3.6c4.8-2.4,9.4-5,14.1-7.5c9.3-5.2,18.5-10.4,27.6-16
		c18.1-11.1,35.7-23.1,52.9-35.5c34.4-24.9,67.2-51.8,99.7-78.7c9.3-7.7,8.7-8.3-0.6-0.7c-32.7,26.8-65.6,53.5-100.1,78.1
		c-17.2,12.3-34.8,24.1-53,35c-9,5.5-18.3,10.7-27.6,15.8c-4.7,2.5-9.3,5-14.1,7.3l-7.1,3.6l-7.2,3.4l-3.6,1.7l-3.6,1.6l-7.2,3.2
		l-7.3,3.1l-3.7,1.5l-3.7,1.5l-7.4,2.9l-7.5,2.7l-3.7,1.4c-1.2,0.4-2.5,0.8-3.8,1.3l-7.5,2.5c-10.1,3.1-20.3,6.1-30.6,8.5
		c-5.1,1.3-10.3,2.3-15.5,3.4c-2.6,0.5-5.2,0.9-7.8,1.4c-2.6,0.4-5.2,0.9-7.8,1.3c-20.9,3.1-42,4.5-63.2,5
		c-21.1,0.5-42.3,0.3-63.5,0.1C238.3,339.4,238.3,342.6,279.2,342.8"/>
	
		<linearGradient id="SVGID_2_" gradientUnits="userSpaceOnUse" x1="149.2496" y1="609.9144" x2="149.2496" y2="608.9144" gradientTransform="matrix(-209.6253 -106.8094 -106.7412 209.4914 96534.7578 -111139.2734)">
		<stop  offset="0" style="stop-color:#FFFFFF;stop-opacity:0.32"/>
		<stop  offset="1" style="stop-color:#D42F00;stop-opacity:0"/>
	</linearGradient>
	<path class="st3" d="M111.6,512.1c9.1-10.7,20.1-19.6,32.4-26.3c12.3-6.7,25.8-11.1,39.7-13c13.9-1.9,28.1-1.2,41.7,2
		c13.7,3.2,26.7,9,38.3,16.8c11.6,7.8,21.8,17.8,29.8,29.3c8,11.5,13.9,24.4,17.4,38.1c3.4,13.6,4.4,27.8,2.7,41.7
		c-0.1,0.6-0.2,1.3-0.2,1.9c-0.3-0.4-0.6-0.7-0.9-1.2c-1-1.2-2-2.3-3.1-3.3c-1.3-1.3-2.9-2.7-4.8-4.2c-1-0.8-2-1.6-3-2.3l-3.1-2.2
		l-1.5-1.1l-1.6-1l-3.2-2c-4.4-2.5-8.8-4.9-13.4-6.9c-9.2-4.1-19-6.8-29-8.4c-20-3-40.7-1-59.6,6.2c-18.9,7.1-35.9,19.3-48.8,34.7
		c-12.9,15.5-21.7,34.2-25.3,53.9c-0.1,0.6-0.2,1.1-0.3,1.7c-0.4-0.4-0.7-0.8-1.1-1.2c-9.5-10.2-17-22.2-22.2-35.1
		c-5.2-13-8.1-26.8-8.4-40.8C83.3,561.3,93.3,533.3,111.6,512.1 M80.8,589.2c0.3,14.4,3.2,28.6,8.6,42c5.4,13.3,13.1,25.7,22.9,36.2
		c4.7,5.1,9.4,9,13.5,12.2c4.2,3.1,7.8,5.5,10.8,7.2c1.5,0.8,2.8,1.6,4,2.1c1,0.5,2,0.9,3,1.3c1.6,0.7,2.4,0.9,2.5,0.7
		c0.1-0.2-0.6-0.8-2-1.7c-0.7-0.5-1.6-1.1-2.7-1.8c-1.1-0.7-2.3-1.6-3.7-2.5c-2.8-1.9-6.2-4.4-10.2-7.6c-3.4-2.8-7.2-6.1-11.1-10.2
		c0.1-0.6,0.3-1.4,0.5-2.3c3.8-19.5,12.8-38,25.7-53c12.9-15,29.7-26.8,48.3-33.5c18.6-6.8,38.8-8.6,58.3-5.5
		c9.7,1.6,19.2,4.3,28.2,8.3c4.5,1.9,8.8,4.3,13.1,6.7l3.1,2l1.6,1l1.5,1.1l3,2.1c1,0.7,1.9,1.5,2.9,2.3c1.9,1.4,3.5,2.8,4.9,3.9
		l3.5,2.7c0.9,0.7,1.6,1.1,2.2,1.4c-1.9,12.6-6,24.9-11.9,36.2c-6.4,12.5-15.3,23.6-25.8,32.9c-10.5,9.3-22.7,16.6-35.8,21.6
		c-13.1,5-27.1,7.5-41.1,7.4c-14,0-28-2.6-41.1-7.7l-4.9-2c-1.4-0.5-2.5-1.1-3.4-1.5c-1.8-0.8-2.8-1.1-2.8-1
		c-0.1,0.1,0.8,0.6,2.6,1.6c0.9,0.5,2,1.1,3.4,1.7c1.4,0.6,3,1.3,4.9,2.1c13.2,5.1,27.3,7.8,41.5,7.9c14.2,0.1,28.3-2.4,41.6-7.4
		c13.3-5,25.6-12.3,36.3-21.7c10.7-9.4,19.7-20.7,26.2-33.3c6.6-12.6,11-26.3,12.8-40.5c1.7-14.1,0.8-28.6-2.6-42.4
		c-3.4-13.9-9.4-27-17.5-38.8c-8.1-11.8-18.5-22-30.3-30c-11.8-8-25.1-14-39-17.3c-14-3.3-28.4-4.1-42.7-2.2
		c-14.3,1.9-28.1,6.3-40.7,13.1c-12.7,6.8-24,15.9-33.4,26.8C90.6,531.7,80.2,560.5,80.8,589.2"/>
	
		<linearGradient id="SVGID_3_" gradientUnits="userSpaceOnUse" x1="147.5469" y1="612.3071" x2="148.5469" y2="611.4236" gradientTransform="matrix(195.6666 -108.4598 -31.7205 -57.2253 -9461.1514 51454.9336)">
		<stop  offset="0" style="stop-color:#FF3100"/>
		<stop  offset="1" style="stop-color:#FFFFFF;stop-opacity:0"/>
	</linearGradient>
	<path class="st4" d="M207.9,326.7c-5.6-0.5-11.1,0.6-16.1,2.7c-2.5,1-4.9,2.4-7.2,3.9l-1.7,1.2l-1.5,1.3c-0.5,0.4-1,0.9-1.5,1.3
		c-0.5,0.4-1,0.9-1.4,1.4c-7.5,7.6-12.5,16.6-18.1,24.7c-10.9,16.2-26.1,29.4-43.4,38.5c-17.4,9-37,13.7-56.7,13l-1.8,0l-1.8-0.1
		l-3.7-0.3l-3.7-0.4l-1.8-0.2l-1.8-0.3l-3.6-0.6l-3.6-0.7c-2.4-0.5-4.8-1.2-7.1-1.8c-4.7-1.4-9.4-2.9-13.9-4.9c-2.3-0.9-4.5-2-6.7-3
		c-1.1-0.5-2.2-1.1-3.3-1.7c-1.1-0.6-2.2-1.1-3.2-1.8c-4.8-2.9-5.8-1.4-1,1.6c1,0.7,2.1,1.3,3.2,1.9c1.1,0.6,2.2,1.2,3.3,1.8
		c2.2,1.1,4.4,2.3,6.8,3.3c4.5,2.1,9.3,3.8,14,5.3c2.4,0.7,4.8,1.5,7.3,2l3.7,0.9l3.7,0.7l1.9,0.3l1.9,0.3l3.7,0.5l3.8,0.4l1.9,0.2
		l1.9,0.1c20.2,1.3,40.7-3.1,59-12c18.2-9,34.5-22.5,46.2-39.4c5.8-8.3,10.9-16.9,17.6-23.6c3.4-3.4,7-6.1,11.3-7.8
		c4.2-1.7,8.8-2.6,13.1-2.2c4.2,0.4,7.1,1.5,9.1,2.2c1.1,0.3,1.9,0.7,2.5,0.8c0.7,0.1,1.2,0,1.5-0.2c0.3-0.3,0.4-0.8,0.1-1.5
		c-0.2-0.7-0.7-1.7-1.6-2.7c-0.2-0.3-0.5-0.5-0.8-0.8c-0.3-0.3-0.6-0.5-1-0.8c-0.4-0.3-0.7-0.5-1.1-0.8c-0.4-0.3-0.9-0.5-1.3-0.7
		C213,327.6,210.6,327,207.9,326.7"/>
</g>
</svg>
