<?xml version="1.0" encoding="utf-8"?>
<!-- Generator: Adobe Illustrator 23.0.2, SVG Export Plug-In . SVG Version: 6.00 Build 0)  -->
<svg version="1.1" id="Capa_1" xmlns="http://www.w3.org/2000/svg" xmlns:xlink="http://www.w3.org/1999/xlink" x="0px" y="0px"
	 viewBox="0 0 480 480" style="enable-background:new 0 0 480 480;" xml:space="preserve">
<style type="text/css">
	.st0{fill:#E60000;}
</style>
<g>
	<g>
		<path class="st0" d="M135.2,128C131.4,109.4,115,96,96,96c-22.1,0-40,17.9-40,40h16c0-13.3,10.7-24,24-24s24,10.7,24,24
			s-10.7,24-24,24c-4.4,0-8,3.6-8,8c0,0,0,0,0,0v40h16v-32.8C125.7,170.8,139.6,149.7,135.2,128z"/>
	</g>
</g>
<g>
	<g>
		<rect x="88" y="224" class="st0" width="16" height="16"/>
	</g>
</g>
<g>
	<g>
		<path class="st0" d="M320,48C320,48,320,48,320,48H216c-4.4,0-8,3.6-8,8c0,0,0,0,0,0v48h-24c-4.4,0-8,3.6-8,8c0,1.8,0.6,3.6,1.8,5
			l21.7,27.1c8,10.1,20.2,15.9,33,15.9H320c4.4,0,8-3.6,8-8c0,0,0,0,0,0V56C328,51.6,324.4,48,320,48z M312,144h-79.5
			c-8,0-15.5-3.6-20.5-9.9L200.6,120H216c4.4,0,8-3.6,8-8c0,0,0,0,0,0V64h88V144z"/>
	</g>
</g>
<g>
	<g>
		<rect x="240" y="80" class="st0" width="56" height="16"/>
	</g>
</g>
<g>
	<g>
		<rect x="240" y="112" class="st0" width="16" height="16"/>
	</g>
</g>
<g>
	<g>
		<rect x="272" y="112" class="st0" width="24" height="16"/>
	</g>
</g>
<g>
	<g>
		<path class="st0" d="M409.9,142.6c-6.5-4.3-14.2-6.6-22-6.6c-22.1,0-40,17.9-40,40c0,7.8,2.3,15.5,6.6,22.1l-40.2,40.2l11.3,11.3
			l40.2-40.2c18.4,12.2,43.2,7.1,55.4-11.3S428.4,154.8,409.9,142.6z M404.9,193C404.9,193,404.9,193,404.9,193
			c-9.5,9.1-24.4,9.1-33.9,0c-9.4-9.4-9.4-24.6,0-33.9c9.4-9.4,24.6-9.4,33.9,0C414.2,168.4,414.2,183.6,404.9,193z"/>
	</g>
</g>
<g>
	<g>
		<path class="st0" d="M275.2,209.6l-26.5,19.8l-27.1-27.1c-3.1-3.1-8.2-3.1-11.3,0c-0.2,0.2-0.4,0.4-0.6,0.7l-32,40l12.5,10
			l26.4-33l25.7,25.7c2.8,2.8,7.3,3.1,10.5,0.7l32-24L275.2,209.6z"/>
	</g>
</g>
<g>
	<g>
		<rect x="176" y="264" class="st0" width="16" height="32"/>
	</g>
</g>
<g>
	<g>
		<rect x="208" y="240" class="st0" width="16" height="56"/>
	</g>
</g>
<g>
	<g>
		<rect x="240" y="256" class="st0" width="16" height="40"/>
	</g>
</g>
<g>
	<g>
		<rect x="272" y="248" class="st0" width="16" height="48"/>
	</g>
</g>
<g>
	<g>
		<path class="st0" d="M480,172c-0.8-19-11.4-36.2-27.9-45.6c2.5-5.8,3.9-12.1,3.9-18.4c0-25-20.2-47-50.9-55.9
			C395.8,26.3,364.3,8,328,8c-12.3,0-24.4,2.1-35.9,6.4C276.5,4.7,258.4-0.2,240,0c-15.2-0.1-30.3,3.3-44,9.9
			C189.4,8.6,182.7,8,176,8c-24.4-0.8-48,8.4-65.4,25.5C77.5,39,52.7,59.8,48.6,84.8C19.3,94.1,0,115.8,0,140
			c0.4,15.7,7.9,30.3,20.3,39.9C12.5,188.9,8.2,200.2,8,212c0,24.1,19,45.6,48,55c0,0.3,0,0.7,0,1c0,33.1,35.9,60,80,60
			c10.8,0,21.5-1.7,31.7-5c6.4,8.4,14.7,15,24.3,19.3V472c0,4.4,3.6,8,8,8c0,0,0,0,0,0h80c4.4,0,8-3.6,8-8c0,0,0,0,0,0V337.9
			c5.1-3.2,9.7-7.1,13.7-11.6c6,1.1,12.2,1.6,18.3,1.6c39.4,0,71.8-20.6,78.6-49c37.7-5.1,65.4-29.7,65.4-59c0-3.6-0.5-7.2-1.3-10.7
			C473.4,199.8,479.7,186.3,480,172z M272,464h-64V348.3c9.1,2.5,18.5,3.7,28,3.7c12.3,0,24.5-2.1,36-6.2V464z M448.5,200.5
			c-2.7,2.1-3.7,5.8-2.5,9c1.3,3.4,1.9,7,2,10.6c0,22-25,41.2-56.9,43.7c-3.9,0.3-7,3.3-7.3,7.2c-2.2,23-30.3,41.1-63.8,41.1
			c-6.7,0-13.3-0.8-19.8-2.3c-3.2-0.7-6.6,0.6-8.4,3.3c-9.2,13.7-31.6,22.9-55.7,22.9c-26.4,0-50.1-10.8-57.6-26.2
			c-1.3-2.7-4.1-4.5-7.2-4.5c-1,0-2.1,0.2-3,0.6C157.9,310,147,312,136,312c-35.3,0-64-19.7-64-44c0-1.8,0.2-3.6,0.6-5.4
			c0.8-4.2-1.8-8.2-5.9-9.2C41.1,247.1,24,230.5,24,212c0.4-10.6,5.4-20.4,13.7-27c3.3-2.9,3.7-8,0.7-11.3c-0.5-0.6-1.1-1.1-1.7-1.5
			c-12-6.5-19.8-18.6-20.7-32.2c0-18.3,16.9-34.8,42-41.2c3.5-0.9,5.9-4,6-7.5c0.5-20.5,22.2-38.4,51.6-42.4c2-0.3,3.7-1.2,5-2.8
			C135.2,31.3,155.3,23.2,176,24c6.5,0,13,0.7,19.4,2.1c1.9,0.4,3.8,0.1,5.5-0.8c12.1-6.3,25.5-9.5,39.1-9.3
			c16.5-0.3,32.8,4.5,46.4,13.9c2.3,1.7,5.3,2,7.9,0.9C305,26.2,316.4,24,328,24c30.7,0,57.8,15.8,63,36.6c0.7,2.9,3,5.1,5.9,5.8
			C422.7,72.7,440,89.4,440,108c-0.1,6.1-1.9,12.1-5.3,17.3c-2.4,3.7-1.2,8.7,2.5,11c0.2,0.1,0.4,0.3,0.6,0.4
			C454.2,145,464,158.2,464,172C463.5,183.4,457.8,193.8,448.5,200.5z"/>
	</g>
</g>
<g>
	<g>
		<path class="st0" d="M476.5,369.4c-2.2-1.5-4.9-1.8-7.4-0.9l-6,2.3c-2.1-9.9-8.5-18.3-17.5-22.9c1.5-3.8,2.3-7.8,2.3-11.9
			c0-17.7-14.3-32-32-32s-32,14.3-32,32c0,4.1,0.8,8.1,2.3,11.9c-9,4.6-15.4,13.1-17.5,22.9l-6-2.3c-4.1-1.6-8.8,0.5-10.3,4.6
			c-0.3,0.9-0.5,1.9-0.5,2.8v74.7c0,3.3,2,6.3,5.1,7.5l56,21.3c1.8,0.7,3.9,0.7,5.7,0l56-21.3c3.1-1.2,5.1-4.2,5.1-7.5V376
			C480,373.4,478.7,370.9,476.5,369.4z M408,460.4l-40-15.2v-57.5l40,15.2V460.4z M416,388.8l-31.9-12.1c0.6-8.4,7-15.3,15.4-16.4
			c4.4-0.6,7.5-4.6,6.9-9c-0.2-1.7-0.9-3.2-2.1-4.4c-6.1-6.4-5.8-16.6,0.7-22.6c6.4-6.1,16.6-5.8,22.6,0.7c5.8,6.2,5.8,15.8,0,21.9
			c-3,3.2-2.8,8.3,0.4,11.3c1.2,1.1,2.8,1.9,4.4,2.1c8.4,1.1,14.8,7.9,15.4,16.4L416,388.8z M464,445.2l-40,15.2v-57.5l40-15.2
			V445.2z"/>
	</g>
</g>
<g>
	<g>
		<path class="st0" d="M80,352c-4.4,0-8,3.6-8,8c0,0,0,0,0,0v40c0,4.4,3.6,8,8,8c0,0,0,0,0,0h40c4.4,0,8-3.6,8-8c0,0,0,0,0,0
			C128,373.5,106.5,352,80,352z M88,392v-23c11.3,2.9,20.1,11.7,23,23H88z"/>
	</g>
</g>
<g>
	<g>
		<path class="st0" d="M88,424C88,424,88,424,88,424H56v-32c0-4.4-3.6-8-8-8c0,0,0,0,0,0c-26.5,0-48,21.5-48,48
			c0,26.5,21.5,48,48,48s48-21.5,48-48C96,427.6,92.4,424,88,424z M40,463c-17.1-4.4-27.4-21.9-23-39c2.9-11.3,11.7-20.1,23-23v31
			c0,4.4,3.6,8,8,8c0,0,0,0,0,0h31C74.6,457.1,57.1,467.4,40,463z"/>
	</g>
</g>
<g>
	<g>
		<rect x="24" y="320" class="st0" width="16" height="48"/>
	</g>
</g>
<g>
	<g>
		<rect x="24" y="288" class="st0" width="16" height="16"/>
	</g>
</g>
</svg>
