<?xml version="1.0" encoding="utf-8"?>
<!-- Generator: Adobe Illustrator 23.0.2, SVG Export Plug-In . SVG Version: 6.00 Build 0)  -->
<svg version="1.1" id="Capa_1" xmlns="http://www.w3.org/2000/svg" xmlns:xlink="http://www.w3.org/1999/xlink" x="0px" y="0px"
	 viewBox="0 0 492.2 492.2" style="enable-background:new 0 0 492.2 492.2;" xml:space="preserve">
<style type="text/css">
	.st0{fill:#E60000;}
</style>
<g>
	<g>
		<path class="st0" d="M374.2,140.8c-13.3,0-24,10.7-24,24v32h-8.3c-2.2-15.3-16.4-25.9-31.7-23.7c-12.3,1.8-21.9,11.4-23.7,23.7
			h-14.8c4.3-7.3,6.5-15.6,6.5-24c0-26.5-21.5-48-48-48s-48,21.5-48,48c0,8.4,2.2,16.7,6.5,24h-14.8c-2.2-15.3-16.4-25.9-31.7-23.7
			c-12.3,1.8-21.9,11.4-23.7,23.7h-8.3v-32c0-13.3-10.7-24-24-24s-24,10.7-24,24v51.9c0,15.5,12.6,28.1,28.1,28.1h83.9v232
			c0,4.4,3.6,8,8,8c0,0,0,0,0,0h96c4.4,0,8-3.6,8-8c0,0,0,0,0,0v-232h81c17.1,0,31-13.9,31-31v-49
			C398.2,151.6,387.4,140.8,374.2,140.8z M382.2,213.8c0,8.3-6.7,15-15,15h-89c-4.4,0-8,3.6-8,8c0,0,0,0,0,0v232h-32v-128h-16v128
			h-32v-232c0-4.4-3.6-8-8-8c0,0,0,0,0,0H90.3c-6.7,0-12.1-5.4-12.1-12.1v-51.9c0-4.4,3.6-8,8-8s8,3.6,8,8v40c0,4.4,3.6,8,8,8
			c0,0,0,0,0,0h24c4.4,0,8-3.6,8-8c0,0,0,0,0,0v-4c0-6.6,5.4-12,12-12s12,5.4,12,12v4c0,4.4,3.6,8,8,8c0,0,0,0,0,0h40.2
			c4.4,0,8-3.6,8-8c0-2.5-1.2-4.9-3.2-6.4c-8.2-6-13-15.5-13-25.6c0-17.7,14.3-32,32-32s32,14.3,32,32c0,10.1-4.8,19.6-13,25.6
			c-3.5,2.6-4.3,7.7-1.6,11.2c1.5,2,3.9,3.2,6.4,3.2h40.2c4.4,0,8-3.6,8-8c0,0,0,0,0,0v-4c0-6.6,5.4-12,12-12s12,5.4,12,12v4
			c0,4.4,3.6,8,8,8c0,0,0,0,0,0h24c4.4,0,8-3.6,8-8c0,0,0,0,0,0v-40c0-4.4,3.6-8,8-8s8,3.6,8,8V213.8z"/>
	</g>
</g>
<g>
	<g>
		<path class="st0" d="M85.3,33.2c-0.8-1.5-2-2.8-3.6-3.6l-48-24c-4-2-8.8-0.4-10.7,3.6c-0.6,1.1-0.8,2.3-0.8,3.6v88h16V65.8
			L81.7,44C85.7,42,87.3,37.2,85.3,33.2z M38.2,47.9V25.8l22.1,11.1L38.2,47.9z"/>
	</g>
</g>
<g>
	<g>
		<path class="st0" d="M484.7,40.2c-1.5-2.1-3.9-3.4-6.5-3.4h-24.6l-7.8-26.3c-1.2-4.2-5.7-6.7-9.9-5.4c-2.6,0.8-4.6,2.8-5.4,5.4
			l-7.8,26.3h-24.6c-4.4,0-8,3.6-8,8c0,2.6,1.3,5,3.4,6.5l20,14.1l-7.7,25c-1.3,4.2,1.1,8.7,5.3,10c2.5,0.8,5.2,0.3,7.2-1.3
			L438.2,84L458,99.2c3.5,2.7,8.5,2,11.2-1.5c1.6-2.1,2.1-4.8,1.3-7.2l-7.7-25l20-14.1C486.4,48.8,487.2,43.8,484.7,40.2z
			 M448.8,55.7c-2.8,2-4.1,5.6-3,8.9l2,6.6l-4.8-3.7c-2.9-2.2-6.9-2.2-9.7,0l-4.8,3.7l2-6.6c1-3.3-0.2-6.9-3-8.9l-4.1-2.9h5.3
			c3.5,0,6.7-2.3,7.7-5.7l1.8-6l1.8,6c1,3.4,4.1,5.7,7.7,5.7h5.3L448.8,55.7z"/>
	</g>
</g>
<g>
	<g>
		<path class="st0" d="M478.2,348.8C478.2,348.8,478.2,348.8,478.2,348.8h-24c0-4.4-3.6-8-8-8c0,0,0,0,0,0h-48c-4.4,0-8,3.6-8,8
			c0,0,0,0,0,0h-24c-4.4,0-8,3.6-8,8c0,0,0,0,0,0v8c0.1,20.6,15.8,37.7,36.2,39.6c4.2,7.6,11.4,13.1,19.8,15.2v17.1h-8
			c-3.7,0-6.9,2.5-7.8,6.1l-8,32c-1.1,4.3,1.5,8.6,5.8,9.7c0.6,0.2,1.3,0.2,1.9,0.2h48c4.4,0,8-3.6,8-8c0-0.7-0.1-1.3-0.2-1.9l-8-32
			c-0.9-3.6-4.1-6.1-7.8-6.1h-8v-17.1c8.4-2.2,15.5-7.7,19.8-15.2c20.5-1.9,36.2-19,36.2-39.6v-8
			C486.2,352.4,482.6,348.8,478.2,348.8z M390.2,387.3c-9.6-3.4-16-12.4-16-22.5h16V387.3z M431.9,452.8l4,16h-27.5l4-16H431.9z
			 M438.2,388.8c0,8.8-7.2,16-16,16s-16-7.2-16-16v-32h32V388.8z M454.2,387.3v-22.5h16C470.1,374.9,463.7,384,454.2,387.3z"/>
	</g>
</g>
<g>
	<g>
		<path class="st0" d="M367.8,0c-4.1,5.4-7.5,11.4-10.3,17.6l14.7,6.4c2.2-5.1,5.1-9.9,8.4-14.4L367.8,0z"/>
	</g>
</g>
<g>
	<g>
		<path class="st0" d="M481.4,110.4c-12.4,9.4-27.6,14.4-43.2,14.4c-39.8,0-72-32.3-72-72.1c0-4.8,0.5-9.6,1.4-14.3l-15.7-3.2
			c-1.2,5.8-1.8,11.7-1.8,17.6c0.1,48.6,39.4,87.9,88,88c19.1,0.1,37.6-6.1,52.8-17.6L481.4,110.4z"/>
	</g>
</g>
<g>
	<g>
		<path class="st0" d="M124.4,35.2l-15.7,3.2c7.9,39-17.3,77-56.2,85c-4.7,1-9.5,1.4-14.3,1.4c-9.9,0-19.7-2-28.8-6L3,133.5
			c11.1,4.9,23.1,7.3,35.2,7.3c48.6-0.1,87.9-39.4,88-88C126.2,46.9,125.6,41,124.4,35.2z"/>
	</g>
</g>
<g>
	<g>
		<path class="st0" d="M108.6,0L95.8,9.6c3.3,4.5,6.2,9.3,8.4,14.4l14.7-6.4C116.1,11.4,112.7,5.4,108.6,0z"/>
	</g>
</g>
<g>
	<g>
		<path class="st0" d="M126.8,465.4c-2.4,5.1-5.5,10-9,14.5l12.6,9.9c4.3-5.4,7.9-11.3,10.9-17.5L126.8,465.4z"/>
	</g>
</g>
<g>
	<g>
		<path class="st0" d="M79.9,343.4c-7.1-1.7-14.4-2.6-21.8-2.6c-20.7-0.1-40.8,6.9-57,19.7l9.9,12.6c13.4-10.6,30-16.4,47-16.3
			c42,0,76,34.1,76,76.1c0,6.1-0.7,12.1-2.2,18l15.5,3.8C159.6,405.3,129.3,355.5,79.9,343.4z"/>
	</g>
</g>
<g>
	<g>
		<path class="st0" d="M324.8,348.5c-12.2,19.2-18.7,41.5-18.7,64.3c0,14.6,2.6,29.2,7.9,42.9l14.9-5.7
			c-20.5-53.7,6.4-113.8,60.1-134.3c30.7-11.7,65.1-8.3,92.8,9.3l8.6-13.5C434.5,276,360.3,292.6,324.8,348.5z"/>
	</g>
</g>
<g>
	<g>
		<path class="st0" d="M336.1,464.8l-13.9,8c4,6.9,8.7,13.4,14,19.4l12-10.6C343.6,476.4,339.5,470.8,336.1,464.8z"/>
	</g>
</g>
<g>
	<g>
		<rect x="326.2" y="140.8" class="st0" width="16" height="16"/>
	</g>
</g>
<g>
	<g>
		<rect x="294.2" y="140.8" class="st0" width="16" height="16"/>
	</g>
</g>
<g>
	<g>
		<rect x="158.2" y="140.8" class="st0" width="16" height="16"/>
	</g>
</g>
<g>
	<g>
		<rect x="126.2" y="140.8" class="st0" width="16" height="16"/>
	</g>
</g>
<g>
	<g>
		<path class="st0" d="M62.2,372.8c-30.9,0-56,25.1-56,56s25.1,56,56,56s56-25.1,56-56C118.1,397.9,93.1,372.8,62.2,372.8z
			 M62.2,444.8c-5,0-8-2.6-8-4h-16c0.5,9.2,7,16.9,16,18.8v8.4c-18.6-3.8-32-20.2-32-39.2c0-19,13.4-35.4,32-39.2v8.4
			c-9,1.9-15.5,9.6-16,18.8c0,14.6,13.9,17.8,22.2,19.8c7.6,1.8,9.8,2.7,9.8,4.2C70.2,442.2,67.1,444.8,62.2,444.8z M101.4,436.8
			c-3.2,15.7-15.5,28-31.2,31.2v-8.4c9-1.9,15.5-9.6,16-18.8c0-14.6-13.9-17.9-22.2-19.8c-7.6-1.8-9.8-2.7-9.8-4.2c0-1.4,3-4,8-4
			s8,2.6,8,4h16c-0.5-9.2-7-16.9-16-18.8v-8.4C91.8,394,105.8,415.2,101.4,436.8z"/>
	</g>
</g>
</svg>
