<?xml version="1.0" encoding="utf-8"?>
<!-- Generator: Adobe Illustrator 23.0.2, SVG Export Plug-In . SVG Version: 6.00 Build 0)  -->
<svg version="1.1" id="Layer_1" xmlns="http://www.w3.org/2000/svg" xmlns:xlink="http://www.w3.org/1999/xlink" x="0px" y="0px"
	 viewBox="0 0 736 435" style="enable-background:new 0 0 736 435;" xml:space="preserve">
<style type="text/css">
	.st0{fill-rule:evenodd;clip-rule:evenodd;fill:url(#SVGID_1_);}
	.st1{fill-rule:evenodd;clip-rule:evenodd;fill:#FFFFFF;fill-opacity:0.32;}
	.st2{fill-rule:evenodd;clip-rule:evenodd;fill:#FFFFFF;fill-opacity:8.000000e-02;}
	.st3{fill-rule:evenodd;clip-rule:evenodd;fill:#F90000;fill-opacity:0.16;}
	.st4{fill-rule:evenodd;clip-rule:evenodd;fill:url(#SVGID_2_);}
	.st5{fill-rule:evenodd;clip-rule:evenodd;fill:url(#SVGID_3_);}
	.st6{fill-rule:evenodd;clip-rule:evenodd;fill:#FF1515;fill-opacity:0.72;}
	.st7{fill-rule:evenodd;clip-rule:evenodd;fill:url(#SVGID_4_);}
</style>
<linearGradient id="SVGID_1_" gradientUnits="userSpaceOnUse" x1="112.4412" y1="473.814" x2="113.4412" y2="472.9305" gradientTransform="matrix(-215.0497 61.6645 -18.0346 -62.8942 33342.0195 23006.4277)">
	<stop  offset="0" style="stop-color:#E93A00"/>
	<stop  offset="1" style="stop-color:#FFFFFF;stop-opacity:0"/>
</linearGradient>
<path class="st0" d="M399,236c3.6-4.3,8.3-7.4,13.3-9.5c2.5-1.1,5.2-1.8,7.9-2.3l2-0.3l2-0.2c0.7-0.1,1.3-0.1,2-0.1c0.7,0,1.3,0,2,0
	c10.6,0,20.6,2.8,30.2,4.6c19.2,3.8,39.3,2.4,57.9-3.5c18.6-5.9,35.9-16.5,49.2-30.9l1.3-1.3l1.2-1.4l2.4-2.8l2.3-2.9l1.1-1.4
	l1.1-1.5l2.2-3l2-3.1c1.4-2,2.5-4.2,3.8-6.3c2.3-4.3,4.6-8.7,6.4-13.3c1-2.2,1.7-4.6,2.6-6.9c0.4-1.2,0.7-2.3,1.1-3.5
	c0.4-1.2,0.7-2.3,1-3.5c1.4-5.4,3.1-5.1,1.8,0.5c-0.3,1.2-0.6,2.4-0.9,3.6c-0.3,1.2-0.7,2.4-1,3.6c-0.8,2.4-1.5,4.8-2.5,7.1
	c-1.7,4.7-3.9,9.2-6.2,13.7c-1.2,2.2-2.4,4.4-3.7,6.5l-2,3.2l-2.1,3.1l-1.1,1.6l-1.1,1.5l-2.3,3l-2.4,2.9l-1.2,1.5l-1.3,1.4
	c-13.4,15.1-30.9,26.6-50.2,33.2c-19.3,6.5-40.3,8.4-60.5,4.8c-10-1.8-19.7-4.3-29.1-4.3c-4.8,0-9.2,0.7-13.5,2.5
	c-4.2,1.7-8,4.4-10.9,7.7c-2.7,3.2-4,6-4.9,8c-0.5,1-0.8,1.8-1.2,2.4c-0.4,0.6-0.8,0.9-1.2,0.9c-0.4,0-0.8-0.3-1.1-0.9
	c-0.3-0.6-0.7-1.7-0.7-3c0-0.4,0-0.7,0-1.1c0-0.4,0.1-0.8,0.1-1.2c0.1-0.5,0.1-0.9,0.2-1.3c0.1-0.5,0.3-0.9,0.4-1.4
	C396,240.2,397.3,238.1,399,236"/>
<path class="st1" d="M560.1,320.3c-1.1-1.2-2.7-2-4.3-2.1c-0.9,0-0.9,0.4,0,0.5c0.2,0,0.4,0.1,0.5,0.1c-0.4-0.1-0.8-0.1-1.2-0.1h0
	c0-0.2-0.2-0.4-0.6-0.5c-0.2-0.1-0.5-0.1-0.8-0.1c-0.3,0-0.7,0.1-1.1,0.2c-1.6,0.6-3,1.8-3.8,3.3c-0.8,1.5-1,3.4-0.6,5
	c0.4,1.7,1.4,3.2,2.9,4.2c1.4,1,3.2,1.4,4.9,1.2c1.7-0.2,3.3-1.1,4.4-2.4c1.1-1.3,1.7-3,1.7-4.7C562,323.1,561.3,321.5,560.1,320.3"
	/>
<path class="st2" d="M577.9,276.2c-0.5,0-0.4,0.4,0,0.4c0,0,0.1,0,0.1,0c-0.1,0-0.3,0-0.4,0c0-0.2-0.1-0.3-0.3-0.5
	c-0.2-0.1-0.5-0.2-0.9,0c-0.8,0.3-1.5,0.9-1.9,1.7c-0.4,0.8-0.5,1.7-0.3,2.5c0.4,1.8,2.1,2.9,3.9,2.7c0.9-0.1,1.6-0.6,2.2-1.2
	c0.5-0.6,0.8-1.5,0.8-2.3c0-0.8-0.4-1.6-0.9-2.2C579.5,276.6,578.7,276.2,577.9,276.2"/>
<path class="st3" d="M109,333.5l27.4-16.5l16.5,27.4l-27.4,16.5L109,333.5z"/>
<linearGradient id="SVGID_2_" gradientUnits="userSpaceOnUse" x1="112.1266" y1="472.616" x2="112.6568" y2="473.4835" gradientTransform="matrix(145.4429 262.3859 262.3859 -145.4429 -140186.1406 39514.7031)">
	<stop  offset="0" style="stop-color:#FF1515"/>
	<stop  offset="1" style="stop-color:#FFFFFF;stop-opacity:0"/>
</linearGradient>
<path class="st4" d="M362.4,0l145.4,262.4L245.4,407.8L100,145.4L362.4,0z"/>
<linearGradient id="SVGID_3_" gradientUnits="userSpaceOnUse" x1="112.8508" y1="474.3603" x2="112.8508" y2="473.3603" gradientTransform="matrix(-209.6243 -106.8089 -106.7413 209.4915 74754.9062 -86899.0859)">
	<stop  offset="0" style="stop-color:#FFFFFF;stop-opacity:0.32"/>
	<stop  offset="1" style="stop-color:#E90000;stop-opacity:0"/>
</linearGradient>
<path class="st5" d="M431.1,242.7c9.1-10.7,20.1-19.6,32.4-26.3c12.3-6.7,25.8-11.1,39.7-13c13.9-1.9,28.1-1.2,41.7,2
	c13.7,3.2,26.7,9,38.3,16.8c11.6,7.8,21.8,17.8,29.8,29.3c8,11.5,13.9,24.4,17.4,38.1c3.4,13.6,4.4,27.8,2.7,41.7
	c-0.1,0.6-0.2,1.3-0.2,1.9c-0.3-0.4-0.6-0.7-0.9-1.2c-1-1.2-2-2.3-3.1-3.3c-1.3-1.3-2.9-2.7-4.8-4.2c-1-0.8-2-1.6-3-2.3l-3.1-2.2
	l-1.5-1.1l-1.6-1l-3.2-2c-4.4-2.5-8.8-4.9-13.4-6.9c-9.2-4.1-19-6.8-29-8.4c-20-3-40.7-1-59.6,6.2c-18.9,7.1-35.9,19.3-48.8,34.7
	c-12.9,15.5-21.7,34.2-25.3,53.9c-0.1,0.6-0.2,1.1-0.3,1.7c-0.4-0.4-0.7-0.8-1.1-1.2c-9.5-10.2-17-22.2-22.2-35.1
	c-5.2-13-8.1-26.8-8.4-40.8C402.8,291.9,412.9,263.9,431.1,242.7 M400.3,319.8c0.3,14.4,3.2,28.6,8.6,42
	c5.4,13.3,13.1,25.7,22.9,36.2c4.7,5.1,9.4,9,13.5,12.2c4.2,3.1,7.8,5.5,10.8,7.2c1.5,0.8,2.8,1.6,4,2.1c1,0.5,2,0.9,3,1.3
	c1.6,0.7,2.4,0.9,2.5,0.7c0.1-0.2-0.6-0.8-2-1.7c-0.7-0.5-1.6-1.1-2.7-1.8l-3.7-2.5c-2.8-1.9-6.2-4.4-10.2-7.6
	c-3.4-2.8-7.2-6.1-11.1-10.2c0.1-0.6,0.3-1.4,0.5-2.3c3.8-19.5,12.8-38,25.7-53c12.9-15,29.7-26.8,48.3-33.5
	c18.6-6.8,38.8-8.6,58.3-5.5c9.7,1.6,19.2,4.3,28.2,8.3c4.5,1.9,8.8,4.3,13.1,6.7l3.1,2l1.6,1l1.5,1.1l3,2.1c1,0.7,1.9,1.5,2.9,2.3
	c1.9,1.4,3.5,2.8,4.9,3.9l3.5,2.7c0.9,0.7,1.6,1.1,2.2,1.4c-1.9,12.6-6,24.9-11.9,36.2c-6.4,12.5-15.3,23.6-25.8,32.9
	c-10.5,9.3-22.7,16.6-35.8,21.6c-13.1,5-27.1,7.5-41.1,7.4c-14,0-28-2.6-41.1-7.7c-1.8-0.8-3.5-1.4-4.9-2c-1.4-0.5-2.5-1.1-3.4-1.5
	c-1.8-0.8-2.8-1.1-2.8-1c-0.1,0.1,0.8,0.6,2.6,1.6c0.9,0.5,2,1.1,3.4,1.7c1.4,0.6,3,1.3,4.9,2.1c13.2,5.1,27.3,7.8,41.5,7.9
	c14.2,0.1,28.3-2.4,41.6-7.4c13.3-5,25.6-12.3,36.3-21.7c10.7-9.4,19.7-20.7,26.2-33.3c6.6-12.6,11-26.3,12.8-40.5
	c1.7-14.1,0.8-28.6-2.6-42.4c-3.4-13.9-9.4-27-17.5-38.8c-8.1-11.8-18.5-22-30.3-30c-11.8-8-25.1-14-39-17.3
	c-14-3.3-28.4-4.1-42.7-2.2c-14.3,1.9-28.1,6.3-40.7,13.1c-12.7,6.8-24,15.9-33.4,26.8C410.2,262.3,399.7,291.1,400.3,319.8"/>
<path class="st6" d="M579.6,284.3L552,263.5l20.8-27.5l27.5,20.8L579.6,284.3z"/>
<linearGradient id="SVGID_4_" gradientUnits="userSpaceOnUse" x1="114.8026" y1="476.8717" x2="113.9085" y2="476.3215" gradientTransform="matrix(-27.537 -20.7506 -20.7488 27.5346 13610.5957 -10480.8584)">
	<stop  offset="0" style="stop-color:#FFFFFF;stop-opacity:0"/>
	<stop  offset="1" style="stop-color:#FFFFFF;stop-opacity:0.64"/>
</linearGradient>
<path class="st7" d="M579.5,284.5L552,263.7l48.3-6.8L579.5,284.5z"/>
</svg>
