<?xml version="1.0" encoding="utf-8"?>
<!-- Generator: Adobe Illustrator 23.0.2, SVG Export Plug-In . SVG Version: 6.00 Build 0)  -->
<svg version="1.1" id="Capa_1" xmlns="http://www.w3.org/2000/svg" xmlns:xlink="http://www.w3.org/1999/xlink" x="0px" y="0px"
	 viewBox="0 0 480 480" style="enable-background:new 0 0 480 480;" xml:space="preserve">
<style type="text/css">
	.st0{fill:#E60000;}
</style>
<g>
	<g>
		<path class="st0" d="M363,313.8l-35.2,28.1l-27-20.3c-3.4-2.5-8.1-2-10.9,1.2l-48,56l12.1,10.4l43.1-50.3l26,19.5
			c2.9,2.2,6.9,2.1,9.8-0.1l40-32L363,313.8z"/>
	</g>
</g>
<g>
	<g>
		<rect x="256" y="400" class="st0" width="16" height="48"/>
	</g>
</g>
<g>
	<g>
		<rect x="288" y="360" class="st0" width="16" height="88"/>
	</g>
</g>
<g>
	<g>
		<rect x="320" y="384" class="st0" width="16" height="64"/>
	</g>
</g>
<g>
	<g>
		<rect x="352" y="376" class="st0" width="16" height="72"/>
	</g>
</g>
<g>
	<g>
		<path class="st0" d="M352,32c-4.4,0-8,3.6-8,8c0,0,0,0,0,0v40c0,4.4,3.6,8,8,8c0,0,0,0,0,0h40c4.4,0,8-3.6,8-8c0,0,0,0,0,0
			C400,53.5,378.5,32,352,32z M360,72V49c11.3,2.9,20.1,11.7,23,23H360z"/>
	</g>
</g>
<g>
	<g>
		<path class="st0" d="M360,104C360,104,360,104,360,104h-32V72c0-4.4-3.6-8-8-8c0,0,0,0,0,0c-26.5,0-48,21.5-48,48s21.5,48,48,48
			s48-21.5,48-48C368,107.6,364.4,104,360,104z M312,143c-17.1-4.4-27.4-21.9-23-39c2.9-11.3,11.7-20.1,23-23v31c0,4.4,3.6,8,8,8
			c0,0,0,0,0,0h31C346.6,137.1,329.1,147.4,312,143z"/>
	</g>
</g>
<g>
	<g>
		<path class="st0" d="M384,216c-13.3,0-24,10.7-24,24s10.7,24,24,24s24-10.7,24-24C408,226.8,397.3,216,384,216z M384,248
			c-4.4,0-8-3.6-8-8s3.6-8,8-8s8,3.6,8,8C392,244.4,388.4,248,384,248z"/>
	</g>
</g>
<g>
	<g>
		<path class="st0" d="M443.5,225.3l-9.7-4.8c-0.3-0.7-0.6-1.4-0.9-2.1l3.2-9.9c0.8-2.5,0.3-5.2-1.2-7.3c-3.5-4.6-7.6-8.7-12.1-12.1
			c-2.1-1.6-4.8-2-7.3-1.3l-9.9,3.2c-0.7-0.3-1.4-0.6-2.1-0.9l-4.8-9.7c-1.3-2.7-4.1-4.5-7.2-4.5h-15c-3,0-5.8,1.7-7.2,4.5l-4.8,9.7
			c-0.7,0.3-1.4,0.6-2.1,0.9l-9.9-3.2c-2.5-0.8-5.2-0.3-7.3,1.3c-4.6,3.5-8.7,7.6-12.1,12.1c-1.6,2.1-2,4.8-1.3,7.3l3.2,9.9
			c-0.3,0.7-0.6,1.4-0.9,2.1l-9.7,4.8c-2.7,1.3-4.5,4.1-4.5,7.2v15c0,3,1.7,5.8,4.5,7.2l9.7,4.8c0.3,0.7,0.6,1.4,0.9,2.1l-3.2,9.9
			c-0.8,2.5-0.3,5.2,1.3,7.3c3.5,4.6,7.6,8.7,12.1,12.1c2.1,1.6,4.8,2,7.3,1.3l9.9-3.2c0.7,0.3,1.4,0.6,2.1,0.9l4.8,9.7
			c1.3,2.7,4.1,4.5,7.2,4.5h15c3,0,5.8-1.7,7.2-4.5l4.8-9.7c0.7-0.3,1.4-0.6,2.1-0.9l9.9,3.2c2.5,0.8,5.2,0.3,7.3-1.2
			c4.6-3.5,8.7-7.6,12.1-12.1c1.6-2.1,2-4.8,1.3-7.3l-3.2-9.9c0.3-0.7,0.6-1.4,0.9-2.1l9.7-4.8c2.7-1.3,4.5-4.1,4.5-7.2v-15
			C448,229.4,446.3,226.7,443.5,225.3z M432,242.5l-8.1,4c-2,1-3.4,2.7-4.1,4.8c-0.7,2-1.5,4-2.5,5.9c-1,1.9-1.2,4.1-0.5,6.1
			l2.8,8.8c-1.1,1.2-2.2,2.3-3.4,3.4l-8.8-2.8c-2-0.7-4.2-0.5-6.1,0.5c-1.9,1-3.9,1.8-5.9,2.5c-2.1,0.7-3.8,2.1-4.8,4.1l-4,8.1h-5.1
			l-4-8.1c-1-2-2.7-3.4-4.8-4.1c-2-0.7-4-1.5-5.9-2.5c-1.9-1-4.1-1.2-6.1-0.5l-8.8,2.8c-1.2-1.1-2.3-2.2-3.4-3.4l2.8-8.8
			c0.6-2,0.5-4.2-0.5-6.1c-1-1.9-1.8-3.9-2.5-5.9c-0.7-2.1-2.1-3.8-4.1-4.8l-8.1-4v-5.1l8.1-4c2-1,3.4-2.7,4.1-4.8
			c0.7-2,1.5-4,2.5-5.9c1-1.9,1.2-4.1,0.5-6.1l-2.8-8.8c1.1-1.2,2.2-2.3,3.4-3.4l8.8,2.8c2,0.6,4.2,0.4,6.1-0.5
			c1.9-1,3.9-1.8,5.9-2.5c2.1-0.7,3.8-2.1,4.8-4.1l4-8.1h5.1l4,8.1c1,2,2.7,3.4,4.8,4.1c2,0.7,4,1.5,5.9,2.5c1.9,1,4.1,1.2,6.1,0.5
			l8.8-2.8c1.2,1.1,2.3,2.2,3.4,3.4l-2.8,8.8c-0.6,2-0.5,4.2,0.5,6.1c1,1.9,1.8,3.9,2.5,5.9c0.7,2.1,2.1,3.8,4.1,4.8l8.1,4
			L432,242.5L432,242.5z"/>
	</g>
</g>
<g>
	<g>
		<rect x="464" y="40" class="st0" width="16" height="16"/>
	</g>
</g>
<g>
	<g>
		<path class="st0" d="M472,0C472,0,472,0,472,0H216c-4.4,0-8,3.6-8,8c0,0,0,0,0,0v144h16V16h240v8h16V8C480,3.6,476.4,0,472,0z"/>
	</g>
</g>
<g>
	<g>
		<rect x="208" y="232" class="st0" width="16" height="176"/>
	</g>
</g>
<g>
	<g>
		<rect x="208" y="424" class="st0" width="16" height="16"/>
	</g>
</g>
<g>
	<g>
		<path class="st0" d="M464,72v392H224v-8h-16v16c0,4.4,3.6,8,8,8c0,0,0,0,0,0h256c4.4,0,8-3.6,8-8c0,0,0,0,0,0V72L464,72L464,72z"
			/>
	</g>
</g>
<g>
	<g>
		<path class="st0" d="M208.6,168l-92.5-6.9c2.6-5.3,3.9-11.2,3.9-17.1c0-22.1-17.9-40-40-40s-40,17.9-40,40
			c0,5.8,1.3,11.5,3.7,16.7C18.5,164.9,0,186.7,0,212.3V288c0,4.4,3.6,8,8,8c0,0,0,0,0,0h24v102.3L0.7,468.8c-1.8,4,0,8.8,4.1,10.6
			c1,0.5,2.1,0.7,3.3,0.7h144c4.4,0,8-3.6,8-8c0-1.1-0.2-2.2-0.7-3.3L128,398.3V216h80c4.4,0,8-3.6,8-8c0,0,0,0,0,0v-32
			C216,171.8,212.8,168.3,208.6,168z M139.7,464H20.3l24.9-56h69.6L139.7,464z M200,200h-80c-4.4,0-8,3.6-8,8c0,0,0,0,0,0v184H88
			V288H72v104H48V200H32v80H16v-67.7c0-20,16.2-36.2,36.3-36.3H59c4.4,0,8-3.6,8-8c0-2.3-1-4.5-2.7-6c-5.3-4.5-8.3-11.1-8.3-18
			c0-13.3,10.7-24,24-24s24,10.7,24,24c0,6.9-3,13.5-8.3,18c-3.3,2.9-3.7,8-0.8,11.3c1.4,1.6,3.3,2.6,5.4,2.7l99.6,7.4V200z"/>
	</g>
</g>
<g>
	<g>
		<rect x="27.3" y="4.7" transform="matrix(0.7071 -0.7071 0.7071 0.7071 1.3685 28.6908)" class="st0" width="16" height="16"/>
	</g>
</g>
<g>
	<g>
		<rect x="4.7" y="27.3" transform="matrix(0.7071 -0.7071 0.7071 0.7071 -21.2518 19.3179)" class="st0" width="16" height="16"/>
	</g>
</g>
<g>
	<g>
		<rect x="27.3" y="27.3" transform="matrix(0.7071 -0.7071 0.7071 0.7071 -14.6277 35.3143)" class="st0" width="16" height="16"/>
	</g>
</g>
<g>
	<g>
		<rect x="4.7" y="4.7" transform="matrix(0.7071 -0.7071 0.7071 0.7071 -5.2547 12.6939)" class="st0" width="16" height="16"/>
	</g>
</g>
<g>
	<g>
		<rect x="132.3" y="51.7" transform="matrix(0.7071 -0.7071 0.7071 0.7071 -1.1446 116.69)" class="st0" width="16" height="16"/>
	</g>
</g>
<g>
	<g>
		
			<rect x="109.7" y="74.3" transform="matrix(0.7071 -0.7071 0.7071 0.7071 -23.7649 107.3171)" class="st0" width="16" height="16"/>
	</g>
</g>
<g>
	<g>
		
			<rect x="132.3" y="74.3" transform="matrix(0.7071 -0.7071 0.7071 0.7071 -17.1404 123.3133)" class="st0" width="16" height="16"/>
	</g>
</g>
<g>
	<g>
		<rect x="109.7" y="51.7" transform="matrix(0.7071 -0.7071 0.7071 0.7071 -7.768 100.6933)" class="st0" width="16" height="16"/>
	</g>
</g>
</svg>
