<?xml version="1.0" encoding="utf-8"?>
<!-- Generator: Adobe Illustrator 23.0.2, SVG Export Plug-In . SVG Version: 6.00 Build 0)  -->
<svg version="1.1" id="Capa_1" xmlns="http://www.w3.org/2000/svg" xmlns:xlink="http://www.w3.org/1999/xlink" x="0px" y="0px"
	 viewBox="0 0 480 480" style="enable-background:new 0 0 480 480;" xml:space="preserve">
<style type="text/css">
	.st0{fill:#E60000;}
</style>
<g>
	<g>
		<path class="st0" d="M262.6,355.5c1.7-5.2,1.8-10.7,0.2-16c-2.8-9.2-10.2-16.2-19.6-18.6c-8.6-2.3-17.8-0.4-24.9,5.1
			c-6.6,5.1-10.5,12.9-10.5,21.2c0,2.8,0.4,5.6,1.3,8.3c-10.1,2.8-17.2,11.9-17.3,22.4V424c0,4.4,3.6,8,8,8c0,0,0,0,0,0h8v40
			c0,4.4,3.6,8,8,8c0,0,0,0,0,0h40c4.4,0,8-3.6,8-8c0,0,0,0,0,0v-40h8c4.4,0,8-3.6,8-8c0,0,0,0,0,0v-46.1
			C279.9,367.4,272.8,358.2,262.6,355.5z M264,416h-8c-4.4,0-8,3.6-8,8c0,0,0,0,0,0v40h-24v-40c0-4.4-3.6-8-8-8c0,0,0,0,0,0h-8
			v-38.1c0.2-4.2,3.8-7.5,8-7.4h8.1c4.4,0,8-3.6,8-8c0-2.6-1.2-5-3.3-6.5c-4.9-3.3-6.2-9.9-3-14.8c0.7-1,1.5-1.9,2.5-2.7
			c3.2-2.4,7.3-3.2,11.1-2.2c3.8,1,6.9,3.8,8.1,7.5c1.4,4.5-0.3,9.5-4.3,12.1c-3.6,2.6-4.4,7.6-1.9,11.2c1.5,2.1,3.9,3.3,6.5,3.3
			h8.1c4.2-0.2,7.8,3.1,8,7.4V416z"/>
	</g>
</g>
<g>
	<g>
		<path class="st0" d="M144,360c0-4.3-3.5-7.8-7.8-7.9c-26.3-0.6-44,4.6-55.6,16c-3.5,3.5-6.3,7.5-8.6,11.9
			c-2.2-4.4-5.1-8.4-8.6-11.9c-11.5-11.4-29.2-16.5-55.6-16C3.5,352.1,0,355.6,0,360c-0.2,27.2,4.9,44.5,16.6,56
			c10.3,10.2,25.6,15.3,47.4,15.9l0,48.1h16l0-48.1c21.9-0.6,37.1-5.7,47.4-15.9C139.1,404.4,144.2,387.2,144,360z M27.8,404.6
			c-7.2-7.1-11-18.9-11.7-36.5c17.3,0.5,28.9,4.2,36.1,11.3l0,0c7.2,7.1,11,18.9,11.7,36.5C46.6,415.4,35,411.7,27.8,404.6z
			 M80.1,415.9c0.7-17.7,4.5-29.4,11.7-36.5l0,0c7.2-7.1,18.8-10.8,36.1-11.3c-0.7,17.7-4.5,29.4-11.7,36.5
			C109,411.7,97.4,415.4,80.1,415.9z"/>
	</g>
</g>
<g>
	<g>
		<path class="st0" d="M240,168c-13.3,0-24,10.7-24,24c0,13.2,10.8,24,24,24c13.3,0,24-10.7,24-24S253.3,168,240,168z M240,200
			c-4.4,0-8-3.6-8-8c0-4.4,3.6-8,8-8c4.4,0,8,3.6,8,8S244.4,200,240,200z"/>
	</g>
</g>
<g>
	<g>
		<path class="st0" d="M299.5,177.3l-9.7-4.8c-0.3-0.7-0.6-1.4-0.9-2.1l3.2-9.9c0.8-2.5,0.3-5.2-1.3-7.3c-3.5-4.6-7.6-8.7-12.1-12.1
			c-2.1-1.6-4.8-2-7.3-1.3l-9.9,3.2c-0.7-0.3-1.4-0.6-2.1-0.9l-4.8-9.7c-1.3-2.7-4.1-4.5-7.2-4.5h-15c-3,0-5.8,1.7-7.2,4.5l-4.8,9.7
			c-0.7,0.3-1.4,0.6-2.1,0.9l-9.9-3.2c-2.5-0.8-5.2-0.3-7.3,1.3c-4.6,3.5-8.6,7.6-12.1,12.1c-1.6,2.1-2.1,4.8-1.3,7.3l3.2,9.9
			c-0.3,0.7-0.6,1.4-0.9,2.1l-9.7,4.8c-2.7,1.3-4.5,4.1-4.5,7.2v15c0,3,1.7,5.8,4.5,7.2l9.7,4.8c0.3,0.7,0.6,1.4,0.9,2.1l-3.2,9.9
			c-0.8,2.5-0.3,5.2,1.3,7.3c3.5,4.6,7.6,8.7,12.1,12.1c2.1,1.6,4.8,2,7.3,1.3l9.9-3.2c0.7,0.3,1.4,0.6,2.1,0.9l4.8,9.7
			c1.3,2.7,4.1,4.5,7.2,4.5h15c3,0,5.8-1.7,7.2-4.5l4.8-9.7c0.7-0.3,1.4-0.6,2.1-0.9l9.9,3.2c2.5,0.8,5.2,0.3,7.3-1.3
			c4.6-3.5,8.7-7.6,12.1-12.1c1.6-2.1,2.1-4.8,1.3-7.3l-3.2-9.9c0.3-0.7,0.6-1.4,0.9-2.1l9.7-4.8c2.7-1.3,4.5-4.1,4.5-7.2v-15
			C304,181.4,302.3,178.7,299.5,177.3z M288,194.5l-8.1,4c-2,1-3.4,2.7-4.1,4.8c-0.7,2.1-1.5,4-2.5,6c-1,1.9-1.2,4.1-0.5,6.1
			l2.8,8.8c-1.1,1.2-2.2,2.3-3.4,3.4l-8.8-2.8c-2-0.6-4.2-0.5-6.1,0.5c-1.9,1-3.9,1.8-5.9,2.5c-2.1,0.7-3.8,2.1-4.8,4.1l-4,8.1h-5.1
			l-4-8.1c-1-2-2.7-3.4-4.8-4.1c-2-0.7-4-1.5-5.9-2.5c-1.9-1-4.1-1.2-6.1-0.5l-8.8,2.8c-1.2-1.1-2.3-2.2-3.4-3.4l2.8-8.8
			c0.6-2,0.5-4.2-0.5-6.1c-1-1.9-1.8-3.9-2.5-5.9c-0.7-2.1-2.1-3.8-4.1-4.8l-8.1-4v-5.1l8.1-4c2-1,3.4-2.7,4.1-4.8
			c0.7-2.1,1.5-4,2.5-6c1-1.9,1.2-4.1,0.5-6.1l-2.8-8.8c1.1-1.2,2.2-2.3,3.4-3.4l8.8,2.8c2,0.6,4.2,0.5,6.1-0.5
			c1.9-1,3.9-1.8,5.9-2.5c2.1-0.7,3.8-2.1,4.8-4.1l4-8.1h5.1l4,8.1c1,2,2.7,3.4,4.8,4.1c2,0.7,4,1.5,5.9,2.5c1.9,1,4.1,1.2,6.1,0.5
			l8.8-2.8c1.2,1.1,2.3,2.2,3.4,3.4l-2.8,8.8c-0.6,2-0.5,4.2,0.5,6.1c1,1.9,1.8,3.9,2.5,6c0.7,2.1,2.1,3.8,4.1,4.8l8.1,4L288,194.5
			L288,194.5z"/>
	</g>
</g>
<g>
	<g>
		<path class="st0" d="M416,280C416,280,416,280,416,280H248v-8h-16v8H72c-4.4,0-8,3.6-8,8c0,0,0,0,0,0v32h16v-24h152v8h16v-8h160v8
			h16v-16C424,283.6,420.4,280,416,280z"/>
	</g>
</g>
<g>
	<g>
		<path class="st0" d="M328,8C328,8,328,8,328,8h-24c0-4.4-3.6-8-8-8c0,0,0,0,0,0h-56c-4.4,0-8,3.6-8,8c0,0,0,0,0,0v104h16V64h40
			c0,4.4,3.6,8,8,8c0,0,0,0,0,0h32c4.4,0,8-3.6,8-8c0,0,0,0,0,0V16C336,11.6,332.4,8,328,8z M288,48h-40V16h40V48z M320,56h-16V24
			h16V56z"/>
	</g>
</g>
<g>
	<g>
		<rect x="64" y="336" class="st0" width="16" height="16"/>
	</g>
</g>
<g>
	<g>
		<rect x="408" y="320" class="st0" width="16" height="16"/>
	</g>
</g>
<g>
	<g>
		<path class="st0" d="M416,352c-35.3,0-64,28.7-64,64s28.7,64,64,64s64-28.7,64-64C480,380.7,451.3,352,416,352z M416,432
			c-5,0-8-2.6-8-4h-16c0.5,9.2,7,16.9,16,18.8v16.5c-23.1-3.9-40-23.9-40-47.3c0-23.4,16.9-43.4,40-47.3v16.5
			c-9,1.9-15.5,9.6-16,18.8c0,14.6,13.9,17.8,22.2,19.8c7.6,1.8,9.8,2.7,9.8,4.2C424,429.4,421,432,416,432z M424,463.3v-16.5
			c9-1.9,15.5-9.6,16-18.8c0-14.6-13.9-17.9-22.2-19.8c-7.6-1.8-9.8-2.7-9.8-4.2c0-1.4,3-4,8-4s8,2.6,8,4h16
			c-0.5-9.2-7-16.9-16-18.8v-16.5c26.1,4.4,43.7,29.1,39.3,55.2C460,444.1,444.2,459.9,424,463.3z"/>
	</g>
</g>
</svg>
